<?xml version="1.0" encoding="UTF-8"?>
<svg id="_레이어_1" data-name="레이어 1" xmlns="http://www.w3.org/2000/svg" version="1.1" viewBox="0 0 1080 400">
  <defs>
    <style>
      .cls-1 {
        fill: #000;
        stroke-width: 0px;
      }
    </style>
  </defs>
  <path class="cls-1" d="M373.2,19.6l-30,141.8h-112.5l-4.3,19.7h132.1l-10.8,51.2H26.8l11.4-51.2h132.1l4.3-19.7H62.1L93.6,19.6h55.9l-4.7,21.3h167.9l4.6-21.3h55.9ZM23.2,248.1h301.6l-30,141.8h-56.7l19.4-90.6H11.8l11.4-51.2ZM297.9,110.2l4-18.9h-168.2l-4.2,18.9h168.4Z"/>
  <path class="cls-1" d="M392.7,167.7h320.2l-10.1,51.2h-68.1l-4.6,22.9c6.7,1.6,12.9,4,18.5,7.3,5.6,3.3,10.1,7.7,13.4,13.2,3.3,5.5,5.6,12.2,6.6,20.1,1.1,7.9.5,17.3-1.7,28.3-3,15-7.6,27.1-13.9,36.2-6.3,9.2-13.7,16.2-22.1,21.1-8.5,4.9-17.7,8.1-27.8,9.9-10,1.7-20.2,2.5-30.4,2.5h-126.8c-10.2,0-20-.8-29.4-2.5-9.4-1.7-17.3-5-23.7-9.9-6.4-4.9-10.9-11.9-13.5-21.1-2.5-9.2-2.2-21.3.9-36.2,2.3-11,5.6-20.5,9.9-28.3,4.3-7.9,9.2-14.6,14.8-20.1,5.6-5.5,11.9-9.9,18.8-13.2,7-3.3,14.1-5.7,21.5-7.3l4.7-22.9h-68.1l10.7-51.2ZM406.5,151.9h75.3l91.7-89.8,55.5,89.8h75.3L612.4,10.2h-56.3l-149.7,141.8ZM586.7,329.2c13.3,0,21.3-6.3,23.8-18.9s.8-12.6-2.1-15.8c-2.9-3.2-7.5-4.7-13.7-4.7h-133.4c-6.3,0-11.5,1.6-15.7,4.7-4.2,3.1-7,8.4-8.6,15.8-2.6,12.6,2.8,18.9,16.1,18.9h133.6ZM502.3,238.6h72.1l4-19.7h-72l-4,19.7Z"/>
  <path class="cls-1" d="M744.1,167.7h320.2l-9.4,51.2h-68.1l-4.3,22.9c6.8,1.6,13,4,18.6,7.3,5.7,3.3,10.2,7.7,13.6,13.2,3.4,5.5,5.7,12.2,6.9,20.1,1.2,7.9.7,17.3-1.3,28.3s-7.2,27.1-13.4,36.2c-6.2,9.2-13.4,16.2-21.8,21.1-8.4,4.9-17.6,8.1-27.6,9.9-10,1.7-20.2,2.5-30.4,2.5h-126.8c-10.2,0-20.1-.8-29.4-2.5-9.4-1.7-17.3-5-23.9-9.9-6.5-4.9-11.1-11.9-13.8-21.1-2.6-9.2-2.5-21.3.4-36.2s5.3-20.5,9.5-28.3c4.2-7.9,9-14.6,14.5-20.1,5.5-5.5,11.7-9.9,18.6-13.2,6.9-3.3,14-5.7,21.4-7.3l4.4-22.9h-68.1l10.1-51.2ZM757.8,151.9h75.3l90.5-89.8,56.6,89.8h75.3L961.8,10.2h-56.3l-147.8,141.8ZM940.3,329.2c13.3,0,21.2-6.3,23.6-18.9s.6-12.6-2.4-15.8c-2.9-3.2-7.5-4.7-13.8-4.7h-133.4c-6.3,0-11.5,1.6-15.6,4.7-4.2,3.1-6.9,8.4-8.4,15.8-2.4,12.6,3,18.9,16.4,18.9h133.6ZM854.7,238.6h72.1l3.7-19.7h-72l-3.8,19.7Z"/>
</svg>