<?xml version="1.0" encoding="UTF-8"?>
<svg id="_레이어_1" data-name=" 레이어 1" xmlns="http://www.w3.org/2000/svg" version="1.1" viewBox="0 0 512 512">
  <defs>
    <style>
      .cls-1 {
        stroke-width: 10.9px;
      }

      .cls-1, .cls-2, .cls-3 {
        fill: #000;
        stroke: #000;
        stroke-miterlimit: 10;
      }

      .cls-2 {
        stroke-width: 2.9px;
      }

      .cls-3 {
        stroke-width: .8px;
      }
    </style>
  </defs>
  <path class="cls-3" d="M373.1,0h-234.1C62.5,0,0,62.5,0,138.9v234.1c0,76.5,62.5,139,138.9,139h234.1c76.4,0,138.9-62.5,138.9-138.9v-234.1c.1-76.5-62.4-139-138.8-139h0ZM460.9,349.6c0,61.1-50,111.1-111.1,111.1h-187.3c-61.1,0-111.1-50-111.1-111.1v-187.3c0-61.1,50-111.1,111.1-111.1h187.3c61.1,0,111.1,50,111.1,111.1v187.3h0Z"/>
  <path class="cls-1" d="M256,131.1c-68.9,0-124.9,55.9-124.9,124.9s55.9,124.9,124.9,124.9,124.9-55.9,124.9-124.9-55.9-124.9-124.9-124.9ZM256,339.5c-46.1,0-83.5-37.4-83.5-83.5s37.4-83.5,83.5-83.5,83.5,37.4,83.5,83.5-37.4,83.5-83.5,83.5Z"/>
  <circle class="cls-2" cx="380.9" cy="113.3" r="32.4"/>
</svg>