<?xml version="1.0" encoding="UTF-8"?>
<svg id="_레이어_1" data-name=" 레이어 1" xmlns="http://www.w3.org/2000/svg" version="1.1" viewBox="0 0 512 512">
  <defs>
    <style>
      .cls-1 {
        fill: #000;
        stroke-width: 0px;
      }
    </style>
  </defs>
  <path class="cls-1" d="M0,0v512h512V0H0ZM381.2,365.7c0,1.5-.1,2.8-.2,5-2.5.2-4.9.8-7.3.8-23.7,0-47.2,0-70.9.1-4.6,0-7.5-1.6-10.2-5.4-24-34.2-48.1-68.2-72.3-102.2-1.1-1.7-2.4-3.3-4.4-6.2v113.2c-2.8.2-5,.5-7.3.6-23.5,0-46.8-.1-70.2.1-5.8,0-7.4-1.8-7.4-7.5.1-72.1.1-144,0-216,0-6.1,2-7.7,7.9-7.6,23.5.3,46.8.2,70.2,0,4.8,0,7.6,1.6,10.2,5.4,24.4,36.1,48.9,72.2,73.5,108.2.7,1,1.4,2,2,3.1.5,0,.8-.1,1.2-.2h-.2v-109.1c0-5.2,1.1-7.5,6.9-7.4,23.8.2,47.7.2,71.5,0,5,0,6.9,1.2,6.9,6.7-.1,72.8,0,145.7-.1,218.5Z"/>
</svg>