<?xml version="1.0" encoding="UTF-8"?>
<svg id="_레이어_1" data-name=" 레이어 1" xmlns="http://www.w3.org/2000/svg" version="1.1" xmlns:xlink="http://www.w3.org/1999/xlink" viewBox="0 0 318 1080">
  <defs>
    <style>
      .cls-1 {
        fill: url(#_무제_그라디언트_26);
      }

      .cls-1, .cls-2, .cls-3, .cls-4 {
        stroke-width: 0px;
      }

      .cls-2 {
        fill: url(#_무제_그라디언트_32);
      }

      .cls-3 {
        fill: #fff;
      }

      .cls-4 {
        fill: url(#_무제_그라디언트_38);
      }
    </style>
    <linearGradient id="_무제_그라디언트_38" data-name="무제 그라디언트 38" x1="100.7" y1="160" x2="216.7" y2="160" gradientUnits="userSpaceOnUse">
      <stop offset="0" stop-color="#fff" stop-opacity=".5"/>
      <stop offset=".5" stop-color="#fff" stop-opacity="0"/>
      <stop offset="1" stop-color="#fff" stop-opacity=".5"/>
    </linearGradient>
    <linearGradient id="_무제_그라디언트_32" data-name="무제 그라디언트 32" x1="159" y1="258" x2="159" y2="401.5" gradientUnits="userSpaceOnUse">
      <stop offset="0" stop-color="#fff" stop-opacity=".5"/>
      <stop offset="1" stop-color="#fff" stop-opacity="0"/>
    </linearGradient>
    <linearGradient id="_무제_그라디언트_26" data-name="무제 그라디언트 26" x1="159" y1="384.8" x2="159" y2="1080" gradientUnits="userSpaceOnUse">
      <stop offset="0" stop-color="#f4ebe2"/>
      <stop offset="1" stop-color="#fff" stop-opacity=".5"/>
    </linearGradient>
  </defs>
  <rect class="cls-4" x="100.7" y="73" width="116" height="174"/>
  <rect class="cls-3" x="93.3" width="131.3" height="63"/>
  <path class="cls-2" d="M127.8,369.5c54,0,54,32,108,32s52-20.9,82.2-28.9v-14.6c0-55.2-44.8-100-100-100h-118c-55.2,0-100,44.8-100,100v41.8c5.7,1.1,12.2,1.7,19.8,1.7,54,0,54-32,108-32Z"/>
  <path class="cls-1" d="M235.8,416.1c-54,0-54-31.3-108-31.3s-54,31.3-108,31.3-14-.6-19.8-1.7v633.4c0,17.7,14.4,32.1,32.1,32.1h253.8c17.7,0,32.1-14.4,32.1-32.1V387.8c-30.2,7.8-38.5,28.3-82.2,28.3Z"/>
</svg>