<?xml version="1.0" encoding="UTF-8"?>
<svg id="_레이어_1" data-name=" 레이어 1" xmlns="http://www.w3.org/2000/svg" version="1.1" viewBox="0 0 512 512">
  <defs>
    <style>
      .cls-1 {
        fill: #000;
        stroke-width: 0px;
      }
    </style>
  </defs>
  <path class="cls-1" d="M748,266"/>
  <g>
    <path class="cls-1" d="M511.9,217.4v4.8c0,.3-.2.7-.2,1,0,6.9-.7,13.8-1.8,20.7-3.4,21.7-11,41.8-22.4,60.6-13.3,22.1-30.6,40.6-50.9,56.3-24,18.7-50.7,32.3-79.5,42-18.6,6.3-37.6,10.6-57,13.3-14.3,1.9-28.6,2.9-43,3-6.2,0-12.5,0-18.7-.5-8.4-.6-16.8-1.5-25.2-2.3-.9,0-1.7-.2-2.6.4-28.9,20.2-57.7,40.5-86.6,60.7-5.1,3.6-10.2,7-15.4,10.5-2.1,1.4-4.5,2.5-7.1,2.7-2.7.2-4.3-1-4.8-3.7-.5-2.7,0-5.3.6-7.8,6.5-24,13-48.1,19.5-72.1,1.6-5.7,3.1-11.5,4.7-17.3-.5-.3-1-.5-1.5-.8-5.8-3.1-11.7-6-17.4-9.3-24.2-14.1-45.7-31.5-63.4-53.3-18.1-22.3-30.8-47.3-36.5-75.6-1.6-8-2.7-16-2.6-24.2.1-6.2,0-12.4,0-18.6,0-.5,0-1,0-1.6,1.2-13.7,4.1-27,8.8-40,9.1-25.4,23.7-47.4,42.4-66.7,14.9-15.4,31.8-28.2,50.3-39.1,23.6-13.8,48.7-23.8,75.2-30.5,12.3-3.1,24.7-5.4,37.2-7,8.8-1.1,17.7-1.8,26.6-1.7,11.3.1,22.6,0,33.9,0,4.8,0,9.5.2,14.3.7,15,1.4,29.8,4,44.4,7.6,22.6,5.6,44.2,13.6,64.8,24.3,26.1,13.6,49.3,30.9,68.9,53,14.5,16.5,26.1,34.8,34.1,55.3,6.7,17.4,10.4,35.5,10.7,54.2,0,.3.1.6.2.9ZM392.3,227.6c.3.4.5.7.6,1,8.1,13.4,16.3,26.7,24.4,40.1,2,3.2,3.9,6.4,5.9,9.6,1.4,2.2,2.9,4.4,5.3,5.4,5.3,2,10.5,1.6,15.1-2,4.1-3.2,5.3-9.9,3-14.8-.6-1.2-1.2-2.4-2-3.6-11-17.9-22.1-35.8-33.2-53.7-.4-.6-.7-1,0-1.7,8.1-9,16.1-17.9,24.1-26.9,1.7-1.9,3.5-3.8,4.9-5.9,3-4.7,2.2-10.4-1.7-14.1-3.3-3.1-10.2-4.9-14.9-1.4-1.4,1.1-2.8,2.3-3.9,3.7-13.7,15.9-27.3,31.9-41,47.9-.3.3-.5.6-1,1.1,0-.8,0-1.2,0-1.6,0-8.6,0-17.3,0-25.9,0-4.8,0-9.6,0-14.4-.2-6.8-4.6-11.5-11.2-12.5-5.9-.9-11.3,2-13.6,7.2-1,2.1-1.3,4.3-1.3,6.7,0,32.9,0,65.9,0,98.8,0,1.1,0,2.2.2,3.3.8,4.8,3.2,8.5,7.9,10.1,4.8,1.7,9.5,1.3,13.6-2.1,3.4-2.8,4.5-6.7,4.5-11,0-8.9,0-17.8,0-26.7,0-.8.2-1.4.8-2,2.1-2.1,4.1-4.3,6.1-6.5,2.5-2.6,5-5.3,7.6-8ZM205.5,157.7s0,0,0,0c-1.6,0-3.2,0-4.8,0-4.7.3-8.3,2.2-10.4,6.5-.4.8-.7,1.7-1,2.6-10.9,30.6-21.8,61.1-32.6,91.7-1.4,4-2.7,8-3.6,12.2-1.3,6.4,2.4,12.2,8.5,13.6,1.6.4,3.3.4,4.9.4,5.4-.2,8.6-2.6,10.3-7.7,2.2-6.4,4.3-12.8,6.4-19.2.3-.9.7-1.2,1.7-1.2,13.3,0,26.5,0,39.8,0,1.1,0,1.5.3,1.8,1.3,2,6.2,4.1,12.4,6.1,18.6,1.3,4.1,3.9,7,8.2,7.9,1.6.3,3.2.4,4.8.4,6.9-.3,12.3-6.9,11.2-13.7-.4-2.6-1.1-5.1-1.9-7.5-9.3-27.7-18.7-55.4-28.1-83.1-1.6-4.8-3.2-9.6-4.9-14.3-1.9-5.1-5.7-7.9-11.1-8.3-1.8-.1-3.5,0-5.3,0ZM102.1,183.3c0,.5,0,1,0,1.4,0,3.8,0,7.5,0,11.3,0,24.9,0,49.9,0,74.8,0,7.5,4.1,12.6,10.9,13.8,5.7,1,11.1-1.6,13.6-6.4,1.3-2.4,1.7-5.1,1.7-7.8,0-28.5,0-56.9,0-85.4v-1.7h1.5c7.6,0,15.3,0,22.9,0,2.1,0,4.3-.3,6.4-1,9.5-3.2,9.6-14.6,4.1-19.1-2.8-2.4-6.2-3.3-9.8-3.3-25.5,0-50.9,0-76.4,0-2.5,0-4.9.5-7.2,1.6-4.1,2-6.2,5.4-6.2,9.9,0,4.6,1.8,8,5.9,10.2,2.5,1.4,5.3,1.8,8.1,1.8,7.7,0,15.4,0,23.1,0h1.4ZM288.4,259c0-.7,0-1.2,0-1.7,0-28.2,0-56.5,0-84.7,0-1.2,0-2.4-.2-3.6-.8-5.1-3.2-9.1-8.4-10.7-5.2-1.6-10.1-.9-14.1,3.1-2.8,2.8-3.6,6.4-3.6,10.3,0,31.6,0,63.1,0,94.7,0,1.6.1,3.1.4,4.7.9,6,4.1,9.7,9.6,10.9,1.7.4,3.4.6,5.1.6,18.3,0,36.7,0,55,0,1.8,0,3.6-.3,5.3-.8,5-1.4,8.1-5.3,8.3-10.4.2-5.5-2.5-9.6-7.6-11.3-2-.6-4.1-1-6.2-1-14,0-28,0-42,0h-1.6Z"/>
    <path class="cls-1" d="M220.3,237.2h-30.9c5.2-16.5,10.4-32.9,15.6-49.3.1,0,.2,0,.4,0,5,16.4,9.9,32.7,14.9,49.3Z"/>
  </g>
</svg>