<?xml version="1.0" encoding="UTF-8"?>
<svg id="_레이어_1" data-name=" 레이어 1" xmlns="http://www.w3.org/2000/svg" version="1.1" viewBox="0 0 512 512">
  <defs>
    <style>
      .cls-1 {
        fill: #000;
        stroke-width: 0px;
      }
    </style>
  </defs>
  <path class="cls-1" d="M402.5,25.6c26,0,52,0,78,0-.7,1-1.4,2-2.2,2.9-54.6,62.4-109.2,124.7-164,187-3.4,3.8-3.8,6.1-.5,10.4,64.8,85.3,129.4,170.7,194,256.1.9,1.2,2.1,2.2,3.2,3.2-1.4.4-2.8,1-4.2,1-51.3,0-102.6,0-153.9,0-.8-1.3-1.5-2.7-2.4-4-33.2-43.4-66.4-86.7-99.6-130.1-6.8-8.9-13.6-17.7-20.6-26.8-1.6,1.7-2.8,3-4,4.3-20.3,23.1-40.5,46.2-60.8,69.3-25.4,29.1-50.8,58.2-76.3,87.3H11.4c.8-1.1,1.6-2.3,2.5-3.3,51.2-58.5,102.5-117,153.7-175.5,8.7-9.9,17.3-19.8,26.1-29.8-.9-1.3-1.6-2.3-2.3-3.2C128.9,192.8,66.3,111.1,3.8,29.5c-.8-1.1-1.9-1.9-2.9-2.8,1.4-.4,2.8-1,4.2-1,52.7,0,105.4,0,158.1,0,.8,1.5,1.5,3.1,2.5,4.4,33.5,44.4,67.1,88.8,100.7,133.1,2.4,3.1,4.8,6.2,7.4,9.6,1.7-1.9,3-3.3,4.3-4.8,13.8-15.7,27.5-31.4,41.3-47.2,27.7-31.7,55.4-63.5,83.1-95.2ZM418.5,439.8c-1.7-2.4-2.6-3.7-3.5-4.9-36.5-48.3-73.1-96.6-109.7-144.9-54.7-72.3-109.4-144.5-164.1-216.7-1.1-1.4-2.8-3.1-4.3-3.1-14.5-.2-29-.1-44.3-.1,1.5,2.1,2.4,3.6,3.5,4.9,53.5,69.9,106.9,139.7,160.4,209.6,38.6,50.5,77.3,101,116,151.4,1.3,1.6,3.3,3.7,5.1,3.8,13.3.3,26.6.2,41,.2Z"/>
</svg>