<?xml version="1.0" encoding="UTF-8"?>
<svg id="_레이어_1" data-name="레이어 1" xmlns="http://www.w3.org/2000/svg" version="1.1" xmlns:xlink="http://www.w3.org/1999/xlink" viewBox="0 0 512 512">
  <defs>
    <style>
      .cls-1 {
        fill: #000;
      }

      .cls-1, .cls-2 {
        stroke-width: 0px;
      }

      .cls-2 {
        fill: #fff;
      }
    </style>
  </defs>
  <path class="cls-2" d="M669.1,234.6c1.8-.3,3.5-.8,5.3-1,14.2-1.6,28.5-1.8,42.7.1,6.2.8,12.5,1.8,18.6,3,4.6,1,9.2,2.6,13.7,3.9,3.5,1.1,6.9,2.1,10.3,3.4,3.3,1.3,6.5,2.6,9.6,4.3,6.9,3.7,13.7,7.5,20.4,11.3,8.2,4.7,16,10,23.6,15.5,11.6,8.4,22.5,17.6,32.3,28.1,9.8,10.4,18,22,25.2,34.2,5.6,9.6,10.2,19.7,13.9,30.1,2.1,5.8,3.6,11.9,5,17.9,1.6,7.3,2.9,14.6,4,22,.6,4.1.5,8.3.8,12.4.5,8.2,0,16.4-.8,24.6,0,.9-.3,1.9-1,2.7-.3-2.1-.6-4.1-.8-6.2-.5-6.2-.7-12.5-1.4-18.7-.5-4.8-1.4-9.6-2.3-14.4-.8-4.7-1.6-9.4-2.8-14-2-7.6-4.1-15.2-7.1-22.6-2.1-5.2-4.3-10.3-6.3-15.5-1-2.7-2.9-4.7-4.6-6.8-3.6-4.5-7.5-8.9-11.4-13.1-7.2-7.9-15.1-15-23.4-21.7-10.4-8.4-21.6-15.5-33.2-22-4.1-2.3-8.5-4-12.8-5.9-4.9-2.2-9.9-4.3-14.9-6.2-3.8-1.5-7.8-2.7-11.7-3.9-5.2-1.5-10.5-2.8-15.7-4.2-.5-.1-1.1-.2-1.7-.2-9-.7-18-1.5-27-1.9-3.7-.2-7.4.5-11.2,1-4.5.5-8.9,1-13.4,1.8-5.3.9-10.5,2.1-15.7,3.2-4.3.9-8.5,1.8-12.7,3-6,1.7-11.9,3.5-17.8,5.7-9.5,3.5-18.8,7.3-27.8,11.8-1.2.6-2.4,1.2-3.6,1.8-.1-.2-.3-.3-.4-.5.5-.5.9-1.2,1.5-1.6,7.6-5.6,15.8-10.3,24.3-14.4,10.5-5,21.5-8.6,32.8-11.3,3.7-.9,7.5-1.2,11.3-1.9,6-1,12.1-1,18.2-1.2,14.6-.5,29.1,1.3,43.6,2.5,4.7.4,9.3,1.2,13.9,2.1,5.4,1.1,10.7,2.7,16,4,6.3,1.5,12.3,3.8,18.3,6.3,7,3,13.9,6.2,20.4,9.9,10.1,5.8,19.5,12.4,28,20.2,4,3.6,7.7,7.6,11.5,11.4.6.6,1.2,1.3,2,2.1.4-1.4-.4-2-.9-2.7-6.2-8.8-12.7-17.4-20-25.4-7.1-7.9-14.7-15.2-23.2-21.7-6.9-5.2-14.1-10.1-21.9-14-10-5.1-20.3-9.4-31.1-12.6-5.1-1.5-10.2-2.9-15.3-4.5-4.3-1.3-8.7-2.2-13-3.3-11.7-2.9-23.6-4-35.5-5.1-7.3-.7-14.6-.7-22-1-.9,0-1.9-.2-2.8-.3,0-.2,0-.4,0-.6Z"/>
  <path class="cls-2" d="M1200.6,474.4h6.9v124.8h-6.9v-124.8Z"/>
  <image width="512" height="512" transform="translate(1103 -59)" xlink:href="newlogo-1.png"/>
  <path class="cls-1" d="M256,9.9C120.1,9.9,9.9,120.1,9.9,256s110.2,246.1,246.1,246.1,246.1-110.2,246.1-246.1S391.9,9.9,256,9.9ZM245.3,44.9c4.2-1,8.5-2.1,12.8-2.8,11.1-1.9,22.2-3,33.5-2,4.3.4,8.7.5,13,1.2,5.2.9,10.3,2.2,15.4,3.4,6,1.4,11.9,3.5,17.7,5.9,7.1,2.9,14,6.5,20.8,10.4,10.6,6.1,20.5,13.5,29.7,22.1,13.6,12.7,25.4,27.2,36.1,43,3.6,5.3,7.2,10.8,10.5,16.4,3.5,6,6.8,12.3,9.7,18.8,2.8,6.4,5.4,12.9,7.4,19.7.7,2.4,1.4,4.8,2,7.2,1,3.9,2.4,7.7,3,11.7,1.6,11.2,2.8,22.4,4.1,33.6,0,.7.1,1.5,0,2.2-.1,3.6-.2,7.1-.4,10.7-.1,2.5-.3,5.1-.4,7.6-.2,0-.4,0-.6,0-.6-2.2-.6-4.5-.8-6.7-.5-5.7-.8-11.4-1.6-17.1-1.5-10.5-3.3-21-5.9-31.3-1.1-4.5-2.3-8.9-3.7-13.3-1.2-4-2.7-7.9-4-11.9-1.2-3.4-2.2-6.9-3.5-10.3-1.6-4-3.4-8-5.1-12-4.8-11-10.4-21.3-17.1-30.9-7.9-11.2-17-20.9-27.1-29.5-10.3-8.9-21.3-16.5-32.9-23-8.2-4.6-16.7-8.5-25.4-11.7-4.8-1.8-9.7-3.3-14.6-4.8-3.5-1-6.9-1.9-10.5-2.6-4.4-.9-8.8-1.6-13.1-2.2-4.2-.6-8.3-1.2-12.5-1.5-5.2-.3-10.3-.5-15.5-.3-6.6.3-13.2,1.1-19.8,1.8-1.5.1-3,.3-4.4.5,0-.2-.1-.4-.2-.7,1-.5,2-1.3,3.1-1.5ZM424.7,335.6c-1.6.9-3.5,1.5-5.3,1.5-6.6.2-13.3.1-19.9.1,0,0-.1-.1-.6-.5,1.3-1.5,2.4-2.9,3.6-4.2,4-4,8.2-7.8,13.4-10.6,3.2-1.7,6.6-2.6,10.1-3,5.5-.5,11-1,16.3-2.6.3-.1.7-.1,1.1-.1.2,0,.3.2.6.3,0,.4,0,.9-.2,1.2-5.5,6.9-11.2,13.4-19,17.8ZM440.2,337.2c-2.7,5-5.6,9-8.9,12.7-2,2.3-4.2,4.4-6.4,6.5-3.6,3.4-8.2,4.7-13,5.1-1,0-2.1,0-3.1.1-3,.1-6,0-8.9.9-.9.3-2,.2-3.3.4.2-.8.1-1.4.4-1.8,4.4-6.2,9.3-11.9,15.9-15.8,2.5-1.5,5.4-2.5,8.3-3.3,3.9-1.1,7.9-1.6,11.8-2.5,1.7-.4,3.2-1.3,4.9-1.8.6-.2,1.2-.2,2.4-.3ZM411.2,292.5c4.1-6.6,9.2-12.3,15.6-16.8,3.5-2.4,7.5-3.5,11.7-4.4,4.9-1,9.9-1.9,14.7-4.6.7,2.2-.6,3.6-1.5,4.8-3.5,5.2-7.3,10.3-12,14.7-4.2,3.9-9.3,5.2-14.8,5.8-1.3.1-2.6.1-3.9.2-2.2.1-4.5,0-6.6.9-.9.4-2,.2-3,.3,0-.5-.2-.8,0-1ZM439.1,308.9c-2.4,2.1-5.2,3.5-8.3,4-4.1.8-8.3,1.5-12.4,2.3-1.6.3-3.2.8-4.8,1.2-.2-.2-.4-.4-.6-.6,1-1.7,1.8-3.5,2.9-5.2,3-4.3,6.3-8.3,10.1-11.9,2.6-2.5,5.7-4,9-5.2,6-2.1,12.2-3.4,17.8-6.4.1,0,.4,0,.7,0,0,.4.1.9,0,1.2-3.7,7.6-8,14.8-14.4,20.5ZM375.8,387c5.4-2.7,11.2-2.4,17.1-2,4.8.3,9.5.2,14.3.3.3,0,.7,0,1.5.1-.5.8-.8,1.3-1.2,1.6-6.7,6.2-14.1,11.3-22.8,14.4-3.3,1.2-6.9.8-10.3,0-4.9-1-9.8-2.5-14.9-2.8-.3,0-.7-.3-1.7-.7,2.4-1.9,4.3-3.7,6.4-5,3.7-2.2,7.6-4.2,11.5-6.1ZM347.9,430.7c.2,0,.4.1,1.2.4-1.8,1.8-3.3,3.3-4.9,4.7-3.9,3.5-7.8,7.1-12.7,9.3-.7.3-1.6.7-2.3.7-4.1,0-8.3.4-12.3-.9-1-.3-2.1-.2-3.1-.4-1.6-.3-3.2-.6-5.1-1,1.2-2.3,3-3.5,4.6-4.8,3.1-2.6,6.4-4.8,10-6.8,2.8-1.6,5.8-1.9,8.9-1.8,5.3.1,10.5.4,15.8.6ZM238.2,106.2c0-.8.6-1.4,1.4-1.4h32.8c.8,0,1.4.6,1.4,1.4v15.7h-35.5v-15.7ZM271.6,124.6v45.7c0,.8-.6,1.4-1.4,1.4h-28.6c-.8,0-1.4-.6-1.4-1.4v-45.7h31.3ZM187.6,56.7c3.8-6,7.9-11.7,13.3-16.4,2.7-2.4,5.9-3.8,9.6-4.2,3.7-.4,7.5-.8,11.2-1.2.7,0,1.4-.4,2.2-.5,1.2-.2,2.3-.4,4-.8-.3,1.1-.4,1.8-.7,2.3-4,6.1-8.6,11.7-14.6,16-2.7,1.9-5.8,3-8.9,3.9-4.5,1.3-9.2,2.4-13.7,3.6-1.3.4-2.4,1.1-3.7,1.7-.2-.2-.3-.3-.5-.5.6-1.3,1.1-2.7,1.9-3.9ZM213.7,67.6c-.4.5-.6,1.2-1.1,1.6-4.8,3.9-10.1,7-15.9,9.3-.8.3-1.9.4-2.8.3-3.4-.3-6.9-.7-10.3-1-3.2-.3-6.3-.5-9.6-.8-.9-1.3.2-1.7.8-2.3,4.4-3.8,9.2-7,14.3-9.9,3.9-2.2,8.1-1.5,12-.9,4,.6,8,2,11.9,3,.2,0,.3.2.7.6ZM167.5,56.5c0-3.3.4-6.4,2.4-9.2,3.5-4.9,7.4-9.6,12.3-13.4.3.3.6.5.6.7.9,5.7,1.5,11.5,1.2,17.3-.1,2.6-1.2,4.9-2.7,6.8-3.7,4.5-7.7,8.9-12.5,12.4-.5.4-1.2.5-1.8.8,1-5.5.4-10.5.5-15.4ZM144.8,69.7c-.5-6.7,1.6-12.5,5.9-17.6,3-3.5,6-6.9,9.1-10.4.6-.7,1.6-1.1,2.5-1.7.4.5.5.6.5.7.3,6.6,1.9,13.1,1.6,19.8-.1,3.3-.9,6.2-2.7,8.8-4.2,6-9.1,11.2-14.5,16.2-.6.6-1.5.9-2.5,1.5-.1-.8-.2-1.2-.2-1.6.1-4.8.3-9.6.4-14.4,0-.5,0-.9,0-1.4ZM152.6,86.9c1-.8,2.1-1.4,3.2-2.1,5.3-3.5,11-2.8,16.8-1.9,3.6.6,7.2,1.3,10.7,2,.7.1,1.5.4,1.9.8.6.8-.2,1.3-.7,1.8-5.2,4.9-11,9-17.6,11.9-3.3,1.5-7,1.6-10.7.8-2.9-.6-6-.5-9-.6-2.6,0-5.2,0-8.5,0,.8-1.2,1.1-1.8,1.6-2.4,3.6-4,7.9-7.1,12.3-10.3ZM120.6,87.4c-.3-8.1,2.6-15,7.5-21.3,2.7-3.4,5.4-6.7,8.7-9.5.3-.2.6-.4.9-.7.4.3.5.3.5.4.4,6,.9,12.1,1.2,18.1.2,4.2-1,7.9-3.4,11.4-4.3,6.2-9.2,11.8-15.3,16.4-.5.4-1.1.6-2.1,1.1,1.6-5.6,2.2-10.7,2-15.9ZM132.1,103.5c.8-.3,1.6-.4,2.5-.5,5.8-.7,11.1,1,16.5,2.6,3.1.9,6.2,1.8,9.6,2.7-.6.6-1.2,1.4-2,1.9-4,2.7-8.5,4.7-13,6.7-6.2,2.8-12.6,2.7-19,2-3.2-.3-6.4-1.1-9.7-1.7-1.3-.2-2.6-.2-3.9-.3-1,0-2,0-3,0,0-.3-.1-.5-.2-.8,2.4-2.6,5.4-4.3,8.4-6.1,4.4-2.6,8.9-5,13.8-6.7ZM96.2,119c1.4-4.6,1.7-9.4,1.9-14.1,0-1.2.1-2.4.1-3.6,0-4.3,1.3-8.3,3.6-12,3.2-5.1,6.8-10,11.4-14.1.8-.7.8-.7,1.9-.8.4,5,.7,9.7,1,14.5.4,4.8,0,9.4-2.7,13.5-1,1.6-2.2,3.2-3.4,4.6-3.3,4.1-6.7,8-10.9,11.3-.8.6-1.6,1.1-2.7,1.9-.2-.6-.4-1-.3-1.2ZM110.8,122.1c3.8-1.8,7.7-2.2,11.8-1.5,5.5.9,11,1.9,16.9,3-.2.4-.4,1.2-.8,1.5-3,2.3-6,4.5-9.1,6.6-2,1.3-4.1,2.4-6.3,3.5-3.6,1.7-7.3,2.7-11.4,2.7-7.1,0-14.2,0-22,0,.6-.9.9-1.3,1.2-1.7,5.8-5.7,12.3-10.5,19.7-14ZM119.7,139.8c-.4,1.2-.4,1.9-.8,2.4-4.9,5.7-10.2,10.9-17,14.3-2.6,1.3-5.5,2.2-8.4,2.7-3.8.7-7.6.9-11.4,1.3-1.2.1-2.4.5-3.5.8-1.2.3-2.5.6-3.7.9-.2-.3-.3-.5-.5-.8.4-.7.8-1.3,1.3-1.9,3.8-4.9,8-9.4,12.8-13.4,3.8-3.1,7.9-5.4,13.1-5.2,2.3.1,4.7,0,7,0,3.5,0,7.1.5,11.1-1.1ZM72.8,145c1.1-4.1.7-8.2.5-12.4,0-2.1-.2-4.2-.2-6.4,0-5.4,1.6-10.3,4.5-14.8,2.2-3.4,4.6-6.6,6.9-9.9.7-1,1.4-2.2,3.1-2.1.3,2.1.5,4,.8,6,.6,4.6,2,9,1.9,13.7,0,3.4-.9,6.6-2.7,9.5-3.6,5.9-7.5,11.5-12.5,16.2-.6.5-1.2,1-2.2,1.8-.1-.8-.3-1.2-.2-1.6ZM68.7,181.4c2.1-2.1,4-4.3,6.2-6.3,3.7-3.4,7.7-6.6,12.2-8.9,2.4-1.2,4.8-2.1,7.5-2.1,3.4,0,6.7.4,10.1.7,2.8.2,5.6.4,8.4.6.5,0,1.1.1,1.6.2l.4.6c-1.1,1.2-2.1,2.6-3.4,3.6-4.8,3.8-9.6,7.9-15.5,10.1-2.1.8-4.5,1.4-6.7,1.7-3.2.3-6.4,0-9.6.3-3.3.2-6.7.7-10,1.1-.5,0-1,.4-1.6.6-.7-.8-.3-1.5.4-2.1ZM57.5,225.7c3.7-4.4,7.7-8.7,12.3-12.3,3-2.4,6.4-4,10.3-4.2,3.1-.1,6.2-.1,9.3-.3,2.4-.1,4.9-.3,7.3-.5.7,0,1.4-.1,2.2-.2.1.2.3.5.4.7-1.5,1.9-2.8,4-4.6,5.7-3.5,3.2-7.2,6.3-11,9.3-1.9,1.4-4.1,2.2-6.5,2.8-4.4,1.1-8.9,1.7-13.5,2.3-2.5.3-4.8,1.3-7.3,1.9-.6.2-1.2.1-2.4.2,1.4-2.1,2.3-3.9,3.6-5.3ZM55.9,211.5c.2-.8.1-1.6.5-2.1,4.1-6.6,8.8-12.8,14.7-18,3-2.6,6.6-4,10.7-4.3,4.3-.4,8.6-.7,12.9-1.2,1.2-.1,2.3-.6,4.1-1.2-.3,1.3-.3,2.2-.8,2.8-4.3,6-9.1,11.5-15.3,15.7-3.1,2.1-6.7,2.8-10.2,3.7-3.1.7-6.2,1.3-9.3,2.2-2.3.6-4.5,1.5-7.2,2.4ZM50.3,145.4c.7-5.5,1.8-10.9,3.5-16.1.3-.8.9-1.5,1.5-2.5.4.6.7.9.9,1.3,2,3.4,4.1,6.8,6.1,10.2,1.4,2.5,2.7,5,3.9,7.6.3.7.3,1.6.4,2.4.4,5.2-.5,10.2-2,15.2-1.1,3.8-2.4,7.5-3.9,11.1-.1.3-.3.6-.7,1.3-.6-.5-1.2-.9-1.3-1.3-.7-5.2-3.4-9.6-5.5-14.3-2.1-4.8-3.6-9.7-2.9-14.9ZM37.4,156.7c0-.3.2-.5.4-1,.6.3,1.3.3,1.7.7,3.1,3.1,6.1,6.1,9.1,9.3,2.1,2.3,4.5,4.4,5.4,7.5.7,2.4,1.7,4.9,1.8,7.4.3,4.2.3,8.5,0,12.7-.1,2.8-.8,5.6-1.3,9-.8-.6-1.4-.9-1.6-1.3-2.2-5.2-6.3-9-9.5-13.5-1.6-2.3-3.1-4.8-4.2-7.4-.9-2.2-1.7-4.7-1.8-7.1-.3-5.4-.1-10.9-.1-16.3ZM30.9,201.3c-1-5.2-1.4-10.4-1.2-15.7,0-.5.1-.9.2-1.4,0-.1.2-.2.5-.5,4.5,4,9.2,7.7,13.4,11.9,2.9,2.8,4.7,6.2,5.4,10.3,1.4,7.3.9,14.7.7,22,0,.2-.2.5-.4.9-.5-.3-1.1-.5-1.3-.9-2.8-4.8-6.9-8.6-10.5-12.8-3.5-4.1-5.9-8.5-6.9-13.8ZM278.4,462.5c-3.6.6-7.2,1.3-10.7,1.9-.7.1-1.5.2-2.2.2-11.5,0-22.9.2-34.4,0-4.1,0-8.1-1.1-12.2-1.8-2.5-.4-5-.8-7.5-1.3-7.1-1.3-14-3.4-20.8-5.7-6.9-2.4-13.6-5.3-20.1-8.4-6.1-3-12-6.3-17.8-9.7-17.2-10-33.4-21.5-47.8-35.2-9.8-9.3-18.5-19.4-25.9-30.7-4.8-7.2-9.2-14.5-13.1-22.2-3.1-6.3-6-12.6-8.1-19.3-1.8-5.7-3.8-11.3-5.3-17-1.3-4.8-1.9-9.8-2.8-14.6-2.4-12.7-2.7-25.5-2.1-38.3.2-5,.8-9.9,1.3-14.9.1-1.3.8-2.5,1.2-3.8.2,0,.5,0,.7,0,0,1.7,0,3.4,0,5.1.2,7.6.1,15.1.6,22.7.4,5.9,1.2,11.7,2.2,17.5.8,4.7,1.9,9.3,3,14,1.2,4.9,2.4,9.8,3.8,14.6,1.1,3.9,2.4,7.7,3.9,11.5,2.1,5.4,4.2,10.7,6.6,16,4.3,9.4,9.2,18.5,14.9,27.2,8,12.3,17.1,23.7,27.3,34.3,9.9,10.2,20.8,19.3,33.1,26.7,10.5,6.4,21.6,11.3,33.3,15.2,4.2,1.4,8.4,2.9,12.7,4.2,3.5,1,7.2,1.7,10.8,2.6,4.2,1,8.3,2.1,12.5,3,4.6.9,9.2,1.7,13.9,2.3,10.7,1.5,21.5,2.2,32.3,2.4,5.8.1,11.6-.3,17.5-.5,2.3,0,4.6-.4,6.9,0,0,.2,0,.4,0,.7-2.6.5-5.1,1-7.7,1.5ZM290.9,407.1h-69.7c-4.5,0-8.1-3.6-8.1-8.1v-196.1c0-15.6,12.1-28.3,27-28.3h31.9c14.9,0,27,12.7,27,28.3v196.1c0,4.5-3.6,8.1-8.1,8.1ZM334.6,454.7c-2.8,5.2-6,10.2-10.1,14.6-2.7,2.9-6.2,4.6-10.1,5.4-3.8.8-7.7,1.4-11.5,2.3-1.5.3-2.9,1-4.4,1.6-.2-.2-.5-.3-.7-.5.3-.8.4-1.7.9-2.3,2.5-3.7,4.9-7.5,7.5-11.2,4.1-5.7,9.8-9,16.5-11.1,4.4-1.4,8.9-2.6,12.8-5.3.4-.3,1.2-.1,2.3-.2-1.2,2.5-2.1,4.7-3.2,6.7ZM352.6,462.9c-2.5,3.3-5,6.6-7.6,9.8-.4.6-1.1.9-1.9,1.5-.4-.9-.7-1.4-.8-1.9-.9-5.3-2.3-10.5-2.2-15.9,0-2.5.5-4.7,1.9-6.8,3.3-5,7.1-9.6,11.4-13.7.4-.4,1.1-.5,2-.9,0,1.5,0,2.5,0,3.6.2,4.1.2,8.1.6,12.2.4,4.5-.7,8.5-3.4,12.2ZM373.8,452c-3.8,6.2-6.9,10.9-10.4,14.2-1.3-.3-1.5-1.4-1.7-2.5-.6-2.9-1.4-5.7-1.9-8.5-.7-3.9-2-7.7-1.4-11.7.4-2.2,1.2-4.5,2.4-6.4,3.6-6,7.8-11.5,12.7-16.5.2-.2.5-.2,1-.5.4,2.7.7,5.1,1,7.5.4,3.3.8,6.6,1.2,9.9.6,5.1,0,9.9-2.9,14.5ZM379.9,407.5c-5,6-10.8,11.3-17.4,15.6-1.5,1-3.5,1.5-5.3,1.6-4.7.3-9.4.3-14-.7-2.4-.5-4.8-.4-7.7-.7.4-.9.5-1.7.9-2.2,5.3-5.7,11-10.9,18.2-14.1.8-.4,1.8-.6,2.7-.6,3.5-.1,6.9-.1,10.4-.2,3.5,0,7.1.3,10.6-.8.6-.2,1.3,0,2.4-.2-.4,1-.5,1.7-.9,2.2ZM400.2,415.2c.5,5.6,0,11.1-2.4,16.3-2.7,5.8-6.4,11.1-10.7,16-.4.5-1,.7-1.9,1.3-.3-2.5-.6-4.6-.9-6.7-.6-4.1-1.4-8.2-1.9-12.3-.6-4.7.9-8.9,3.4-12.8,3.5-5.6,7.5-10.9,12.3-15.5.5-.5,1.1-.9,2-1.6.1.9.3,1.6.2,2.1-1,4.4-.6,8.8-.2,13.2ZM421.4,401.7c0,4.5-1.4,8.7-3.6,12.5-2.5,4.3-5.6,8.4-8.5,12.5-.5.7-1.5,1.2-2.3,1.9-.3-.5-.6-.7-.6-.9,0-4.7-1.3-9.2-2.1-13.8-.9-5.1-.5-10.3,2.3-14.9,3.5-5.8,7.5-11.3,12.5-16,.6-.5,1.2-1,2.1-1.8.2.8.3,1,.3,1.3-1.1,6.4,0,12.9,0,19.3ZM423.3,367c-4.4,4.5-9.1,8.8-14.5,12.2-5,3.2-10.3,4.3-16.3,3.4-4.6-.7-9.3-.7-14.4-1.1-.3-.4-.2-.9.5-1.7,3.2-3.4,6.9-6.3,10.8-9,3.2-2.2,6.5-4.3,10.3-5.3.9-.2,1.8-.6,2.7-.6,5.5-.4,11-.7,16.5-1.1,1.8-.1,3.6-.6,5.5-.9.4,0,.9,0,1.4,0,0,2-1.6,3-2.6,4.1ZM440.9,387.9c-2.1,4-4.6,7.9-7,11.8-.4.6-.8,1.8-1.9,1.2-.5-.3-.7-1.2-.8-1.8-1.1-4.4-2-8.8-3.1-13.1-1.2-4.8-.9-9.4,1.2-14,2.8-6.1,6.5-11.7,10.8-16.8.5-.6,1-1.1,1.5-1.6.1-.1.3,0,.6-.1.2.2.3.3.3.3-.5,6.7,1,13.2,1.5,19.8.4,5.1-.8,9.9-3.2,14.4ZM463.6,365.7c-.3,1.4-.7,2.9-1.2,4.2-.1.4-.8.5-1.5,1-1.6-4.2-4.5-7.1-6.9-10.3-2-2.6-3.7-5.3-5-8.2-.5-1.1-.6-2.3-.7-3.5,0-4.9-.3-9.7,1.1-14.5,1-3.3,1.7-6.7,2.5-10.1.2-.6.6-1.2,1-2.2.6.8,1.1,1.1,1.2,1.6.9,4.5,3.4,8.3,5.7,12.2,2.1,3.5,3.4,7.2,4.8,11,.2.6.1,1.3.2,1.9.4,5.7-.3,11.4-1.3,17ZM476.6,340.8c-.8-.3-1.6-.3-1.9-.7-2-2.7-4.9-4.4-7.4-6.6-2.1-1.8-4-3.8-6.1-5.7-2.1-2-3.3-4.4-4-7.1-1.9-8-2.2-16.1-1.4-24.2,0-.2.2-.3.5-.8.5.4,1,.6,1.2,1,2.4,4.6,6.4,8,9.8,11.9,2.5,2.8,5.1,5.6,6.4,9.2.5,1.4,1,2.7,1.4,4.2,1.5,6.1,2.2,12.3,1.6,18.9ZM480.4,311.7c-2.6-2.9-6-4.7-9.1-6.9-3.6-2.5-7-5.2-8.9-9.2-.7-1.6-1.3-3.2-1.9-4.8-.4-1.3-.8-2.6-1-4-.7-5.7-1.8-11.3-1.3-17,0-.3.2-.5.3-1,.6.4,1.3.5,1.6,1,2.7,4.4,6.7,7.6,10.4,10.9,5.4,4.8,8.7,10.5,9.8,17.5.7,4,1.3,8,2,12,0,.5,0,1.1,0,2-.9-.2-1.6,0-1.9-.4Z"/>
  <g>
    <path class="cls-2" d="M-69,667.6c-.3-.4-.5-.9-1.3-.4-.5.3-1.4.2-2.1.3-1.2.2-2.4.5-3.7.6-1.6.2-3.2.4-4.9.6-.1,0-.3,0-.4.1-1,1-2.4.8-3.6.9-.4,0-.8.3-1.2.5-.8.4-2.6.2-2.9-.6-.3-.7-.2-1.6,0-2.4,0-.3.9-.4,1.4-.6,1-.3,2-.7,3.1-1,1-.3,2-.6,3-.8.8-.2,1.6,0,2.4-.2,1.3-.5,2.9-.2,3.9-.7,2.3-1.1,4.7-.3,7-1.3,1.2-.5,2.7,0,4.1,0,2.1-.2,4.2-.6,6.3-.8,1.3-.1,2.6,0,3.8,0,1.4,0,2.7-.2,4.1-.2.8,0,1.5.2,2.3.2.8,0,1.6,0,2.3,0,.8,0,1.5,0,2.3,0,1.4,0,2.7,0,4.1.1,1.6.1,3.1.3,4.6.5.8,0,1.5.2,2.3.2,1.5,0,3,.3,4.5.2,1.4-.1,2.6.7,4,.7,1.3,0,2.7,0,4,0,1,0,2,.4,3,.7.6.1,1.2.2,1.8.3,1.1.1,2.1.1,3.2.3.9.1,1.7.4,2.5.6,1,.2,2,.3,3,.5.3,0,.6,0,.9.2.9.3,1.9.9,2.6.7.8-.2,1.2.2,1.8.4,1,.3,2,.5,3.1.7,1.2.3,2.3.7,3.4,1,1.1.3,2.3.5,3.4.7,0,0,.2,0,.3,0,1.1.4,2.1.9,3.2,1.3,1.2.4,2.4.7,3.7,1,.1,0,.3,0,.4.1,1.2.5,2.5,1.7,3.6,1.5,1.5-.3,2.1,1.7,3.5,1,0,0,.4.2.5.3.5.4.9,1.1,1.7.5,0,0,.3,0,.4.1,1.4.7,2.7,1.8,4.1,2.1,1.7.3,2.6,2,4.4,1.8.3,0,.6.3.9.6.7.5,1.2,1.4,2.3,1,.1,0,.4.3.7.4.8.5,1.3,1.7,2.6,1.3.2,0,.6.4.8.6.7.6,1.2,1.5,2.4,1.1,0,0,.2,0,.2,0,1.7,1.1,3.5,2.2,5.2,3.3,1.8,1.2,3.4,2.8,5.4,3.5,2.1.7,3.3,2.2,4.8,3.4.3.3.8.4,1.2.6.4.2.9.2,1.3.5,1.1,1,2.1,2.1,3.3,3,.6.5,1.5.8,2.3,1.2.3.2.7.5.9.7,2.1,2,4.2,4.1,6.4,6.1.4.4,1,.5,1.5.7.4.2.8.4,1.1.7,5.4,5.4,10.8,10.8,16.2,16.2.4.4.4,1,.7,1.5.2.4.4.8.7,1.1,2.2,2.3,4.4,4.5,6.6,6.9.4.4.5,1.1.8,1.7.2.3.4.7.6,1,1.2,1.3,2.5,2.6,3.7,4,.6.6,1.5,1.1,1.1,2.3,0,.2.3.6.6.9.9,1,2.3,1.9,2.7,3.2.8,2.1,2.3,3.4,3.5,5.1,1,1.4,2.2,2.7,2.7,4.2.6,1.9,2.3,3,2.9,4.7.5,1.4,1.8,2.3,2.1,3.5.3,1.7,2.1,2.5,2.2,3.8.1,1.8,2.2,2.6,1.9,4.4,0,.1.1.3.2.5,1.1,1.7,2.4,3.3,3.1,5.1.5,1.3,1.3,2.5,2,3.7.6,1.1.8,2.5,1.2,3.7.1.3.4.6.6.9.4.6,1.4,1,.8,2,0,0,0,.2,0,.2.7,1.4,1.6,2.8,2.2,4.3.6,1.4,1,2.9,1.6,4.3.1.3.4.5.5.8.2.5.3,1,.4,1.5,0,.1,0,.3,0,.4.7,1.3,1.5,2.6,2.1,3.9.5,1,.8,2.1,1.1,3.2.1.4.2.9.3,1.3.4,1.4.9,2.7,1.3,4,.4,1.2.9,2.3,1.3,3.5.4,1.2.7,2.4,1,3.6,0,0,0,.2,0,.3.5,1.1,1,2.2,1.4,3.4.4,1.1.6,2.3.8,3.5,0,.2.2.5.3.7.3,1.1.5,2.1.7,3.2,0,.1,0,.3,0,.4.5,1.1,1.1,2.2,1.4,3.4.4,1.6.6,3.3.9,5,0,.2,0,.5.2.6.8,1,.3,2.1.5,3.2.2,1,.5,2,.7,3,.2.7.4,1.4.5,2.1.2,1.6.4,3.3.6,4.9,0,.1,0,.3.1.4.9,1.1.7,2.3.8,3.6,0,1,.5,1.9.7,2.9.3,1.6.4,3.3.6,5,.2,1.5.6,3.1.9,4.6,0,.6,0,1.1.1,1.7.2,2.2.3,4.3.5,6.5.2,1.9.6,3.7.5,5.5-.1,1.7.7,3.2.4,5-.3,1.8.3,3.7.3,5.5,0,1.3-.3,2.7-.3,4,0,1.8.1,3.7.2,5.5,0,.7-.1,1.5-.3,2.2-.2.8-.4,1.6.2,2.4.1.1.1.5,0,.6-1.1,2.2-.7,4.5-.7,6.8,0,.3-.3.7-.3,1-.1.9-.2,1.9-.3,2.8-.1.9-.3,1.7-.4,2.6-.1.9-.3,1.8-.4,2.8-.2,1-.4,2.1-.5,3.1-.1.9-.2,1.8-.3,2.7,0,.7,0,1.4-.2,2-.5,1.7-1.1,3.4-1.5,5.2-.3,1.6-.4,3.2-.6,4.9,0,.1,0,.3-.1.4-1,1-.8,2.4-.9,3.7,0,.8-.4,1.6-.6,2.4-.4,1.1-.9,2.2-1.2,3.4-.3.9-.3,1.9-.5,2.9,0,0,0,.2,0,.3-.4,1.1-.9,2.1-1.3,3.2-.4,1.2-.6,2.4-1,3.6-.3,1-.7,2.1-1,3.1-.2.5-.3,1.1-.4,1.7,0,0,0,.2,0,.3-.6,1.2-1.1,2.3-1.7,3.5-.1.3-.1.6-.1.9,0,.2.1.4,0,.5-.5,1.2-1.1,2.4-1.6,3.6-.4,1.1-.5,2.4-1.1,3.4-.8,1.3-.4,3-1.7,4.1-.3.2-.2.8-.4,1.2,0,.2,0,.4-.2.6-.6.7-.7,1.6-1,2.3-.6,1.2-1.2,2.5-1.8,3.7-1.2,2.1-3.2,3.9-4,6.2-1.2,3.1-3.9,4.7-5.9,7-.5.6-3.4,1.4-4.1,1.4-.8,0-1.6.1-2.5.1-.8,0-3.1-2.3-3.2-3.2-.1-1.1-.4-2.2-.5-3.3,0-.2-.1-.4,0-.5,1-1.2.9-2.6,1-4,0,0,0,0,0-.1.9-1.5,1.9-2.9,2.5-4.5,1.1-2.6,3.5-4.2,4.6-6.6,1.1-2.3,2.9-3.8,4.4-5.7.5-.6,1.3-1,1-2.1,0-.2.3-.6.6-.9.8-.8,1.6-1.6,2.3-2.5.5-.6,1.3-1,.9-2.1,0-.2.3-.5.5-.8.5-.8,1.8-1.3,1.3-2.7,0-.2.4-.6.6-.9.5-.7,1.5-1.1.9-2.3,0,0,.2-.3.3-.4.7-1.4,1.6-2.7,2.1-4.1.5-1.1.5-2.4.9-3.6.4-1.2,1.1-2.2,1.5-3.4.4-1.1.6-2.2.9-3.3.3-.9.5-1.9.8-2.8.2-.8.4-1.6.7-2.4.4-1.2.9-2.3,1.4-3.4.2-.6.6-1.3.4-1.8-.7-1.3,1.4-2.1.6-3.4,0,0,.2-.3.2-.5.5-1.7,1.3-3.4,1.5-5.2,0-.9.3-1.4.7-2.1.3-.6.5-1.5.3-1.9-.4-.8.2-1.1.3-1.7.2-.8.3-1.5.5-2.3.1-.6.3-1.2.4-1.9,0-.5.1-1,0-1.6,0-1.7,1-3.2.7-5.1-.2-1.5.5-3.1.7-4.6.2-1.3.2-2.5.3-3.8,0-.9.1-1.7.2-2.6,0-1.2,0-2.4.2-3.6,0-1.1.2-2.3.2-3.4,0-.9,0-1.8,0-2.7,0-1.3,0-2.6,0-3.9,0-1.3,0-2.6,0-3.9-.1-2.2-.2-4.3-.4-6.5-.1-1.4-.3-2.8-.4-4.2,0-.8,0-1.6,0-2.4,0-.2-.1-.4-.2-.6-.2-1-.4-2-.5-3-.2-1.4-.3-2.9-.4-4.4,0-1.1-.1-2.2-.3-3.2-.2-1-.5-1.9-.7-2.8-.2-.8-.2-1.5-.3-2.3-.2-1.1-.6-2.2-.5-3.3.1-1.3-.9-2.2-.8-3.6.1-.9-.6-1.9-.8-2.8-.1-.5-.1-1.1-.2-1.7-.2-1.1-.4-2.3-.6-3.4,0-.2-.3-.5-.3-.7-.2-.5-.3-1.1-.4-1.6,0-.2,0-.4-.2-.5-1-1-.9-2.2-.8-3.5,0-.1,0-.3,0-.4-.8-2-1.6-3.9-2.3-5.9-.4-1.2-.4-2.5-.9-3.6-.5-1.3-1.2-2.5-1.8-3.7-.2-.4-.3-.9-.4-1.3,0-.1,0-.3,0-.4-.5-1.2-1.1-2.4-1.6-3.6-.5-1.2-.8-2.4-1.2-3.6,0-.2-.1-.3-.2-.5-.7-1.4-1.8-2.7-2-4.1-.2-1.4-1.5-2.2-1.6-3.2-.2-1.4-1-2.1-1.6-3.1-.7-1.4-1.1-2.9-1.8-4.4-.2-.5-.7-.9-1-1.4-.4-.8-.7-1.6-1-2.3-.2-.4-.5-.7-.8-1.1-.5-.7-1.2-1.2-1.1-2.3,0-.6-1-1.3-1.5-2-.4-.6-1.2-.9-.9-1.9,0-.3-.5-.8-.8-1.2-.7-.9-1.8-1.5-1.8-3,0-.6-.9-1.2-1.4-1.9-.7-.9-1.7-1.5-1.6-2.8,0-.3-.4-.6-.6-.9-2.8-3.5-6.1-6.8-8.4-10.6-2.8-4.6-6.9-7.7-10.4-11.6-2-2.2-4.2-4.3-6.4-6.3-1-.9-2.3-1.4-3.4-2.3-1.2-.9-2.3-2.1-3.5-3-2.4-1.9-4.7-4-7.4-5.4-1.7-.9-2.9-2.4-4.5-3-1.7-.6-2.7-2.3-4.2-2.7-1.7-.5-2.5-2.1-3.9-2.3-1.7-.3-2.6-1.6-3.9-2.3-1.5-.7-3.1-1.4-4.7-2.2,0,0,0,0-.1,0-1.6-.9-3.2-1.9-4.9-2.8-.7-.4-1.5-.4-2.2-.8-.7-.3-1.1-1.5-2.1-.8,0,0,0,0-.1,0-1.2-.6-2.3-1.2-3.5-1.7-1.1-.4-2.2-.7-3.3-1.1-1.3-.4-2.6-1-4-1.3-.7-.2-1.6-.1-2.3-.2-.2,0-.6,0-.7,0-1.1-.9-2.3-.8-3.6-.7-.3,0-.6-.3-1-.4-.9-.1-1.8-.2-2.8-.3-.7,0-1.6.2-2.2-.1-1.8-.8-3.6-.6-5.4-.5-1.8,0-3.6-.2-5.4,0-1,0-2,.6-3,.7-.9,0-1.7,0-2.4.7,0,0-.4,0-.5,0,0-.2-.1-.4,0-.6.2-.4.5-.7.8-1.1,1-1,2-2,3.1-2.9.4-.4,1.1-.4,1.6-.7,0,0,.2,0,.3,0,1.2-.6,2.4-1.3,3.6-1.8,1.3-.5,2.6-.9,3.9-1.3.9-.2,1.8-.4,2.7-.5,1.6-.2,3.2-.2,4.8-.4,1.3-.1,2.7-.3,4-.3,1.4,0,2.8.3,4.2.5,1.4.2,2.9.4,4.3.6.3,0,.6,0,.8,0,1.1.6,2.3.7,3.5.5,0,0,.2,0,.3,0,1.1.5,2.3,1.1,3.4,1.5,1.1.3,2.2.5,3.3.7.2,0,.5.2.7.3.6.2,1.2.3,1.8.5.3,0,.5.3.8.4.5.3.8,1,1.6.5.2-.1.7.3,1,.5.5.4,1,.8,1.7,1.3,0-1.4-1.7-3.2-2.8-3.2-.3,0-.6,0-.8-.2-1-.7-1.6-1.5-3-1.7-1.7-.3-3.1-2-4.7-2.5-1.6-.5-2.8-2.1-4.7-2,0,0-.2,0-.2,0-1.2-.6-2.3-1.2-3.5-1.7-1.1-.4-2.4-.5-3.6-.9-1.1-.3-2.2-.8-3.3-1.1-1.2-.3-2.4-.4-3.5-.8-1.5-.6-3.2,0-4.7-1-.5-.3-1.3-.2-2-.3-1.8-.2-3.6-.5-5.4-.6-1.3,0-2.6,0-3.9,0-1.5,0-3-.3-4.5-.5-.7,0-1.3-.2-2-.2-.9,0-1.7.3-2.6.3-1.4,0-2.8,0-4.3.1-1.4,0-2.7.2-4.1.3-.7,0-1.4,0-2.2,0-1.4,0-2.9.3-4.3.1-1.7-.3-3.2.9-5,.5-1.4-.3-3,.6-4.5.8-.7.1-1.5,0-2.3,0-.7,0-1.6-.1-2.2.2-1.6,1.2-3.7,0-5.4,1.3-.3.2-1.1-.4-1.7-.5,0-.6.9-1.2,2-1.5.2,0,.5,0,.8-.1,1.6-.9,3.2-2,4.9-2.8,1.1-.6,2.4-.8,3.7-1.1,0,0,.2,0,.3,0,1.1-.5,2.2-1.1,3.4-1.6,1-.4,2.2-.5,3.2-.8.3,0,.6,0,.8-.2,1-.6,2.1-.6,3.2-.5.2,0,.4,0,.6-.2,1.1-.7,2.3-.7,3.5-.6.2,0,.4,0,.5-.1,1.1-.9,2.3-.5,3.5-.5,1.3,0,2.7-.3,4-.5,1.1-.2,2.1-.3,3.2-.2,1.8.1,3.6-.2,5.4-.2.8,0,1.7.1,2.5.2.6,0,1.2,0,1.7,0,1.8,0,3.7-.2,5.5-.2,1,0,2,.4,3,.6.6.1,1.2.2,1.9.2,1.8,0,3.6,0,5.4.1,1,0,2,.3,3.1.5.9.1,1.7.1,2.6.2.2,0,.5,0,.6,0,1,.9,2.2.7,3.4.7.2,0,.5.2.7.3,1.1.4,2.2.8,3.3,1.2.2,0,.5,0,.6-.2,0-.1,0-.5,0-.6-.8-.7-1.2-2-2.6-1.7-.3,0-.6-.2-.8-.4-1.5-.9-2.9-1.9-4.5-2.6-1-.4-2.1-.4-3.2-.6-.9-.2-1.7-.4-2.6-.6-.9-.2-1.8-.5-2.7-.7-.5-.1-1.1-.1-1.7-.3-.7-.1-1.3-.4-2-.5-1.1-.2-2.1-.2-3.2-.3-1.5-.2-3-.6-4.5-.9-.7-.1-1.3-.2-2-.3-1.8-.2-3.7-.5-5.5-.6-1.3,0-2.7.2-4,.2-1.3,0-2.7-.3-4-.3-1.5,0-2.9.3-4.4.5-.7,0-1.4.2-2,.3-1.1.1-2.2.4-3.2.3-2.8-.4-5.3.8-8,.8-1.7,0-3.4.8-5.2,1.2-.6.1-1.2.2-1.8.3-1.6.2-3.3.3-4.9.6-.8.1-1.6.3-2.5.5-.8.2-1.5.5-2.3.7-1.4.3-2.8.6-4.2.8-1,.2-2.2,0-3.1.4-1.3.7-1.6-.4-2.3-1,.7-.7.9-1.7,2.4-1.5.8,0,1.7-.6,2.7-.7,1.7-.2,3.5-.5,5.2-.8.2,0,.4,0,.6-.2,1-.6,2.1-.7,3.3-.5.1,0,.3,0,.4,0,1.1-1,2.5-.7,3.8-.7.9,0,1.8-.5,2.8-.7.8-.1,1.7-.1,2.5-.2.2,0,.5,0,.6,0,1.1-.9,2.3-.8,3.6-.7.9,0,1.9-.5,2.8-.6.9-.1,1.7,0,2.6,0,.7,0,1.5,0,2.2-.3,1.7-.6,3.3-.7,5.1-.5,1.3.1,2.6-.2,3.9-.2,1.3,0,2.7.1,4,.1,1.3,0,2.6-.1,4-.2.5,0,1,0,1.6.1.9.1,1.9.3,2.8.4.7.1,1.4.5,2,.4,1.7-.2,3.2,1.3,5,.6,0,0,0,0,.1,0,.5.3,1.2.7,1.2-.2,0-.4-.9-.9-1.5-1.3-.4-.2-.9-.2-1.3-.4-1.3-.6-2.6-1.2-4-1.1-.1,0-.3,0-.4-.1-1.5-1.2-3.4-.7-5.1-.9-1-.1-1.9-.4-2.9-.5-.9,0-1.7,0-2.6,0-.6,0-1.2,0-1.8,0-.9-.1-1.8-.3-2.7-.5-.8-.1-1.6-.2-2.4-.3-1.5,0-2.9-.2-4.4-.1-1.4,0-2.7.2-4.1.3-1.3,0-2.6-.2-3.9-.2-1.5,0-3,.3-4.5.5-.7,0-1.4.3-2.1.3-1.8,0-3.7-.2-5.5,0-1.6.1-3.1.7-4.7.9-.8.1-1.5,0-2.3,0-.2,0-.4,0-.6.1-1.6.3-3.2.5-4.9.8-.3,0-.6,0-.9.1-1.1.5-2.2.6-3.3.4-.1,0-.3,0-.4,0-1.1,1.1-2.5.8-3.8.9-.9,0-1.7.4-2.6.7-1.1.4-2.2,1.1-3.3,1.2-1.8.2-3.3,1.7-5.2,1.3-.1,0-.3,0-.4.1-1.4.7-2.8,1.4-4.2,2-.6.3-1.4.2-2.1.2-.1,0-.3-.4-.3-.6,0-.4-.1-.8,0-1.2.1-.3.5-.6.8-.8.3-.1.7,0,1-.1,1.3-.6,2.6-1.4,4-1.9,1.1-.4,2.3-.5,3.5-.8,1.1-.3,2.2-.9,3.3-1.3.8-.3,1.7-.4,2.5-.6.5-.1.9-.1,1.4-.2.7-.1,1.4-.3,2.1-.4,1.7-.3,3.4-.6,5.1-.9.9-.2,1.8-.5,2.8-.6,1.7-.1,3.2-1,5-.8.8.1,1.6-.3,2.5-.4,1.1-.1,2.1-.2,3.2-.3,1.2-.1,2.5-.2,3.7-.3,1.8,0,3.4-.7,5.3-.5,1.2.2,2.6-.3,3.9-.4,1.3,0,2.6.1,3.8.1.8,0,1.6-.1,2.5-.1.7,0,1.4,0,2.1,0,1.4,0,2.7,0,4.1.1.3,0,.7,0,1,0,.3,0,.6-.2.9-.3-.2-.3-.4-.7-.7-.8-2-.5-4.1-.9-6.1-1.2-1.3-.2-2.7,0-4-.9-.5-.3-1.5.1-2.3.1-1.2,0-2.4,0-3.6,0-.9,0-1.8,0-2.7,0-.8,0-1.6-.1-2.4-.2-.6,0-1.2-.1-1.8,0-1.9.1-3.7.3-5.6.4-1.3,0-2.7-.1-4,0-.9,0-1.6.6-2.6.5-1.5-.2-3,.4-4.6.1-.8-.1-1.8.4-2.7.6-.7.2-1.4.5-2.1.5-1.9,0-3.8.8-5.6.7-1.4,0-2.6.9-3.9.8-1.7-.2-3.2,1.2-4.9.6-.7,1-2.8.2-2.9,2.1,0,.1-.2.2-.3.3-1.2.8-2.4,2.1-3.7,2.3-1.6.2-2.5,2-4.3,1.6-.2,0-.4.3-.7.4-1.1.2-2.1.5-3.2.6-.7.1-1.5.3-2.2.1-1.1-.2-2.4,0-3.4-1.1-.9-1.1-1.1-2.5,0-3.6,1.3-1.3,2.6-2.6,4-3.9.2-.2.7-.3,1-.4.1,0,.3,0,.4,0,1.8-1.2,3.7-2.4,5.5-3.6.3.2.5.6.8.6,1.2,0,2.3-.3,3.5-.4,1.5,0,3-.1,3.9,1.5.3.5.8.8,1.2,1.1.9-.2,1.8-.4,2.6-.6,1-.3,2.1-.7,3.1-.9.7-.2,1.4-.2,2-.2.8,0,1.8.1,2.4-.2,1.1-.6,2.2-.5,3.3-.5,1.6,0,3-.9,4.6-.7.8.1,1.8,0,2.6-.1.5-.1,1-.6,1.4-.9-.2-.2-.3-.6-.5-.6-1.8,0-3.5.1-5.3.2-.7,0-1.3,0-2,0-.8,0-1.6-.2-2.4-.2-1.4,0-2.9,0-4.3,0-.7,0-1.3,0-2,0-1.6.2-3.1.5-4.7.7-1.6.1-3.2.1-4.7.2-.8,0-1.6-.3-2.3,0-1.1.3-2.6-.2-3.3,1.2Z"/>
    <path class="cls-2" d="M-132.4,1062.7c-.6.6-1.1,1.2-1.7,1.7-1.2.9-2.5,1.6-3.6,2.4-1.4,1.1-3,1.7-4.8,2-.1,0-.2.1-.4.2-1.1.5-2.2,1.1-3.3,1.3-1.6.3-3.3.4-4.9.5-1.3.1-2.6.3-3.9.4-.8,0-1.6-.2-2.3-.2-1.3,0-2.7.1-4,0-1,0-1.9-.3-2.9-.5-.8-.1-1.5-.3-2.3-.5-.5,0-1-.1-1.5-.2-.7-.1-1.3-.3-2-.3-1.7,0-3.2-1.5-5.1-.8,0,0-.2,0-.3,0-1.1-.5-2.2-1.2-3.4-1.6-1.4-.5-2.8-.9-4.2-1.4-.4-.2-.8-.6-1.2-.8-.3-.1-.6-.1-.9-.2,0,.3.1.7.3.9.8.6,1.3,1.6,2.6,1.5.3,0,.6.3.9.6.7.6,1.4,1.3,2.5,1.3.6,0,1.1.7,1.7,1.1.6.4,1,1.3,2,.7,0,0,.3,0,.3.1.7.6,1.4,1.4,2.5,1.1,1,1.5,2.9,1.5,4.2,2.3,1.1.7,2.6.9,4,1.4.2,0,.4,0,.6.2,1.1.9,2.3.7,3.6.8,0,0,.2,0,.3,0,1.1.5,2.2,1,3.3,1.4.6.2,1.5.5,1.9.3,1.3-.6,2.1.8,3.4.5.9-.2,2,0,3,.1.2,0,.4,0,.5.1,1.1.8,2.3.6,3.5.6,1.5,0,3,.5,4.5.7.6.1,1.3.2,1.9.2,1.8,0,3.6-.2,5.5-.2,1.3,0,2.7.3,4,.3,1.8,0,3.6-.2,5.4-.3,1.7,0,3.4,0,5.1-.3,2.6-.5,5.4.2,7.9-.9.5-.2,1.2-.1,1.8-.2,1.8,0,3.6,0,5.5-.6,1.2-.4,2.6-.1,3.9-.2.2,0,.4,0,.6-.1.9-.3,1.9-.7,2.8-1,.1,0,.5.1.5.3,0,.2,0,.6-.1.7-.9.6-1.3,2.1-2.8,1.6-.2,0-.5.3-.8.5-.8.6-1.3,1.7-2.6,1.2-.2,0-.6.5-1,.7-.6.4-1,1.3-1.9.7,0,0-.2,0-.3,0-1.2.5-2.3,1.1-3.5,1.5-1.1.4-2.3.6-3.5.8-.2,0-.4,0-.5.2-1,.9-2.3.8-3.5.8-.1,0-.3,0-.4,0-1.1.9-2.3.8-3.7.7-.9,0-1.8.4-2.7.6-.7.1-1.4.4-2,.3-1.7-.4-3.1,1-4.9.5-1.1-.3-2.4.3-3.6.3-1.4,0-2.8-.1-4.2-.1-1.2,0-2.5,0-3.7,0-1.4,0-2.9-.1-4.3-.2-.6,0-1.2,0-1.7,0-1.8,0-3.6,0-5.5,0-1,0-2-.4-2.9-.5-.8,0-1.6,0-2.5-.1-.8,0-1.6,0-2.3-.3-1.6-.8-3.4-.4-5-.7-1.2-.2-2.3-.7-3.5-1-1.1-.4-2.2-.7-3.3-1.1-.1,1,1.7,3,2.7,3,.3,0,.7-.1.7,0,1.1,1.5,2.8,1.7,4.3,2.5.8.5,1.8.7,2.8.9,1.1.2,2.2.3,3.3.5,1.8.3,3.5,1.1,5.4.9.9,0,1.9.6,2.8.9.7.2,1.4.4,2.1.3,1.6-.1,3,1,4.7.4.7-.2,1.7.4,2.6.6.6.2,1.3.3,2,.3,1.4,0,2.8-.2,4.1-.1,1.3,0,2.6.3,3.9.4.6,0,1.2,0,1.7,0,1.9-.2,3.8-.4,5.6-.5,2.1-.2,4.3-.2,6.4-.4,1,0,1.9-.5,2.8-.8.6-.1,1.2-.3,1.8-.3,1.9,0,3.8-.7,5.7-.8,1.4,0,2.6-.7,3.9-.8,1.6-.2,3.3-.3,4.9-.6,1-.2,1.9-.7,2.8-.7,1.7,0,3.3-1.2,5.1-.8.8.2,1.8-.2,2.4-.6,1-.7,1.6,0,2,.5.2.3-.2,1.3-.6,1.5-1,.5-2.1.9-3.2,1.1-1.4.3-2.9.2-4.3,1.1-.5.3-1.4.5-1.9.3-1.8-.7-3.2.7-4.9.6-.9,0-1.9.6-2.9.9-.4.1-.9,0-1.4,0-1.7.2-3.3.5-5,.7-.7,0-1.4,0-2,.3-1.2.5-2.5.6-3.8.5-.9,0-1.8.5-2.7.7-.7.2-1.4.2-2.1.2-2.1.1-4.3.3-6.4.3-1.3,0-2.6-.4-3.8-.2-1.2.3-2.3.4-3.6.2-1.5-.3-3-.3-4.5-.4-1.3,0-2.6,0-3.9,0-.3,0-.6-.2-.8-.3-1-.5-2-.4-3.1-.4-.9,0-1.9-.4-2.9-.6-.3,0-.6,0-.9-.1,0,.3,0,.8.2.9.5.3,1,.4,1.5.6.2,0,.4,0,.5,0,.9,1.2,2.4,1.4,3.7,1.8.9.3,1.9.3,2.9.5.8.1,1.7.2,2.6.3,1,.1,2.1.2,3.1.3,1.3.1,2.6.1,3.8.5,1.7.4,3.3.3,5,.3.8,0,1.6.3,2.4.4.7,0,1.4,0,2,0,1.4,0,2.9,0,4.3,0,1.3,0,2.7-.2,4-.2,1.3,0,2.6.1,4,0,1.5,0,2.9-.3,4.4-.4.9,0,1.8-.1,2.7-.2.8,0,1.6-.2,2.4-.3.6,0,1.2-.1,1.8-.2,1.6-.1,3.3,0,4.8-.4,1.5-.4,3.3.3,4.7-1,.3-.3,1,0,1.5,0,2.3,0,4.3-1.5,6.7-.8,0,0,.2,0,.3,0,1.1-.5,2.3-1,3.4-1.5.9-.3,1.8-.5,2.8-.8,1.4-.4,2.8-1.1,4.2-1.1,1.4,0,2.3-1.6,3.7-1,0,0,0,0,.1,0,.7-.9,1.9-1,2.9-1.3.4-.1.9-.2,1.3-.3,0,.7.4,1.5,0,2.1-.2.5-.9,1.4-1.8.8,0,0-.2,0-.3,0-1.3.6-2.5,1.4-3.8,1.9-1.2.5-2.5.7-3.8,1.1-.7.2-1.4.3-2.1.5-1.1.4-2.2.9-3.4,1.3-.5.2-1.1.3-1.5.1-1.3-.5-2.2,1.2-3.5.7-.1,0-.4.3-.7.4-1,.2-2.1.4-3.1.5-.6,0-1.3,0-1.8.1-1.8.8-3.8.7-5.7.8-.8,0-1.4.8-2.5.6-1.3-.2-2.7.3-4,.4-1.1.1-2.2.3-3.3.4-.8,0-1.7,0-2.6,0-1.2,0-2.5,0-3.7.1-1.3,0-2.6.2-3.9.2-1.4,0-2.8,0-4.2,0-1.4,0-2.9-.2-4.3-.3-.8,0-1.5.2-2.3.3-.4,0-.8,0-1.4-.1.3.9.6,1.3,1.6,1.4,1,.1,2.1-.2,3.1.6.6.4,1.5.4,2.3.5,1.1.2,2.3.4,3.4.5.8.1,1.6.2,2.3.2,1.6.2,3.3-.5,4.9.5.5.3,1.3,0,2,0,1.8,0,3.7-.4,5.5-.1,1.4.2,2.4-.6,3.7-.5.6,0,1.2,0,1.8,0,1.6,0,3.3-.4,4.8-.1,1.4.2,2.4-.7,3.7-.6.8,0,1.7,0,2.5,0,.7,0,1.4,0,2.1-.3,1.2-.5,2.4-.7,3.7-.5.9,0,1.8-.6,2.8-.8.8-.2,1.6-.2,2.4-.2.3,0,.6,0,1-.1,1.1-.2,2.2-.3,3.3-.5.2,0,.4,0,.6-.2,1-.7,2.2-.7,3.3-.6.3,0,.6-.2.8-.4.9-.8,1.8-1.6,2.6-2.6,1.5-1.7,3.4-2.2,5.5-2.6.2,0,.4-.2.6-.3,1.7-.5,3.4-1.2,5.1-1.5.9-.2,1.8.4,2.8.6.4.1.9,0,1.4.2,1.1.4,1.7,2.6.9,3.4-1.9,1.9-3.7,3.8-5.8,5.5-1.1.8-2.6,1.1-3.9,1.6-1.1.4-2.3.7-3.5,1.2-.2,0-.3.6-.5.9.3,0,.7.2,1,.2,1.7.2,3.3-1,5.1-.6.8.2,1.8-.5,2.7-.7.8-.2,1.5-.3,2.3-.5,1.2-.3,2.5-.5,3.7-.7,1.1-.2,2.2-.3,3.3-.5.2,0,.4-.3.7-.4.9-.2,1.8-.5,2.7-.5.7,0,1.6,1.7,1.2,2.6-.3.6-1.1.9-1.6,1.3-.1,0-.4,0-.6,0-1.8.5-3.5,1.4-5.4,1.6-.9,0-1.5.4-2.2.7-.5.3-1.2.1-1.8.2-1.2.1-2.3.3-3.5.5-.7.1-1.4.4-2.1.3-1.7-.3-3.1.8-4.9.5-1.4-.3-3,.5-4.6.7-.6,0-1.2.1-1.9,0-1.9,0-3.7-.1-5.6,0-1.3,0-2.6.4-3.9.3-2.4,0-4.8-.2-7.2-.3-1.6,0-3.1-.1-4.7,0-1.9,0-3.8.2-5.7.2-.9,0-1.8-.5-2.7-.7-.5,0-1.1,0-1.7,0-1.4,0-2.8-.1-4.1-.2-.3,0-.5,0-.8-.2-1-.5-2.1-.3-3.2-.4-1.5,0-3-.4-4.5-.6-.9-.1-1.8-.2-2.7-.3-.2,0-.5,0-.6,0-1.1-.8-2.4-.6-3.6-.7-.9,0-1.9-.5-2.8-.7-.7-.2-1.4-.2-2.1-.4-.6-.1-1.2-.3-1.8-.4-1.2-.2-2.4-.4-3.6-.7-1-.2-1.9-.7-2.8-.9-1-.2-1.9-.4-2.8-.9-1.1-.5-2.3-.8-3.5-.8-1.4,0-2.4-1.4-3.9-.9,0,0-.2,0-.2-.1-1.1-.6-2.4-1.7-3.4-1.5-1.8.3-2.5-1.7-4.2-1.4-.9.2-2.1-.9-3.1-1.3-1.4-.5-2.8-.9-4.1-1.4-.2,0-.4-.2-.6-.3-.8-.5-1.4-1.7-2.7-1.2-1-1.5-2.9-1.3-4.2-2.4-.5-.4-1.2-.5-1.8-.7-.1,0-.3,0-.4,0-1.5-.9-3-1.9-4.5-2.7-.5-.3-1.1-.3-1.6-.6-.6-.3-1-.7-1.6-1-.8-.4-1.7-.7-2.4-1.2-.7-.4-1.2-1-1.9-1.5-.6-.4-1.4-.6-2-1-.4-.2-.8-.5-1.2-.8-.9-.7-1.6-1.8-3.1-1.9-.9,0-1.6-1.3-2.5-2-.7-.6-1.1-1.4-2.3-1.2-.3,0-.7-.4-1-.6-1.2-1-2.2-2.3-3.5-3-4-2.3-6.6-6-10.3-8.6-7.2-4.9-12.5-11.7-18.6-17.7-1.9-3.8-5.7-6.1-7.9-9.6-1.5-2.3-3.8-4-4.9-6.4-1.1-2.2-3.2-3.7-4.2-5.8-.8-1.9-2.7-3.1-3.3-4.8-.7-1.9-2.5-2.9-3-4.5-.5-1.6-1.9-2.6-2.4-4-.6-1.7-1.7-2.9-2.7-4.3-.8-1.1-1.6-2.3-2-3.5-.5-1.4-1.7-2.5-2-3.7-.3-1.3-1.3-1.9-1.6-3-.3-1.4-1.6-2.4-1.8-3.5-.2-1.3-1-2-1.5-2.9-.6-1.4-1.1-2.8-1.7-4.3,0-.2-.2-.3-.3-.5-.8-1.4-2.1-2.9-2.1-4.3,0-1.8-2.1-2.4-1.5-4.1,0-.2-.4-.5-.5-.7-.2-.5-.3-1-.5-1.5,0-.1,0-.3,0-.4-.7-1.4-1.4-2.7-2-4.1-.5-1.1-.7-2.3-1.1-3.5-.2-.5-.5-.9-.6-1.3-.2-.6-.3-1.2-.6-1.8,0-.3-.3-.5-.4-.8-.2-.5-.3-1-.5-1.5,0,0,0-.2,0-.3-1.2-.8-.8-2.3-1.5-3.4-.5-1-.8-2.1-1.1-3.2-.2-.5-.3-1-.5-1.5-.3-1.2-.6-2.4-.9-3.6,0,0,0-.2,0-.3-.5-1.1-1-2.1-1.4-3.2-.3-.9-.4-1.8-.5-2.8,0-.2,0-.4,0-.6-.4-1.2-1-2.3-1.3-3.5-.3-1.1-.3-2.3-.6-3.4-.2-.9-.7-1.8-.9-2.8-.2-.7-.5-1.5-.4-2.1.2-1.4,0-2.5-.6-3.8-.5-1.5-.5-3.3-.7-4.9,0-.2-.2-.4-.3-.6-.3-.9-.6-1.9-.7-2.9-.2-.9,0-1.8-.3-2.6-.4-1.2-.7-2.4-.3-3.6,0-.1-.3-.4-.3-.6-.2-1.1-.4-2.1-.6-3.2-.2-1-.4-1.9-.5-2.9-.1-.9,0-1.8-.1-2.7,0-.7,0-1.5-.3-2.1-.7-1.7-.7-3.4-.6-5.2,0-.9-.3-1.7-.5-2.6-.1-.7-.2-1.3-.2-2,0-1.4,0-2.8,0-4.2-.2-2-.6-4.1-.7-6.1,0-1.5.2-3.1.3-4.6,0-.7,0-1.5,0-2.2,0-2.1.2-4.1.2-6.2,0-1.3-.2-2.6-.2-3.9,0-.7.2-1.5.3-2.2,0-.6.3-1.3.1-1.9-.3-1.4.1-2.6.6-4,.4-1.1,0-2.5,0-3.8,0-1,.3-2,.5-3,.1-.9.1-1.8.2-2.8,0-.2,0-.4,0-.5,1-1.1.6-2.3.6-3.6,0-.9.5-1.8.7-2.7.2-.9.2-1.9.3-2.8,0-.1,0-.3,0-.4.4-1.1.9-2.2,1.3-3.3.2-.5,0-1.1.2-1.6.3-1.7.6-3.3.9-5,0-.2,0-.4.1-.5.8-1.1.7-2.4.7-3.7,0,0,0-.2,0-.3.5-1.1,1-2.2,1.4-3.3.3-1.1.5-2.2.8-3.3,0-.1,0-.3,0-.4.5-1.2,1.1-2.4,1.5-3.6.3-1.1.5-2.2.7-3.3,0-.2.1-.3.3-.5,1.1-1,.8-2.2.9-3.5,0-.1,0-.3,0-.4.6-1.3,1.3-2.6,1.8-3.9.5-1.2.7-2.5,1-3.8,0-.3.4-.5.5-.8.2-.5.3-1,.4-1.5,0,0,0-.2,0-.3,1.3-.8.9-2.3,1.5-3.4.7-1.3,1.1-2.8,1.7-4.3,0,0,0,0,0-.1.6-1.3,1.3-2.6,1.9-3.9.3-.6.5-1.2.7-1.8,0-.2,0-.4.2-.5,1.7-2.3,3.5-4.6,5.1-7,.4-.5.5-1.3.9-1.8.3-.4.9-.7,1.6-1.2.1-.9.4-1.9,2.1-1.8.5,0,1.1-.8,1.6-1.3.9-.8,3.2-.7,4.4-.6,1.4.2,2.2,1,3.2,1.7,1.1.9.8,2.1.9,3,0,1.8-.5,3.6-.8,5.4,0,.2-.2.4-.3.6-.3.5-1,1-.5,1.8,0,0,0,.3,0,.4-1.2,1.8-2.4,3.6-3.7,5.4-.5.7-1.5,1.2-1.2,2.4,0,.2-.4.6-.6.9-.9,1-1.9,1.9-2.7,2.9-.6.8-1,1.7-1.5,2.6-.3.5-.6.9-1,1.3-1,1.2-2.1,2.2-3.1,3.4-1.1,1.4-2.3,2.9-2.9,4.5-.4,1.2-1.5,2.2-1.6,3.2-.2,1.4-1.6,2.2-1.5,3.1.2,1.5-1.8,2.1-1.1,3.6,0,0,0,.2-.2.3-1.3,1.5-1.5,3.4-2.1,5.2-.4,1.2-1,2.3-1.4,3.5-.4,1.1-.6,2.3-.9,3.4,0,.2,0,.4-.1.5-1,1-.7,2.4-1,3.7-.3,1.1-.8,2.2-1.1,3.3-.4,1.2-.6,2.5-.9,3.7-.2,1-.5,1.9-.8,2.8-.3,1.1-.7,2.2-1,3.3-.2.9-.3,1.9-.5,2.8-.2,1-.3,2.1-.4,3.2,0,.2,0,.5-.1.6-.8,1-.7,2.2-.6,3.4,0,.2-.1.4-.2.6-.2,1-.5,2.1-.7,3.1-.2,1.1-.4,2.2-.5,3.3,0,.8-.1,1.6-.2,2.4-.1,1.3,0,2.7-.4,4-.4,1.7-.4,3.3-.3,5,0,1.3-.2,2.5-.3,3.8,0,.6,0,1.3,0,1.9,0,2.1-.1,4.2,0,6.4,0,1.8.4,3.7.4,5.5,0,1.3-.3,2.6-.3,4,0,1.3.3,2.6.4,3.9,0,.6,0,1.1.1,1.7.2,1.3.4,2.6.6,4,.2,1.6.2,3.1.4,4.7.3,2.1.7,4.3,1,6.4.1.8,0,1.6,0,2.4,0,.2,0,.4,0,.5.9,1.1.8,2.3.8,3.7,0,.9.4,1.8.6,2.7.4,1.8,1.1,3.4,1.1,5.3,0,.9.7,1.8.7,2.7,0,1.3,1.2,2.2.8,3.5,0,0,0,.3.1.4.5,1.2,1.1,2.3,1.5,3.5.3,1,.4,2.2.6,3.3,0,.2,0,.4.2.5,1,1,.8,2.4,1.1,3.7.2,1,.6,1.9,1,2.9.6,1.3,1.8,2.7,1.7,4,0,1.4,1.7,2.1.9,3.5,0,0,0,0,0,.1.7,1.3,1.5,2.5,2,3.8.6,1.3,1,2.6,1.4,3.9,0,.2,0,.4.1.5.8,1.4,1.7,2.8,2.4,4.3.7,1.5,1.3,3.2,1.9,4.8,0,0,0,0,0,.1.9,1.5,1.7,2.9,2.6,4.4.4.6,1.3,1,.8,1.9,0,0,0,.3.1.4,1.3,2,2.6,3.9,3.9,5.9,1,1.5,2.4,3,2.8,4.7.5,1.7,1.6,2.6,2.5,3.8.4.5.5,1.2.8,1.8.1.3.3.6.5.9.8.8,1.6,1.6,2.3,2.5.3.4.5,1.1.7,1.6.2.4.3.7.6,1,1.2,1.3,2.5,2.6,3.7,3.9.6.7,1.5,1.1,1.3,2.3,0,.2.4.6.6.8,5.8,5.8,11.6,11.6,17.4,17.4.2.2.3.4.5.4,2.1-.1,2.8,1.8,4.1,2.8.8.6,1.4,1.4,2.2,2,.4.3,1,.4,1.6.6.3.1.6.2.8.4.7.6,1.4,1.3,2.1,1.9.6.5,1.1,1.3,2.1,1,.3,0,.8.5,1.2.8,1.2.9,2,2.4,3.8,2.3,0,0,0,0,.1,0,1.7,1.1,3.4,2.3,5.1,3.3.9.5,1.4,1.5,2.7,1.5.5,0,1.1.8,1.7,1.2.6.5,1,1.2,2.2,1,.5-.1,1.2,1,1.9,1.4.6.4,1.3.6,1.9.9,0,0,.2,0,.3,0,1,1.6,3,1.6,4.4,2.6,1.2.8,2.7,1.1,4.1,1.6,1,.4,1.9.7,2.9,1.1,1.3.6,2.6,1.3,4,1.8,1.1.4,2.3.6,3.4.8.8.2,1.5.4,2.3.5,1.1.2,2.3.4,3.4.7,1,.2,2,.5,3,.7.3,0,.7-.2,1.1-.1,1.5.2,3,.6,4.6.8.8.1,1.5,0,2.3,0,.7,0,1.5-.1,2.2,0,1.5.2,3,.1,4.5,0,1.2-.2,2.5,0,3.8,0,.1,0,.3,0,.4,0,1-.9,2.1-.5,3.5-.3ZM-64.4,1106.3c0-.1,0-.2,0-.3-1.4.1-2.8.1-4.1.4-.7.2-1.1.9-2,.4-.5-.2-1.2,0-1.9.1-1.2.2-2.3,1-3.7.7-.6-.1-1.3,0-1.9.2-2,.8-3.4.8-5.2.8-.9,0-1.9.3-2.8.6-.2,0-.4.5-.4.7,0,.2.4.5.6.5,1.1,0,2.2,0,3.2,0,.6,0,1.3,0,1.9-.1.7,0,1.5-.3,2.2-.2,1.8,0,3.7.3,5.5.4.6,0,1.2,0,1.8-.1.8,0,1.6-.2,2.3-.2,1.4,0,2.8,0,4.3,0,1.1,0,2.2-.2,3.3-.3.4,0,.6-.5,1-.7-.3-.2-.6-.4-1-.6-.5-.2-1.1-.2-1.4-.4-.6-.5-1.2-1.1-1.7-1.7Z"/>
    <path class="cls-2" d="M3.1,1034.4c1.3-.7,2.8-1.6,4.4-2.3,1.1-.5,3.3.4,3.7,1.6.3.7.2,1.5.1,2.2-.2,1.3-.5,2.5-.8,3.7,0,0,0,0,0,.1-.9,1.5-1.7,3.1-2.7,4.6-1.2,1.8-1.9,4-3.9,5.2-1,.7-2.1,1.4-3.2,1.8-1.4.5-2.6-.5-2.7-2,0-.6-.2-1.2-.4-1.7-.7-2,.7-3.7.9-5.5.2-1.7,1.5-2.4,2.1-3.5.2-.4.3-.9.5-1.3.6-.9,1.2-1.8,2-3Z"/>
    <path class="cls-2" d="M-175,706.7c.4-.4,1-.8,1.3-1.4.9-1.7,2.9-1.1,4.1-2.1.7.7,1.5,1.4,2.1,2.1.2.3.2.8.3,1.3,0,.9.4,1.9.2,2.7-.4,1.3-1.2,2.5-1.6,3.8-1,2.7-3.2,4.4-4.9,6.6-1.2,1.5-2.9,2.2-4.6,2.6-1.1.2-2.8,0-3.3-1.5-.3-.7-.3-1.6-.2-2.4,0-.7.3-1.5.6-2.2.4-1,.7-2.1,1.3-3,1.5-2.3,3-4.6,4.6-6.8,0,0,.2.1.3.2Z"/>
    <path class="cls-2" d="M28.6,1068.3c.7-.7,1.3-1.4,2-2,.5-.4.8-1.2,1.7-.6.1,0,.5-.2.8-.4,1.4-1.1,3.1-.6,4.5-.2,1.2.3,1,1.8,1,2.7,0,.9.2,2.1-.9,2.7.2,2.2-2.1,3-2.7,4.6-.9,2.4-2.9,3.9-4.6,5.5-1.2,1.1-2.7,1.8-4.4,1.9-1.4,0-2.6-1.3-2.5-2.7,0-.5-.2-1.1-.2-1.6.2-1.1.4-2.3.7-3.4.1-.5.6-.9.9-1.3.4-.6,1.2-1,.8-2,0-.2.3-.5.5-.8.8-.8,1.7-1.7,2.5-2.5,0,0,0,0,0,0Z"/>
    <path class="cls-2" d="M-138.2,708.1c.7-.7,1.4-1.3,2-2,1.3-1.8,3.2-1.4,5-1.6.7,0,2,1.9,2,2.7,0,.8,0,1.7.1,2.5,0,0,0,.2,0,.3-.6,1.2-1,2.5-1.8,3.6-1.6,2-2.5,4.6-4.7,6.1-1.4.9-2.7,2-4.3,2.6-1,.4-2.3.1-3.5,0-.5,0-.8-.7-1-1.5-.4-2,.7-3.6.9-5.3,0-.4.4-.7.6-1,.5-.6,1.2-1.1.9-2.1,0-.3.4-.7.6-1,1-1,2-2,3-3.1h0Z"/>
    <path class="cls-2" d="M-222,727.9c.9-.4,2.2-1.1,3.4-1.7.2-.1.6,0,.8.1,1.7,1,2.5,3,2.3,5-.1,1.5-.6,2.9-.9,4.2-.3,1.4-1.1,2-1.7,3-.3.4-.4,1-.6,1.5,0,.2,0,.5-.2.6-1.5,1.5-2.8,3.2-4.5,4.4-.9.6-2.4.5-3.6.5-.5,0-1.2-.8-1.4-1.3-.3-.9-.4-1.9-.4-2.9,0-1.2.4-2.3.6-3.4,0,0,0-.2.1-.2.7-.9,1.1-2,1.6-3.1,1-2.2,2.7-4.1,4.4-6.6Z"/>
    <path class="cls-2" d="M-109.7,726c-.7.7-1.5,1.4-2.2,2.2-1.1,1.3-2.5,1.2-4,1.3-1.4.2-2.2-.5-2.8-1.5-.3-.6-.5-1.4-.3-2.1.2-1,1-2,1.1-3,.3-2.4,2.7-3.6,3.1-5.8,0-.3.4-.6.6-.9,1.4-1.4,2.7-2.8,4.1-4.1,1.3-1.2,2.9-1,4.4-.9.3,0,.8.7.9,1.1.6,2.2.5,4.4,0,6.6,0,.3-.4.6-.5.9-.3.7-.6,1.5-1,2.2-.2.4-.4.7-.7,1-.9,1-1.9,1.9-2.9,2.9,0,0,0,0,0,0Z"/>
    <path class="cls-2" d="M87.1,1047.3c.1,1.7.4,3.2.2,4.6-.1,1.2-.1,2.7-1.3,3.6-.3.3-.3,1-.5,1.5-.1.3-.3.7-.5.9-.6.7-1.3,1.4-1.9,2.1-.3.5-.5,1.1-.7,1.6,0,.2-.2.5-.3.7-.9.9-1.7,1.9-2.7,2.6-.9.6-2,.8-3.2,1.3-1.7-.8-2.7-2.3-2.8-4.3,0-.9.4-1.8.7-2.7.3-1.1.6-2.2,1-3.4,0-.2,0-.5.1-.6,1.6-2.2,3-4.5,4.9-6.4,1.5-1.4,3.4-2.7,5.8-1.6.2.1.6,0,1.1,0Z"/>
    <path class="cls-2" d="M47.9,1057c.4-.4.7-.8,1.2-1.1.5-.4.8-1.2,1.7-.7,0,0,.3,0,.4-.1,1.1-1.3,2.4-1.3,3.9-.9,1.2.3,1.7.7,1.6,2,0,.7,0,1.4,0,2.1,0,.5-.2,1-.3,1.4,0,.2-.5.5-.4.6.7,1.5-.8,1.9-1.3,2.7-.7,1.3-1.3,2.7-2.3,3.8-1.3,1.6-2.9,2.9-4.3,4.5-.9,1.1-2.2,1.7-3.4,1.4-.8-.2-1.7-1.3-2-2.2-.4-1.4-.2-2.9-.3-4.4,0,0,0-.2,0-.3.7-1.3,1.3-2.6,2-3.8.5-.9,1.4-1.4,1.5-2.7,0-.9,1.3-1.7,2-2.5,0,0,0,0,0,0Z"/>
    <path class="cls-2" d="M-42.2,686.5c-.3,1.1-.5,2-.8,2.8-.1.3-.4.6-.6.9-1,1.1-2,2.2-3.2,3.1-.5.4-1.3.5-1.9.9-.8.5-1.5,1.2-2.2,1.7-.5.4-.9,1.3-1.9.7,0,0-.4.1-.6.3-1,.9-2.2.5-3.3.7-2.3.4-2.9-1.5-3.9-2.5,1-3.9,3.8-6.2,6.5-8.6,1.5-1.3,3.2-2.3,4.9-3.2,1.3-.6,2.9-1.2,4.1-.9,1.1.3,2,1.8,2.8,2.9.2.3,0,1,0,1.1Z"/>
    <path class="cls-2" d="M-209.9,756.7c-.3-.3-.7-.8-1.2-1.2-1.3-1.1-1.4-2.4-.9-3.9.5-1.8.8-3.7,1.1-5.6,0-.2.3-.4.4-.7.2-.5.3-1.1.5-1.7.1-.3.3-.6.5-.9.5-.8,1.6-1.2,1.1-2.5,0-.1.3-.4.5-.6.8-.8,1.5-1.5,2.3-2.3.9-.9,2-.7,3.1-.7.3,0,.6-.1.9,0,.3,0,.7.5.7.5-.5.9.2,1.4.7,1.8,1,1,.7,2.3.5,3.4-.1.9-.4,1.7-.6,2.6-.5,2.2-1.2,4.2-2.8,5.9-.1.1-.3.3-.3.4.2,2.5-2.1,3.1-3.3,4.5-.5.6-1.7.5-3,.8Z"/>
    <path class="cls-2" d="M16.8,1094c1.5-1.3,2.5-2.3,3.7-3.2.4-.3.9-.3,1.4-.5.2,0,.5,0,.6-.2,1-1.4,2.7-1.2,4-1.9.7-.3,1.7,0,2.6,0,.6,0,1.1.3,1.7.4,1,.3,2,2.3,1.2,3.2-1.6,1.8-1.9,4.4-4.1,5.7-.5.3-1,.4-1.5.7-.4.2-.8.4-1.1.7-.7.6-1.3,1.2-1.9,1.7-.6.6-3.3,1.5-4.4,1.6-.2,0-.4.2-.6.3-1.1.6-3.3.2-4.3-.5-1-.7-.6-1.8-.7-2.6-.2-1,.3-2,1.1-2.8.9-.9,1.8-1.9,2.3-2.5Z"/>
    <path class="cls-2" d="M-90.9,715.1c-.7.7-1.3,1.3-2,2-1,1.1-2.3,1.4-3.7,1.2-.4,0-1,.4-1.2.3-.5-.5-2.2.5-1.9-1.3.1-.8-.9-1.5-.4-2.6.6-1.2.8-2.6,1.3-3.9.2-.5.6-.9.9-1.3.5-.8,1.6-1.4,1.3-2.6,0-.2.3-.5.4-.6,1.4-1.4,2.7-3.1,4.3-4.2,1.3-.8,3-1.1,4.6-1.3.8-.1,1.8,1.9,1.8,2.8,0,.5.2,1,.1,1.4,0,2.2-1.3,3.9-2.2,5.8-.9,1.8-2.2,3.1-3.4,4.5Z"/>
    <path class="cls-2" d="M-9.9,1066.9c.6-.6,1.1-1.2,1.7-1.7.6-.6,1.1-1.4,2.3-1.2.2,0,.6-.3.9-.6,1.1-1.1,2.4-1.4,3.9-.9.4.1,1,0,1.4.1,1.2.6.7,1.8.8,2.8,0,.9-.8,1.9-.8,2.5,0,2.2-2.3,2.9-2.9,4.5-.7,1.9-1.9,3.5-3.5,4.5-2.1,1.3-4.2,2.8-6.9,2.3-.7-.1-1.4-1-1.7-1.6-.3-.9,0-2-.1-2.9-.2-2,1.8-3.1,2.2-5,.2-1.1,1.8-1.9,2.7-2.9h0Z"/>
    <path class="cls-2" d="M-125.8,724.6c.5,0,1,.3,1.3.2,1.1-.3,1.3.6,1.6,1.3.2.5.3,1,.4,1.4.2.9.5,1.8.4,2.6-.2,1.3-.6,2.6-1,4,0,0,0,.2-.1.2-2.1,3.2-3.9,6.5-7.1,8.8-.9.7-2.1.7-3.3.7-1.2,0-2-.3-2.3-1.2-.4-1-.4-2.1-.2-3.4.3-1.3,1.5-2.4,1.1-3.9,0-.2.3-.5.5-.8.5-.7,1.5-1.2,1.1-2.4,0-.1.2-.4.4-.6,2.4-2.4,4.7-4.7,7.1-7.1Z"/>
    <path class="cls-2" d="M-152.6,679.2c1.3-1.2,2.4-2.2,3.6-3.1.5-.4,1.1-.5,1.7-.7.3-.1.7-.3.9-.5,1.6-1.4,3.5-1.2,5.4-1.3,1.1,0,1.7.3,2.3,1,.8.9.9,2.7.2,3.7-.2.3-.3.7-.4,1-.2.4-.2,1-.5,1.3-1,1.1-2,2.1-3.1,3-.3.3-.9.3-1.3.5-.7.4-1.4.9-2.1,1.4-.6.4-1,1.4-2,.8-.1,0-.4.2-.6.3-1.4,1.6-3.4,1.2-5.2,1.5-.8.1-1.9-.3-2.5-.9-.4-.4-.3-1.5-.3-2.3,0-2.9,2.7-3.9,3.9-5.7Z"/>
    <path class="cls-2" d="M109.3,1013.1c.4-.4.9-.8,1.2-1.3.8-1,1.9-.3,2.8-.7.3-.1.7,0,1.1.1.2,0,.4,0,.5.1.4.9.8,1.8,1,2.8.2.9.2,1.9,0,2.8,0,.9-.3,1.8-.6,2.7-.3,1-.7,2-1,2.9-.3,1.1-.2,2.4-.9,3.2-1.4,1.9-1.7,4.6-4,6-1.2.7-3.9-.7-4.2-2.1-.2-1.1-.5-2.3-.7-3.4,0-.4.2-.8.2-1.2-.1-1.3,0-2.4.6-3.6.5-1,.5-2.2.7-3.4,0,0,0,0,0-.1,1-1.7,1.9-3.4,2.9-5.1.1,0,.2.1.3.2Z"/>
    <path class="cls-2" d="M42.7,1044c-1.6-1.2-3-2.6-2.6-5.2.2-1.3.4-2.6.8-3.9.4-1.2,1.3-2,1.5-3.1.8-3.3,3.3-5,5.5-6.9,1.8-1.6,4.1-1,5.2,1.2.3.6.4,1.5.2,2.1-.2,1.2-.8,2.4-1,3.6-.2,1.3-1.3,2.2-1.6,3.3-.4,1.9-2.3,2.7-2.5,4.2-.3,1.8-1.5,2.6-2.6,3.5-.7.6-1.9.7-3,1.1Z"/>
    <path class="cls-2" d="M-29,1105.1c.6-.6,1.2-1.2,1.8-1.8.6-.5,1-1.4,2-.9.1,0,.4-.3.7-.4.8-.5,1.3-1.8,2.7-1.2,1.2-1.3,2.9-.7,4.4-1.1.5-.1,1.2,0,1.7,0,.7,0,1.4.1,2.1.4.9.3,1.5,1.7,1.1,2.9-.8,2.4-2.2,4.3-4.7,5.2-1.1.4-1.9,1.5-2.9,2.2-.5.3-1.1.4-1.6.6-.3.1-.6.4-.9.5-.5.2-1,.3-1.5.4-.2,0-.4,0-.5.1-1.1,1-2.2.9-3.6.6-.7-.2-1.6,0-2.3-.1-.4,0-1-.5-1.1-.8-.3-1.9-.7-3.9,1.2-5.3.5-.4.9-.9,1.3-1.3,0,0,0,0,0,0Z"/>
    <path class="cls-2" d="M-212.1,728.7c0-1,0-1.9,0-2.9,0-.8-.3-1.7,0-2.4.5-1.4,1.4-2.6,2-4,.2-.4.3-.8.5-1.3.1-.3.2-.7.4-.9,2.1-2.2,4.2-4.5,6.4-6.6.5-.5,2-.7,2.4-.4.8.6,2.2,1,1.8,2.6,0,.2.2.5.2.7,0,.7,0,1.4.1,2,.3,1.5-1.4,2.4-.9,3.9,0,.2-.3.5-.5.7-.5.8-1.7,1.3-1.3,2.6,0,.1-.3.4-.5.6-1.6,1.6-3.1,3.5-4.9,4.8-1,.7-2.5,1.8-4.1.6-.3-.2-.9-.2-1.5-.2Z"/>
    <path class="cls-2" d="M-37.2,1076c-.6-.6-1.1-1.2-1.8-1.7-1-.8-.5-2-.8-3-.2-1.1.8-2.2,1.1-3.2.5-2,2.3-2.9,3-4.5.6-1.3,1.2-2.5,2.4-3.4.5-.4,1.1-.5,1.7-.8.2-.1.5-.2.7-.4,1.3-1.8,3.3-1.4,5.1-1.5.3,0,1,.6,1,1,0,1.6.9,3.4-.6,4.8.7,1.9-2.1,2.4-1.6,4.3,0,.1-.2.4-.3.5-2.2,2.3-4.4,4.5-6.7,6.7-.3.3-.8.2-1.2.3-.6.2-1.2.5-2,.9Z"/>
    <path class="cls-2" d="M-38.8,1102.6c0-.5-.2-1.3-.2-2,0-1.1.3-2.3.6-3.4,0-.3.4-.6.6-.9,1.1-1.1,2.1-2.2,3.3-3.3.7-.6,1.2-1.7,2.4-1.3.1,0,.3-.1.4-.3,1.2-1.4,2.9-2,4.5-2.5.9-.3,2.1-.1,2.9-.3,1.4-.3,1.8.6,2.5,1.2,1,.8.6,1.9.3,2.7-1.2,3.2-3.8,5.5-6.3,7.7-1.2,1-2.7,1.9-4.1,2.6-1.3.6-2.8.8-4.2,1.1-.2,0-.5-.3-.8-.4-.6-.3-1.2-.6-1.9-.9Z"/>
    <path class="cls-2" d="M93.8,1050.7c-1.1-1.1-2.3-2-3.1-3.2-.4-.7-.3-1.8-.3-2.7,0-1.1.4-2.3.6-3.4,0,0,0-.2,0-.3.9-1.5,1.7-3,2.6-4.5.5-.9,1.1-1.9,1.6-2.8,1.1-1.8,3.2-2.2,4.8-3.2,1-.6,3.1.5,3.6,1.7.3.6.3,1.3.3,2-.1.8-.7,1.7-.6,2.4.2,1.5-1.5,2.3-1,3.8,0,.1-.2.4-.3.5-.7.9-1.9,1.5-1.6,2.9,0,.1-.2.3-.3.4-1.4,1.5-2.8,2.9-4.2,4.4-.7.7-1.4,1.3-2.2,2Z"/>
    <path class="cls-2" d="M74.3,1040.9c-.4,1.5-.6,2.7-.9,3.9,0,.3,0,.6-.2.9-1.4,2.2-2.4,4.7-4.5,6.5-.4.4-.5,1.1-.8,1.6-.2.4-.5.8-.8,1-1.4.9-2.9,1.8-4.5,2.8-.9-.9-2.1-1.9-3-3-.4-.5-.3-1.4-.2-2.1.2-1.1.8-2.2,1-3.4.5-2.6,2.7-4,4-6,.6-.9.8-2.1,1.7-2.8.3-.3.8-.4,1.3-.5.2,0,.5,0,.7-.2,3.2-1.8,4-1.7,6.2,1.3Z"/>
    <path class="cls-2" d="M-235.6,746.4c.3-.3.6-.6.9-.9,2.5-2.3,2-2.3,4.5.4.5.6.6,1.7.7,2.6,0,1.2,0,2.5-.2,3.7,0,.9,0,1.8-.3,2.7-.4,1.2-1.2,2.3-1.4,3.4-.4,2.8-2.7,4.1-4.3,5.9-.8.8-1.6,1-2.7.5-.3-.1-.6,0-.9-.1-.2,0-.5-.1-.7-.2.6-1.2-1.3-2-.7-3.3.2-.3-.2-.9-.1-1.3.2-1.8.3-3.6.9-5.3.6-1.4.3-3.1,1.7-4.1.3-.2.2-.8.3-1.2,0-.3.2-.6.3-.8.6-.7,1.3-1.4,1.9-2.1,0,0,0,0,0,0Z"/>
    <path class="cls-2" d="M39.4,1083.1c.6-.6,1.2-1.3,1.9-1.9.4-.3.9-.3,1.4-.6.6-.4,1.4-.7,1.8-1.3,1.4-1.8,3.4-2.1,5.4-2.1.8,0,2-.4,2.8.8.6.9.7,1.4.4,2.6-.4,1.8-2.1,2.7-2.5,4.1-.5,2-2.1,2.9-3.2,4.3-.3.3-.8.3-1.2.5-.4.2-.9.4-1.2.7-1.2,1.3-2.5,2.5-4.4,2.6-1.2.1-2.4,0-3.6-.2-.7-.1-.9-2.3-1.1-3.2-.3-1.5,1.1-2.3,1.2-3.7,0-.9,1.4-1.8,2.2-2.8,0,0,0,0,0,0Z"/>
    <path class="cls-2" d="M-6.4,1100.1c.6-.6,1.2-1.3,1.8-1.8.4-.3,1.1-.4,1.6-.6.1,0,.3,0,.4,0,1-1.6,2.8-1.7,4.3-2.3.9-.4,2.1-1.2,3.5-.8.6.2,1.4.1,2,0,1.3-.2,2.1.6,2.5,1.5.4.8.3,1.7-.3,2.8-.7,1.4-1.2,2.9-2.5,3.6-2,1-3.6,2.5-5.4,3.8-.9.6-2.2.6-3.3.9-.1,0-.3,0-.4.2-1.3,1.1-2.9.7-4.4.8-1.6.1-2.9-2.7-2.2-4.1.4-.7-.3-1.6.7-2.2.7-.4,1.2-1.1,1.7-1.7,0,0,0,0,0,0Z"/>
    <path class="cls-2" d="M-192.5,722.6c1-1,1.9-1.7,2.5-2.5.8-1.1,2-.8,3-1.3.1,0,.4.1.6.3,1.7,1.2,2.2,3.1,2,5.1-.2,2.3-1.6,4-2.5,5.9-1.1,2.4-2.8,4-4.5,5.7-1.4,1.5-3.4,1.6-5.3,1.8-.7,0-2.1-1.8-2-2.7,0-1.4.6-2.8.7-4.1.2-1.8,2-2.4,2.2-3.7.4-2.4,2.5-3.2,3.3-4.6Z"/>
    <path class="cls-2" d="M-157.2,698.4c1.2-1.2,2.6-2.3,3.6-3.7.9-1.1,2.2-1.4,3.2-1.2.9.1,1.7,1.4,2.3,2.3.3.3.2,1,.2,1.4,0,.6-.1,1.2-.2,1.7,0,.3-.1.7-.2,1,0,.1.1.3,0,.4-.5,1.1-.9,2.3-1.7,3.3-1.6,2-3.6,3.7-5.2,5.7-1.2,1.6-3.1,1.6-4.6,2.4-.2.1-.6-.2-.8-.2-.5-.1-1-.2-1.4-.3-.3,0-.6-.2-.8-.4-.6-1-.6-2-.5-3.2.2-1.5,1.5-2.6,1.4-4.2,0-.3.4-.7.7-1,1.4-1.4,2.7-2.7,4.1-4.1,0,0,0,0,0,0Z"/>
    <path class="cls-2" d="M8.3,1079c.6-.6,1.2-1.3,1.9-1.9.7-.6,1.1-1.7,2.4-1.3.2,0,.6-.3.9-.5,2.2-1.7,4.6-.7,5.6,1.6,0,.1.2.3.1.4-.4,1-.9,2-1.1,3.1-.6,2.6-3,4-4,6.1-1.3,2.7-4,3.2-5.8,5-.8.9-2.8.5-3.7-.3-1.4-1.2-1.4-2.5-1.4-4,0-1.6,1.5-2.4,1.6-3.4.2-2.4,2.5-3,3.5-4.7Z"/>
    <path class="cls-2" d="M-113.7,690c-1.2,1.2-2.4,2.7-3.8,3.7-1.1.8-2.5,1-3.8,1.4-.7.2-1.6,0-2.3.1-1.2.1-2.3-1.5-2.1-2.7.7-4.6,4.1-7.4,7.2-10.3,1.3-1.2,3-2,4.5-2.9.9-.6,3.8,0,4.5.6,1.1,1,1,2.3.6,3.6-.4,1.3-.4,2.7-1.7,3.6-1.1.9-2.1,2-3.1,3,0,0,0,0,0,0Z"/>
    <path class="cls-2" d="M.8,1082.3c0,.8.1,1.3.2,1.8,0,0,0,.2,0,.2-.6,1.2-.9,2.5-1.8,3.5-2.6,2.8-5.3,5.4-8,8.1-.9.9-2.1.8-3.2,1-.2,0-.5,0-.8.1-1.8.6-2.6-.3-3.1-2.2-.4-1.5.4-2.8.1-4.2,0-.2.3-.6.5-.8,2.3-2.3,4.5-4.6,6.8-6.8.3-.3.9-.4,1.4-.5.1,0,.3,0,.4,0,.8-1.4,2.4-1,3.5-1.7.6-.4,1.7,0,2.5.1.2,0,.4.3.6.5.4.3.7.7.8.8Z"/>
    <path class="cls-2" d="M-172,735.3c.9-.8,1.9-1.7,2.8-2.5.9-.8,1.7-.8,2.7,0,1.8,1.6,1.7,3.6,1.4,5.7-.2,1.7-1.1,3.2-1.4,4.8-.4,1.7-1.6,2.4-2.3,3.7-.3.5-.1,1.3-.5,1.6-1.1.9-1.5,2.7-3.5,2.5-.2,0-.5.3-.7.4-1.5,1.1-4.2.2-4.7-1.5-.2-.6-.1-1.3,0-1.9.2-.9.6-1.7.8-2.6.3-1.1.5-2.3.8-3.4,0-.1,0-.2.2-.4,1.4-2.1,2.8-4.3,4.2-6.4,0,0,.1,0,.2,0Z"/>
    <path class="cls-2" d="M-112.5,672.9c2-2,4.1-4.1,6.2-6.2.3-.3.8-.3,1.1-.4.2,0,.5,0,.6-.1,1-1.5,2.7-1.7,4.2-2.1,1.8-.5,3.8-1.7,5.7-.1.1.1.5-.1.7,0,.2,0,.6.2.6.3.1,1.2.4,2.4.2,3.5-.3,2-1.6,3.4-3.2,4.5-1.2.8-2.3,1.6-3.6,2.1-1.9.7-4,1.1-5.9,1.7-.8.3-1.5,1-2.5.6-.4-.2-.8-.1-1.2-.2-.5-.1-1.1,0-1.5-.4-.6-.4-1-1-1.4-1.6-.2-.3,0-.8-.1-1.5Z"/>
    <path class="cls-2" d="M-157,720.6c.9-.9,1.9-1.7,2.7-2.7,1-1.2,2.5-1.2,3.7-1.9.2,0,.5,0,.7.2,1.7.9,2.8,3.2,1.9,5.3-.5,1.2-.8,2.5-1.2,3.7-.1.4-.4.7-.7,1-2.3,2.3-4.6,4.7-6.9,7-1.4,1.4-3.2,1.1-4.9.9-1.3-.2-2.2-2.5-1.6-3.7.8-1.4,1.3-2.9,2-4.4,1.1-2.2,2.9-3.6,4.3-5.4Z"/>
    <path class="cls-2" d="M-14.9,1049.4c.5-.5.9-1,1.4-1.4,1.2-1.1,2.7-1.4,4.3-1.4.8,0,1.3,0,1.9.4,1.3.8,1.1,2.1,1.1,3.2,0,.9-.9,1.9-.9,2.8.1,1.8-1.7,2.4-2.1,3.7-1.1,3.5-4.3,5.2-6.5,7.7-.9,1-2.3.9-3.3,0-.4-.4-.7-.8-1.1-1.2-.9-1-1-2.1-.6-3.4.3-1.1.5-2.2.7-3.4,0-.1,0-.3.2-.4,1.5-2.2,3-4.4,4.6-6.7,0,0,.1,0,.2.1Z"/>
    <path class="cls-2" d="M-173,688.5c1.5-1.4,2.8-2.9,4.4-3.9,1.5-.9,3.3-2,5.3-1.3.5.2,1.1,0,1.6.3,1.1.6.7,1.9.8,2.8,0,1.9-.4,3.7-2,5.1-1.6,1.3-2.8,3.1-4.5,4.3-1.6,1.2-3.3,2.2-5.3,2.6-.9.2-1.7.4-2.6.6-1.3.2-1.9-.5-2.3-1.2-.4-.7-.4-1.7-.3-2.6.4-3.1,3.3-4.5,4.9-6.7Z"/>
    <path class="cls-2" d="M82.1,1037c-.8.8-1.5,1.6-2.3,2.2-.5.3-1.3.4-1.8.3-1.4-.4-2.7-2.4-2.7-3.9,0-1.3-.2-2.7-.2-4,0-.3.4-.5.5-.8.2-.5.2-1,.4-1.5.1-.3.3-.6.5-.9.5-.7.9-1.5,1.2-2.3.7-1.9,2-3.6,3.4-5.1.7-.8,2-1.1,3.1-1.6.2,0,.5,0,.7,0,1.8.7,2.8,2.6,2.4,4.5-.1.8,0,1.8,0,2.6,0,0,0,.2,0,.3-.4,1-.9,2.1-1.3,3.1-.5,1.3-.8,2.6-1.3,3.8-.1.3-.3.7-.5.9-.7.8-1.3,1.6-2,2.4,0,0,0,0,0,0Z"/>
    <path class="cls-2" d="M-190.9,698.6c1.3-1.3,2.3-2.4,3.5-3.5.5-.4,1.2-.5,1.8-.7.3-.1.6-.4.9-.5.8-.2,1.6-.6,2.3-.4.7.2,1.3.8,1.2,1.9-.2,1.3.1,2.6.2,4,0,0,0,0,0,.1-.6,1.2-1,2.6-1.9,3.6-1.9,2.2-4,4.1-6.1,6.2-1.3,1.3-2.9,1.4-4.5,1.6-1.6.2-2.2-.7-3-1.5-.3-.3-.6-.7-.5-1.1.1-.9.4-2,.7-2.7,1.4-2.6,2.7-5.4,5.2-7Z"/>
    <path class="cls-2" d="M-120,701.1c1-1,2.1-2,3-3.1,1.4-1.5,3.2-1.4,4.9-1.3.7,0,1.7,1.3,1.9,2.2.4,1.8-.3,3.4-1.1,5.1-1.7,3.6-4.7,5.9-7.6,8.3-1.5,1.3-3.8,2-5.9,1.3-.5-.2-1-1.1-1.1-1.7-.4-1.9.3-3.4,1.4-5,.6-1,.9-2.2,1.8-3.1.9-.9,1.8-1.8,2.7-2.7,0,0,0,0,0,0Z"/>
    <path class="cls-2" d="M-94.1,699.3c-1,1-1.9,1.9-2.9,2.9-1.5,1.5-3.3,2.2-5.4,2.4-.9,0-2,.3-2.8,0-1.4-.5-2-2-1.6-3.5.4-1.2.9-2.4,1.7-3.3,2.1-2.3,4.2-4.7,6.6-6.6,1.3-1,2.8-2.2,4.8-2.1.7,0,1.4-.2,2.2-.3,1.1,0,2,1.8,1.7,3.1-.2.8-.1,1.7-.2,2.6,0,.4-.2.8-.4,1-1.2,1.3-2.5,2.5-3.7,3.7,0,0,0,0,0,0Z"/>
    <path class="cls-2" d="M-131.6,674.4c.9-.9,1.7-1.8,2.7-2.7.4-.3,1-.4,1.5-.6.2,0,.4-.1.6-.2,1.4-.8,2.8-1.7,4.2-2.3.9-.4,2.1-.3,3.1-.5,1.2-.2,1.8.3,2.6,1,1.8,1.6,1.9,2.9.3,4.6-1.6,1.7-3.4,3.4-5.1,5-.5.4-1.3.4-1.9.6-1.3.6-2.6,1.4-4,1.9-.7.3-1.5.4-2.3.4-.9,0-1.9,0-2.8,0-.7,0-2.2-1.8-2.3-2.5-.3-2.6,2.2-3.3,3.3-4.8Z"/>
    <path class="cls-2" d="M-128.8,684.8c.5,1.1.8,1.9,1.3,2.9-.4,1.3-.9,2.8-1.4,4.4,0,.3-.2.6-.4.8-2.4,2.5-4.8,5.1-7.4,7.3-.9.8-2.4,1.4-3.9,1.2-.5,0-.9.3-1.5-.1-1.2-.8-1.8-2-1.5-3.3.2-1.2,1-2.3,1.4-3.4.2-.4.3-.9.4-1.3.2-.4.3-.9.6-1.2,2.2-2.3,4.4-4.6,6.7-6.7.7-.6,1.9-.8,2.9-.9,1,0,2.1.2,2.9.2Z"/>
    <path class="cls-2" d="M38.4,1044.9c-.2,1.1-.3,1.8-.5,2.6,0,0,0,.2,0,.3-1.3,1.5-1.5,3.7-3.2,5-.9.7-2.1,1.5-2,3.1,0,.3-.5.8-.8.8-1.9,0-2.8,1.7-3.9,2.7-.9.9-2.2.9-2.8.6-.8-.5-2.2-1-1.8-2.7.2-1.3,0-2.7,0-4.1,0,0,0-.1,0-.1,1.5-1,1.4-2.9,2.5-4.1,1.5-1.7,3.1-3.3,4.7-4.8.8-.7,1.4-2,2.9-1.5.2,0,.5-.4.8-.5.5-.1,1-.1,1.6,0,.4,0,1,0,1.3.3.5.4,1,1,1.4,1.6.2.3.1.9.1,1Z"/>
    <path class="cls-2" d="M-67.4,692c2.4.7,2.6,2.7,2.7,4.4,0,1.2-.7,2.8-1.6,3.7-2.3,2.6-4.8,5.1-7.5,7.4-.8.7-2.2.9-3.4,1.2-.9.2-1.8.1-2.7,0-.5,0-1.3-.6-1.3-1,0-1.6,0-3.2.8-4.9,1.7-3.3,4.4-5.7,7-8.2,1.2-1.2,2.8-1.9,4.6-2.1.5,0,1-.4,1.4-.6Z"/>
    <path class="cls-2" d="M9.8,1058.2c.8-.8,1.8-1.6,2.5-2.5,1-1.5,2.7-1.5,4.1-1.9.8-.3,1.8.2,2.6.4.2,0,.5.4.5.6,0,1.6-.2,3.3-.3,4.9,0,0,0,0,0,.1-2.3,4.4-5.3,8.3-9.4,11.1-.8.6-2,1-2.9.8-.8-.2-1.7-1.1-2.1-1.9-.4-.7-.4-1.8-.4-2.7,0-1.7,1.4-3,1.4-4.7,0-.3.4-.7.7-1,1.1-1.1,2.2-2.2,3.3-3.4,0,0,0,0,0,0Z"/>
    <path class="cls-2" d="M-86.4,673c.3.7.5,1.4.7,2,.5,1.2,0,2.6-.6,3.3-2.1,2.4-4.3,4.8-6.8,6.6-1,.7-2.3,1.6-3.6,2-1.2.4-2.8,0-4.1.3-1.2.3-1.7-.3-2.4-1-.9-1-1-2.6,0-3.6,2.8-2.9,5.7-5.7,8.5-8.5.3-.3,1-.3,1.5-.5.2,0,.5-.1.7-.3,1.6-1.2,3.3-1.1,5-.5.3.1.8,0,1,0Z"/>
    <path class="cls-2" d="M-56.1,1084c-.5,0-1.1.2-1.4,0-.9-.7-1.9-1.4-2.4-2.4-.4-.7-.1-1.9,0-2.8,0-.2.3-.4.4-.7.2-.5.3-1.1.5-1.6.1-.3.3-.7.5-.9,2.2-2.2,4.3-4.3,6.5-6.5.2-.2.7-.2,1-.3.2,0,.5,0,.5,0,.8-1.5,2.8-.7,3.7-1.9.3.2.6.4.9.5,2.4.5,2.3.5,2.2,3.1,0,1-.8,1.7-.9,2.4-.2,2.7-2.5,3.6-3.9,5.3-1.5,1.8-3.2,3.3-5,4.8-.7.6-1.8.7-2.8,1h0Z"/>
    <path class="cls-2" d="M-31.2,1077c.8-.8,1.6-1.6,2.4-2.4.6-.5,1-1.4,2-.9,0,0,.4-.1.4-.2.9-1.5,2.7-1.6,4.1-2.2,1.1-.5,4,.8,4.2,1.9,0,.5.1,1,0,1.4-.3,1-.4,2.1-1,2.8-2.7,2.9-5.5,5.7-8.4,8.5-.3.3-1,.4-1.5.5-.2,0-.4,0-.5.1-1.1,1-2.3.9-3.6.5-.4-.1-1,0-1.4-.2-1.1-.6-.6-1.8-.7-2.7-.1-1.2.3-2.4.7-3.6.2-.6.8-1.1,1.3-1.7.6-.7,1.3-1.3,1.9-1.9,0,0,0,0,0,0Z"/>
    <path class="cls-2" d="M61.1,1069.3c.4-.4.8-.9,1.3-1.2,1.4-.9,2.8-2.2,4.4-2.6,1.3-.3,3-.6,4.4.7,1,1,1,2.4.7,2.9-.9,1.3-.6,3-1.9,4.2-2.9,2.7-5.7,5.5-8.4,8.4-.9,1-2,.8-3,.8-.7,0-1.8.3-2.1-.8-.2-.8-.3-1.7-.3-2.6,0-.7,0-1.5.2-2.2.1-.6.3-1.3.6-1.8,1.3-2,2.6-4,3.9-5.9,0,0,.2.1.3.2Z"/>
    <path class="cls-2" d="M-67.5,1078.2c1,.5,1.8,1,2.8,1.5,0,.8.2,1.9.2,3,0,.3-.2.7-.5.9-2.7,2.7-5.4,5.4-8.2,8.1-.2.2-.5.3-.8.4-.5.2-1.2.2-1.5.5-1.1,1-2.4,1-3.7.9-.5,0-1.1,0-1.6-.2-1.5-.8-1.7-2-1.6-3.7.1-1.9,1.3-2.9,2.4-4,1.5-1.5,3.2-2.9,4.8-4.4.3-.2.7-.3,1-.5.7-.4,1.4-.8,2.1-1.1.4-.2.8-.2,1.2-.3,0,0,.2,0,.2,0,1-.4,2.1-.7,3-1.1Z"/>
    <path class="cls-2" d="M-55.7,1094.2c-.8-.7-.9-2.1-.6-3.4.6-2.2,2-3.7,3.7-5,1.6-1.2,3.2-2.7,5.1-3.3,1.1-.4,2-1.5,3.5-1,.6.2,1.3-.7,2.3-.7.7,0,1.1.1,1.7.4.2.1.5.2.7.3,1.5,0,1.7.8,1.5,2.2-.4,2.5-2.3,3.8-3.8,5.4-1,1-2.2,1.9-3.1,3-1.1,1.4-2.5,1.3-4.1,1.2-1.3,0-2.7.2-4,.4-.9.1-1.8.3-3,.5Z"/>
    <path class="cls-2" d="M-71.8,689.5c-.8.8-1.5,1.6-2.4,2.4-.4.4-1.1.5-1.6.7-.1,0-.3,0-.4,0-1,1.4-2.6,1.6-4,2.2-.8.3-1.7.4-2.5.5-.8,0-1.6-.2-2.4-.3-1.5-.2-2.2-1.5-1.9-2.8.9-3.7,3.9-5.6,6.5-7.6,1.3-1,3-1.9,5.1-1.2.7.3,1.8-.3,2.7-.5,1-.3,1.9-.7,2.9-.8.4,0,1.2.7,1.3,1.2.2.9,0,1.9,0,2.9,0,.3-.3.5-.5.8-.9.9-1.8,1.9-2.8,2.8,0,0,0,0,0,0Z"/>
  </g>
  <path class="cls-2" d="M894,181.4c-2.6.5-5.1,1-7.7,1.5-3.6.6-7.2,1.3-10.7,1.9-.7.1-1.5.2-2.2.2-11.5,0-22.9.2-34.4,0-4.1,0-8.1-1.1-12.2-1.8-2.5-.4-5-.8-7.5-1.3-7.1-1.3-14-3.4-20.8-5.7-6.9-2.4-13.6-5.3-20.1-8.4-6.1-3-12-6.3-17.8-9.7-17.2-10-33.4-21.5-47.8-35.2-9.8-9.3-18.5-19.4-25.9-30.7-4.8-7.2-9.2-14.5-13.1-22.2-3.1-6.3-6-12.6-8.1-19.3-1.8-5.7-3.8-11.3-5.3-17-1.3-4.8-1.9-9.8-2.8-14.6-2.4-12.7-2.7-25.5-2.1-38.3.2-5,.8-9.9,1.3-14.9.1-1.3.8-2.5,1.2-3.8.2,0,.5,0,.7,0,0,1.7,0,3.4,0,5.1.2,7.6.1,15.1.6,22.7.4,5.9,1.2,11.7,2.2,17.5.8,4.7,1.9,9.3,3,14,1.2,4.9,2.4,9.8,3.8,14.6,1.1,3.9,2.4,7.7,3.9,11.5,2.1,5.4,4.2,10.7,6.6,16,4.3,9.4,9.2,18.5,14.9,27.2,8,12.3,17.1,23.7,27.3,34.3,9.9,10.2,20.8,19.3,33.1,26.7,10.5,6.4,21.6,11.3,33.3,15.2,4.2,1.4,8.4,2.9,12.7,4.2,3.5,1,7.2,1.7,10.8,2.6,4.2,1,8.3,2.1,12.5,3,4.6.9,9.2,1.7,13.9,2.3,10.7,1.5,21.5,2.2,32.3,2.4,5.8.1,11.6-.3,17.5-.5,2.3,0,4.6-.4,6.9,0,0,.2,0,.4,0,.7Z"/>
</svg>