<?xml version="1.0" encoding="UTF-8"?>
<svg id="_레이어_1" data-name=" 레이어 1" xmlns="http://www.w3.org/2000/svg" version="1.1" viewBox="0 0 172.5 311">
  <defs>
    <style>
      .cls-1 {
        fill: #000;
      }

      .cls-1, .cls-2 {
        stroke-width: 0px;
      }

      .cls-2 {
        fill: #fff;
      }
    </style>
  </defs>
  <path class="cls-1" d="M123.2,84.3c-20.3-20.3-31.4-45.6-32.8-69.6s-1.9-4-4.1-4,0,0,0,0C42.7,10.7,7.3,76.5,7.3,157.6s35.3,146.9,78.9,146.9,78.9-65.8,78.9-146.9-1.4-31.3-3.9-45.7c-.2-1.4-1.2-2.6-2.5-3.2-12.6-5.5-24.8-13.7-35.5-24.4Z"/>
  <path class="cls-2" d="M72.5,48c0,.7.1,1.5.2,2.2.2,2.1.3,4.3.6,6.4.1,1.1.5,2.1.8,3.1.2.7.4,1.4.6,2.1,1.1,4.2,3.1,8,5.2,11.7,1.5,2.6,3,5.2,4.5,7.8,1.5,2.5,2.7,5.1,3.8,7.7.7,1.7,1.2,3.5,1.7,5.2.5,2.1,1,4.2,1.4,6.3.1.5.2,1,.2,1.6,0,3.4,0,6.9,0,10.3,0,1.6-.5,3.2-.8,4.8-.2,1.3-.5,2.5-.8,3.8-.3,1.1-.6,2.2-.9,3.2-.7,2.1-1.6,4.1-2.3,6.2-1,2.7-2.4,5.1-3.8,7.6-2.3,4-5,7.7-8,11.3-.6.7-1.3,1.4-1.9,2.1-.5,0-.7-.4-.7-.8,0-.5,0-1.1,0-1.6-.2-2-.3-4.1-.6-6.1-.6-3.5-1.7-6.9-3.1-10.2-1.6-3.7-3.6-7.2-5.6-10.6-2.2-3.7-4.3-7.5-6-11.5-1-2.4-1.9-4.9-2.4-7.4-.6-2.7-.8-5.5-1.1-8.2-.3-3.1.2-6,.2-9.1,0-1.3.5-2.7.7-4,.2-1,.4-2,.6-2.9.9-2.8,1.7-5.7,2.8-8.5.9-2.4,2.1-4.7,3.2-6.9,1.1-2.2,2.4-4.3,3.8-6.3,2-3,4.2-5.9,6.7-8.5.3-.3.6-.6.9-.8,0,0,.2,0,.3.1Z"/>
  <path class="cls-2" d="M30.1,130.2c1.6,0,3.1,0,4.6,0,.5,0,.7.3.8.7,0,.4,0,.7,0,1.1,0,2.9,1,5.5,2.4,8,1.9,3.4,4.7,6.1,7.8,8.4,2.1,1.6,4.4,3.1,6.6,4.6,3.8,2.4,7.7,4.7,11.7,6.7,2.9,1.4,5.6,3.1,8.3,4.8,1.8,1.2,3.5,2.6,4.8,4.5,1.3,1.9,2.3,4,2.9,6.2.4,1.5.5,2.9.5,4.4,0,5.1,0,10.3,0,15.4,0,3.7,0,7.4,0,11.2,0,.3,0,.6-.1.9-.8.3-1.3-.3-1.8-.6-2.2-1.3-4.4-2.7-6.5-4-2.3-1.4-4.5-2.9-6.8-4.3-3.9-2.4-7.8-4.8-11.7-7.1-4.1-2.5-8.2-4.9-12.2-7.3-3.1-1.9-5.8-4.4-7.7-7.5-1.3-2-2.2-4.2-2.8-6.5-.7-2.8-.9-5.6-.9-8.5,0-10,0-20,0-30,0-.3,0-.6,0-1.2Z"/>
  <path class="cls-2" d="M30.1,186.7c.5.2.7.3,1,.4,4.6,2.8,9.2,5.6,13.8,8.5,2.9,1.8,5.7,3.5,8.6,5.3,4.4,2.8,8.9,5.4,13.1,8.4,3.4,2.3,6.4,5.1,8.9,8.4,2,2.5,3.4,5.4,4.3,8.5.4,1.3.6,2.7.6,4,0,8,0,15.9,0,23.9,0,3.4,0,6.7,0,10.1,0,.2,0,.3,0,.6-.6,0-1.1.1-1.7.1-.9,0-1.8,0-2.7,0-.8,0-.8,0-.9-.9-.3-2.6-.7-5.2-1.9-7.6-1-1.9-2.2-3.7-3.7-5.3-3-3.2-6.5-5.8-10.2-8.1-3.4-2.1-6.9-4.2-10.3-6.4-2.4-1.5-4.7-3.1-6.9-4.8-3.6-2.8-6.9-6-9.2-10.1-1.3-2.4-2.3-4.9-2.8-7.7-.4-2-.4-4-.4-6,0-6.6,0-13.3,0-19.9,0-.4,0-.8,0-1.3Z"/>
  <g>
    <path class="cls-2" d="M109.1,107.9h15.3v22.3c0,.4-.3.7-.7.7h-14c-.4,0-.7-.3-.7-.7v-22.3Z"/>
    <path class="cls-2" d="M107.6,97.2h18.2c.4,0,.8.3.8.7v7.7h-19.7v-7.7c0-.4.3-.7.8-.7Z"/>
    <path class="cls-2" d="M96.3,200.4c3.1-3.2,6.3-5.5,10.8-8.4s10.6-5.6,15.9-8.4c3.4-1.8,6.9-3.5,10.4-5.3,2.9-1.5,5.8-2.9,8.7-4.4v-27.1c0-7.6-7.1-13.8-15.9-13.8h-18.8c-8.8,0-15.9,6.2-15.9,13.8v61.2c1.1-2.8,2.7-5.5,4.9-7.8Z"/>
  </g>
  <path class="cls-2" d="M142,186.7c-.5.2-.7.3-1,.4-4.6,2.8-9.2,5.6-13.8,8.5-2.9,1.8-5.7,3.5-8.6,5.3-4.4,2.8-8.9,5.4-13.1,8.4-3.4,2.3-6.4,5.1-8.9,8.4-2,2.5-3.4,5.4-4.3,8.5-.4,1.3-.6,2.7-.6,4,0,8,0,15.9,0,23.9,0,3.4,0,6.7,0,10.1,0,.2,0,.3,0,.6.6,0,1.1.1,1.7.1.9,0,1.8,0,2.7,0,.8,0,.8,0,.9-.9.3-2.6.7-5.2,1.9-7.6,1-1.9,2.2-3.7,3.7-5.3,3-3.2,6.5-5.8,10.2-8.1,3.4-2.1,6.9-4.2,10.3-6.4,2.4-1.5,4.7-3.1,6.9-4.8,3.6-2.8,6.9-6,9.2-10.1,1.3-2.4,2.3-4.9,2.8-7.7.4-2,.4-4,.4-6,0-6.6,0-13.3,0-19.9,0-.4,0-.8,0-1.3Z"/>
</svg>