<?xml version="1.0" encoding="UTF-8"?>
<svg id="_레이어_1" data-name="레이어 1" xmlns="http://www.w3.org/2000/svg" version="1.1" viewBox="0 0 1920.5 363.9">
  <defs>
    <style>
      .cls-1 {
        fill: #000;
        stroke-width: 0px;
      }
    </style>
  </defs>
  <path class="cls-1" d="M479.1,225.6c5.8,6.4,11.7,12.6,17.4,19.1,9.7,11,19.4,22.1,29.1,33.1.5.6,1.3,1,2.4,1.1-12.3-18.7-26.7-36-40-54.6,2.9-2,5.1-3.6,7.4-5,25.1-14.6,50.3-29.1,75.4-43.6,7.3-4.2,14.7-8.3,21.9-12.6,4.2-2.5,8.2-4.2,13.1-2.2,2.2.9,4.8.9,8.7,1.6-8.5,4.8-15.6,8.9-22.8,13-16.4,9.2-32.7,18.3-49.1,27.5-13.2,7.4-26.4,14.9-39.6,22.4-3.6,2-4,3.5-1.7,6.9,1.1,1.6,2.4,2.9,3.6,4.4,9.2,11.8,18.4,23.5,27.7,35.3.3.4.9.6,1.9.6-3.1-8.5-9.1-15.2-13.9-22.6-4.9-7.5-10.1-14.9-15.5-22.9,8.1-4.1,15.5-7.9,22.9-11.6,25.4-12.9,50.8-25.8,76.2-38.7,7.3-3.7,14.4-8.1,21.9-11.2,6.3-2.6,12.8-1,19.7,2.7-38.2,19-76.4,36.4-114.5,55.5,10.8,21.7,21,42.4,31.5,63.7,2-2.4,1.5-4.2.8-6-5.7-15-11.4-30.1-17.3-45-1-2.6-.3-4,2-5.1,4.1-2,8.2-4.1,12.3-6.3,13.6-7.2,27.2-14.4,40.8-21.5,17.2-9,34.4-17.9,51.7-26.8,5.9-3,6.9-2.9,11.6,1.9,1.9,1.9,3.5,4,5.8,6.5-7.8,3.9-14.9,7.5-22,10.9-14.2,6.9-28.5,13.8-42.7,20.6-13.9,6.7-27.7,13.3-41.6,19.9-6.4,3-6.9,4.2-4.5,10.9,4.8,13.5,9.8,26.9,14.6,40.4.6,1.7.9,3.6,1.8,5.4,1.9-3.2,1.2-6.5.4-9.9-1.5-5.9-2.7-11.9-4.1-17.9-.7-2.9-1.6-5.6-2.2-8.5-.5-2.7-.6-5.5-1-9,35.7-19,71.5-37.6,107-56.1.9.3,1.4.3,1.7.5,9.2,8.2,6.8,7.2-1.5,11.8-12.6,6.9-25.4,13.5-38.1,20.2-17.9,9.5-35.7,18.9-53.6,28.3-5.3,2.8-5.5,3.6-3.3,9.5,3.3,8.6,6.5,17.3,10,26.7,1.5-4.7,1.5-4.9-1.7-14.9-1.5-4.8-3.2-9.6-4.9-14.7,4.2-2.3,7.9-4.6,11.8-6.6,13.9-7.2,27.8-14.2,41.7-21.5,16.2-8.5,32.4-17.2,48.5-25.8,2.1-1.1,3.9-1.4,5.4,1.1.9,1.5,2.1,2.9,3.5,4.9-3.7,2.1-6.7,4-9.8,5.7-24.6,13.4-49.3,26.7-73.9,40-3.5,1.9-6.9,4.1-10.5,5.6-3.4,1.4-3.8,3.6-3,6.6,1.1,4.3,2.1,8.6,3.5,12.8,1.7,5.1,3.9,10.1,5.8,15,1.6-2.8,1.3-2.7.4-6.2-1.6-5.7-2.7-11.5-4.2-17.2-.9-3.5.8-5.6,3.7-7.2,18.4-10.2,36.9-20.4,55.3-30.6,11-6.1,22.1-12.2,33.1-18.3q4.4-2.4,8.8,2.2c-2.6,1.8-5,3.7-7.6,5.2-17.5,10.5-35,20.9-52.6,31.4-10,6-19.9,11.9-30.5,18.3,1.2,11.4,6,21.9,9,32.9.6-.1,1.2-.2,1.7-.4-1.5-8.9-2.9-17.7-4.5-27.2,29.1-18.8,58.2-37.6,87.4-56.5,2.9,1.5,5.3,3,5.6,6.9-4,2.7-8,5.6-12.2,8.4-14.4,9.6-28.9,19.2-43.3,28.8-7.6,5-15.2,9.9-22.6,15.2-1.3.9-2,3.1-2.2,4.8-.3,2.3,0,4.7.4,7,1.1,5.1,2.5,10.1,4.1,16.6.6-2.5,1.1-3.8,1.1-5,0-3.8.2-7.8-.6-11.5-.9-4.3.8-6.9,4-9.1,13.5-9.4,27-18.7,40.4-28.1,9.8-6.9,19.7-13.9,29.3-21.1,5.4-4,8.2-3.9,12.8,1.6-.6,1-1.1,2.5-2.1,3.2-8,5.5-16,10.9-24.1,16.2-16.4,10.8-32.8,21.6-49.1,32.5-1.4.9-3,3-3,4.5,0,6.7.6,13.4,1,20.1.6,0,1.2,0,1.7,0,.6-3.5,1.5-6.9,1.8-10.4.2-3.2,1.2-5.5,4-7.5,11.5-8.2,22.9-16.6,34.3-24.9,12.1-8.8,24.2-17.4,36.3-26.2,4.3-3.1,9.6-1.9,11.8,3.1.8,1.7.3,3-1.5,4.3-5.6,4-11,8.3-16.6,12.3-15.3,11.1-30.7,22.2-46.1,33.3-.9.6-1.8,1.2-2.6,1.8-4.5,3.3-8.8,6.3-8.3,13.1.3,3.6-1.2,7.3-1.3,11.2,2.5-2.3,1.1-7,5.5-7.7,5.4,3,10.2,7.3,15.8,10.2l1-1.5c-5.5-4.2-11-8.4-16.6-12.7,2.8-4.9,2.8-5,7.4-2,15.4,10.3,30.7,20.6,46.1,30.9,1.2.8,2.6,1.3,3.9,1.9,1.4,2.4,3.6,3.4,6,4,.2-.4.4-.8.6-1.3-2.3-.8-4.5-1.7-6.8-2.5.6-2.1-.9-3-2.2-4-11-8.5-21.9-17.1-32.9-25.6-4-3.1-8-6.2-12.3-9.5,1.1-1.5,2.1-2.8,3.2-4.4,19,14.3,37,29.2,56.3,42.7-4-6.4-10.2-10.5-15.6-15.5-5.7-5.3-11.9-10.1-17.7-15.2-5.7-5-11.2-10.1-17-15.4,2.9-2.8,4.8-2.7,7.2-.6,8.3,7.1,16.9,13.9,25.3,21,10.9,9.3,21.8,18.7,32.7,28,.4.3,1.1.2,2-.2-18.2-19.6-39.2-36.3-58.1-55.5,2.7-2.9,4.3-1.6,6.2.1,7.3,6.7,14.8,13.2,22.1,20,13.5,12.4,26.9,24.8,40.3,37.2,1.6,1.1,3.2,2.3,4.8,3.5-.9-2.4-1.6-5.6-4.9-3.3,1-1.8.5-3-.9-4.5-4.1-4-7.8-8.3-11.9-12.4-14.3-14.3-28.7-28.4-43.1-42.6-1.3-1.3-2.5-2.7-3.9-4.1,3.1-2.9,5-1.5,7.2.7,8.9,8.9,17.9,17.7,26.9,26.5,10.9,10.7,21.8,21.4,32.8,32.1.9.8,2.1,1.3,3.5,1.5-9.6-11.8-20.2-22.6-31-33.3-10.7-10.6-20.9-21.8-31.5-32.9.9-1.2,1.8-2.3,3.2-4.1,26.7,27.1,53,53.9,79.3,80.7.4-.3.8-.7,1.2-1-7.5-9.8-16.4-18.4-24.6-27.6-8.2-9.3-17.1-18.1-25.1-27.5-8.1-9.5-17.6-17.8-24.8-28.5,3.1-2.1,4.7-1.7,6.9.7,11.3,12.8,22.7,25.4,34.2,37.9,9.2,10.1,18.6,19.9,28,29.9.7.7,1.4,1.3,2.6,1.5-5.8-9.4-13.6-17.2-20.6-25.6-7-8.4-14.4-16.5-21.5-24.8-7.1-8.3-14.7-16.3-21.4-25.6,3.4-1.4,4.7-.1,6.2,1.6,5.1,5.9,10.4,11.7,15.6,17.4,12.3,13.6,24.7,27.1,37,40.7,8.1,8.9,16.1,17.8,24.1,26.6.5.6,1.4.8,2.1,1.1,1.1,3.6,3.6,6,6.9,7.5-2-2.8-2.9-6.7-7-7.4-.4-1.3-.4-2.9-1.2-3.8-11.7-13.8-23.6-27.4-35.2-41.3-12.8-15.1-25.3-30.5-38.1-45.6-1.2-1.5-2.5-2.8-1.1-4.2,1.6-1.6,3.2-.8,4.7,1,5.7,6.8,11.6,13.4,17.3,20.2,8.2,9.6,16.4,19.2,24.7,28.8,6.3,7.3,12.5,14.7,19,21.9,1.3,1.5,2.2,4.4,5.3,3.4.1,1.2-.1,2.8.5,3.6,2,2.5,4.4,4.8,6.7,7.2-1.2-4.5-3.2-8.3-7.3-10.6-1.1-3.6,1.4-5.4,3.8-7.1,10-7,20.1-13.9,30.1-20.9,3.1-2.2,6.1-4.7,9.1-7.1-.2-.4-.5-.7-.7-1.1-2.6,1.1-5.3,2.2-7.8,3.4-13.3,6.4-26.5,12.9-39.8,19.3-1.2.6-3.6.8-4.1.1-2.7-3.9-7.6-6.2-8.8-12.2,16.8-4.8,33.5-9.6,50.2-14.3,0-.5,0-.9-.1-1.4-1.3,0-2.6-.3-3.8-.2-4.2.6-8.4,1.2-12.5,2-4.8.9-9.5,2-14.3,2.8-6.9,1.2-14,1.8-20.7,3.6-4.1,1.1-6.5.1-8.7-2.8-1.3-1.6-2.6-3.3-4.4-5.5,1.7-1,3-1.9,4.4-2.5.9-.4,2.1-.3,3.1-.4,13.1-1.2,26.2-2.4,39.3-3.4,5.4-.4,9.4-3.3,13.4-6.5,6.3-5,12.7-9.7,19.2-14.6,2.9,2.3,3.7,4.7,4.1,7.6.6,3.8,1.5,7.5,2.1,11.2,1.1,7.3,2,14.7,3.1,22,1.3,8.3,2.9,16.6,4.4,24.9.3,1.7.4,3.4.7,5.1,1.5,8.5,3,17,4.6,25.5.6,2.9-.2,4.3-3.8,4.1-12-.6-24.2,1.5-36.2-1-1.7-.3-4.2,1.7-5.4.9-5.3-3.3-11.1,2.7-16.1-1.2-4.6,3.4-9.7-.6-14.8.9-4.6,1.4-10.2-.3-15.3-.4-3.7,0-7.4,0-11,.5-9,1.3-17.2-1.2-25.5-4.2-5.3-1.9-10.8-3.4-16.1-5.3-6.5-2.3-12.9-5-19.3-7.3-2.6-.9-5.4-1.1-8-2-13.8-4.8-27.4-9.9-41.2-14.6-8.9-3-18.1-5.5-27.1-8.4-5.8-1.8-11.6-3.9-17.4-5.9-9.8-3.3-19.5-6.6-29.3-9.9-1.2-.4-2.5-.6-3.6-1.2-8.7-5-18.7-5.9-27.9-9.4-7.1-2.6-14.1-5.3-21.3-7.8-5.4-1.9-10.8-3.5-16.3-5.2-3.6-1.2-7.2-2.3-10.8-3.5-8.2-2.9-16.3-6-24.5-8.8-7-2.4-14-4.6-21.1-6.8-2.2-.7-4.3-1.5-6.5-2.2-4.2-1.3-8.5-2.3-12.7-3.8-4-1.4-7.7-3.3-11.7-4.6-5.6-1.9-11.3-3.3-16.9-5.1-9-3-18.1-5.8-26.1-11.3-9-6.2-18.3-11.9-27.6-17.6-1.8-1.1-3.3-1.9-2.5-4.8,1.3.2,2.8.2,3.9.8,9.4,5.2,18.7,10.5,28,15.7,6.6,3.7,13.2,7.4,19.8,11.1.5.3,1.2,0,2.8,0-14.2-11.2-30.1-18.3-43.7-29.6,3.5-2.3,5.7-1.2,7.9.2,9.3,6.1,18.5,12.3,27.9,18.3,7.4,4.8,14.8,9.4,22.7,13.4-13.8-12.8-30-22.5-45-34.7,2.6-1.5,4.1-.8,5.7.4,5.9,4.1,11.9,8.1,17.8,12.2,11.8,8.4,23.6,16.8,35.4,25.2.4.3,1.1.2,2.1-.2-15.7-14.4-33.3-26.6-50.2-40.8,6.3-2.7,10.4-2.4,15.1,2.1,9.8,9.2,20.7,17.3,31.1,25.9,7.8,6.4,15.5,12.9,23.4,19.3,2.1,1.7,4.2,3.3,6.8,4.3-18-19.7-38.8-36.6-57.1-55.9,2.5-3.4,4.6-2,6.3-.4,4.7,4.2,9.4,8.6,14,12.9,11.2,10.5,22.5,21,33.7,31.5,1,.9,2.2,1.6,3.7,2.6-.3-4-.7-4.5-9.8-13.5-4.1-4-8.1-8.1-12.1-12.2-3.8-3.9-7.7-7.8-11.4-11.8-3.9-4.1-7.6-8.3-11.6-12.6,2.4-1.5,3.6-1.5,5.3.3,7.7,8,15.6,15.8,23.4,23.8,10.6,10.8,21.2,21.7,31.9,32.4.6.6,1.8.6,2.7.9,1.8,4.8,5.9,7.3,9.8,10-2.1-3.6-4.8-6.7-7.6-9.7-.4-.4-1.6-.1-2.4-.1,1.2-3.2-1.7-4.7-3.2-6.4-6.2-7.4-12.7-14.5-19.1-21.7-8.2-9.3-16.5-18.6-24.7-28-1.1-1.2-1.9-2.7-3.1-4.5,2.9-1.6,4.8-1.1,6.7,1.2,5.5,6.4,11,12.6,16.6,18.9,11.1,12.5,22.3,24.9,33.4,37.4.4-.3.8-.6,1.2-.9-1.7-2.5-3.3-5-5.1-7.3-3.3-4-6.8-7.9-10.1-11.9-1.5-1.9-3.8-3.7-2.5-6.7l-.2.2ZM799.9,347c-.5.4-.9.8-1.4,1.2.9.9,1.8,1.8,2.7,2.7.4-.4.8-.7,1.2-1.1l-2.5-2.9Z"/>
  <path class="cls-1" d="M355.1,329.1c2.3-4.1,0-6-2.6-7-10.7-3.8-21.5-7.3-32.3-11.1-7.2-2.5-14.3-5.4-21.4-8-7.5-2.8-15.1-5.5-22.6-8.2-19.4-7.1-38.8-14.2-58.2-21.3,1.5-5.1,2.8-6.1,7-5.3,2,.4,3.9,1.5,5.9,2.2,11.7,3.9,23.4,7.7,35,11.6,6,2,12,3.9,18,6,11.6,3.9,23.1,7.8,34.7,11.9,10,3.5,20,7.1,30,10.6,2.6.9,5.3,1.4,7.9,2.2,3.2,1,4.4,3.2,4.8,6.6,1.2,9.4,3,18.8,4.6,28.2.7,4,1.4,8,1.9,12,.3,2.6-.9,4.4-3.6,3.9-3.9-.6-7.8-1.6-11.6-2.8-9.8-3.2-19.6-6.5-29.3-9.9-18.7-6.6-37.4-13.3-56.2-19.8-12-4.2-24-8-36-12.1-11.8-4-23.5-8.2-35.3-12.3-5.2-1.8-10.4-3.6-15.6-5.6-6.7-2.5-10.9-1.2-14.7,5-1.3,2.1-.5,4.2,2.1,4.9,6.9,1.9,13.8,3.7,20.7,5.6,3.6,1,7.2,2.2,10.9,3.2,13.7,4.2,27.5,8.3,41.2,12.6,10.5,3.3,20.9,7,31.4,10.4,6.2,2,12.5,3.7,18.8,5.5,7.1,2.1,14.2,4.1,21.2,6.1,5.3,1.6,10.5,3.1,15.7,4.8,2.4.8,4.6,1.9,6.8,3.9-1.3.2-2.6.6-3.9.6-13.6,0-27.3.2-40.9-.2-3.9,0-7.9-1.3-11.8-2.4-9.9-3-19.7-6.3-29.6-9.3-10.1-3-20.3-5.8-30.3-8.8-9.9-3-19.8-6.3-29.7-9.4-7.5-2.3-15-4.5-22.5-6.8-2.8-.9-5.7-1.6-8.4-2.7-4.3-1.7-7.7-.4-10.7,2.9-1.1,1.2-2.7,2-5,3.7,3,1.8,4.6,3.2,6.4,3.7,8,2.1,16.1,3.9,24.1,6,12,3.2,23.9,6.8,35.9,10.1,7.8,2.1,15.6,3.8,23.4,5.8,6.5,1.7,12.9,3.6,19.4,5.4,0,.5,0,.9-.1,1.4-1.3.2-2.6.5-3.9.5-9.4,0-18.7,0-28.1,0-1.9,0-3.8-.2-5.7-.7-9.2-2.3-18.4-4.7-27.6-7.2-8.1-2.2-16.2-4.7-24.3-7-6.7-1.9-13.4-3.6-20.2-5.2-1.4-.3-2.9,0-4.3,0-1.4,4.2-2.6,7.9-4,12.4,8.4,2.1,16.3,4.1,24.1,6,0,.5-.1.9-.2,1.4-1.8.1-3.6.3-5.4.3-47.5,0-95,0-142.5,0-1.5,0-3,0-4.5,0-2.5-.2-3.9-1.6-4-4.1,0-5.3,0-10.6,0-16,0-3.1,2.4-3.6,4.9-3.8,7.4-.6,14.8-1.4,22.3-1.8,20.6-1.2,41.2-2.1,61.9-3.3,3.4-.2,6.7-1.3,10-1.5,4.9-.2,9.8-.3,14.6.2,5.7.6,11.3,1.5,17.8.2-4.2-2.8-8.1-3.8-12.3-3.8-31.9,0-63.9,0-95.8,0-5.5,0-11.1.1-16.6.1-2.1,0-4.1-.3-6.3-.5-.2-3.5,1.2-4.7,4-5,9.7-.8,19.5-1.7,29.2-2.5,13.6-1,27.3-1.1,40.7-3.2,10.2-1.6,20.3-1.5,30.4-2.5,10.1-.9,20.1-2.7,30-4.1-5.1-2.4-10.3-2.7-16.2-1.6-8.1,1.6-16.5,2-24.7,2.3-18.9.7-37.9.8-56.8,1.4-10.4.3-20.8,1.1-31.3,1.6-4.3.2-5.9-1.3-5.7-4.8.1-2.5,1.4-4,3.7-4.5,1.5-.3,3-.3,4.5-.3,23.2-1,46.4-2.4,69.6-3,14-.4,28.1.5,42.1.8,3.1,0,6.4.9,8.9-2.2-.9-2.7-3.2-2.6-5.2-2.7-6.6-.3-13.2-.7-19.8-.6-31.9.5-63.9,1.1-95.8,1.7-2.3,0-4.6,0-7.4,0-.2-2.7-.4-4.7-.6-6.8,1.4-.5,2.3-1.1,3.3-1.2,10.6-.7,21.2-1.6,31.9-2,13-.5,26.1.2,38.9-1,23.4-2.2,46.8-1.6,70.2-2.4.8,0,1.6-.3,3.7-.7-3.2-1.8-5.7-1.4-8-1.4-35.6-.2-71.1-.4-106.7-.5-9.2,0-18.3,0-27.5,0-2.4,0-4.8,0-5.7-3.3,1.4-2.4,4-2.5,6.5-2.6,10.9-.3,21.7-.7,32.6-.7,53.5-.4,106.9-.6,160.4-1,3.9,0,7.2.6,10.6,3.1,3.1,2.3,7.3,3.2,11.1,4.5,9,3,18.1,5.6,27.1,8.7,10,3.4,19.9,7.2,29.9,10.6,13.4,4.6,26.9,8.8,40.3,13.4,10.9,3.7,21.8,7.8,32.7,11.6,1.2.4,2.4.5,3.9.7ZM186.8,291.5c7.4,2.5,14.4,4.7,21.3,7.2,11.4,4,22.7,8.4,34.1,12.2,11.7,4,23.7,7.4,35.4,11.3,11.8,4,23.4,8.4,35.1,12.6,12.8,4.5,25.5,8.9,38.4,13.2,1.6.6,3.6.3,5.3.5.5-6.3.3-7-2.7-8.1-8-2.9-15.9-5.7-24-8.5-5.8-2-11.7-3.7-17.5-5.8-9.3-3.3-18.5-6.8-27.8-10-5.8-2-11.7-3.6-17.5-5.7-8.8-3.2-17.4-6.9-26.2-10-13.7-4.8-27.6-9-41.3-14.1-2.8-1-4.4-.9-6.9.2-2.3,1.1-4.9,1.2-5.9,4.9ZM137.4,317.2c0,.4.1.9.2,1.3,2.9-.2,5.7-.4,8.6-.6,0-.2,0-.4,0-.7h-8.7ZM74,341.3c0,.2,0,.4,0,.5h10.9c0-.2,0-.4,0-.5h-10.9Z"/>
  <path class="cls-1" d="M1223.8,236c-.3-1.4-.4-2.9-.8-4.3-.4-1.2-1.3-2.2-1.5-3.4-.3-2-.9-4.6,2-5.2,3-.7,3.2,1.7,3.8,3.8.9,3.2,2.3,6.2,4.6,9.2-.2-1.9-.3-3.8-.6-5.7-.5-2.9-1.1-5.8-1.6-8.7-.4-2.5-1.3-5.4,2.4-6,3.3-.6,4.3,1.6,5.1,4.4.8,3,2.2,5.9,3.5,9.1,4.5-3.9,4.5-8.9,5.4-13.9,1.4.7,2.8,1,3.5,1.8,1.6,1.8,2.4,4.1,5.7,4.1,2.1,0,2.8,3.3,2.1,6.7,1,.1,2,.3,3.3.4,1.8,4.6-2.4,6.5-4.6,9.8.8.4,1.4.9,2,.9.7,0,1.5-.3,3.4-.7-1.2,1.9-1.6,3-2.5,3.7-5.3,4.3-10.6,8.4-15.9,12.7-1.2,1-2.6,2.5-2.7,3.8-.3,4.2-.1,8.4-.1,13,2.1.3,3.8.6,5.4.6,8.3,0,16.6,0,24.9,0,7.8,0,12.6-5.8,11.5-13.9-2.7-1-5.9-1.4-8-3.1-2-1.6-3-4.5-4.4-6.9-3.9-7-3-9.3,4.8-12-.5-2.1-1-4.2-1.7-7,3.6.4,6.3,1.4,7.1,4.7.7,2.5.7,5.2,1.6,7.7,1.8-2.5,1.2-5.2,1.2-7.8-.2-4.6-.4-9,4.7-11.5.9-.4,1.4-1.9,2.7-3.8,1.3,4.6,2.2,8.2,3.2,11.8-.3.2-.7.4-1,.6-1.2-.9-2.4-1.7-3.7-2.6-2.6,7.2-2,9.3,3.4,12,4.4-7.8,3.8-17.2,7.4-25.4,4.6.9,3.3,3.9,3.1,6.5-.2,2.6-.4,5.2.4,8,1.1-3.1,2.2-6.1,3.2-9.2,1-3.4,3.1-3.6,6.1-2,0,3.4,0,6.8,2.5,9.9,1.9,2.4,1.4,5.7-.7,8.3-2.5,3-5,6.1-6.9,9.8,3-2.1,5.9-4.2,9-6.4,1.8,1.9.9,3.3-.7,4.2-5.7,3.5-11.4,7.1-17.3,10.4-2.9,1.6-6.3,2.4-9.3,3.6-1.2,4.7-2.3,9.1-3.7,14.3,7.3.4,13.7.7,20.2,1,.1.4.2.8.3,1.3-2.1,1.4-4.2,3-6.4,4.3-2.2,1.2-4.8,1.9-6.8,3.3-4.5,3-9.4,3.6-14.6,3.4-17.9-.4-35.8-.9-53.6-1-37.5-.2-75-.2-112.5-.3-4.4,0-8.8.3-13.2.5,0,.5,0,.9-.1,1.4,2.6.2,5.2.5,7.8.6,18,1.1,36,2.2,54.1,3.3,11.2.7,22.5,1.5,33.7,2.5,13.3,1.2,26.6,2.7,39.9,3.9,6.4.6,12.8.7,19.1,1.1,1.8.1,3.7.3,6,1.6-2.1,1.6-4.1,3.3-6.3,4.7-3.6,2.2-7.3,4.3-11.2,6-1.8.8-4.1,1.2-6.1,1-6.8-.8-13.5-2-20.2-2.9-18.3-2.5-36.7-5-55-7.4-9.9-1.3-19.9-2.2-29.8-3.4-5.5-.6-10.9-1.4-16.4-2-1.3-.1-2.7.3-4.2,1.4,13.6,3,27.1,5.9,40.7,8.9,7,1.6,14,3.3,21.1,4.8,5.6,1.2,11.2,2.2,16.9,3.2,6,1.1,12.1,1.9,18.1,3.2,4.1.8,8.1,2.2,12.5,3.5-.5.7-1,1.7-1.8,2.4-8,6.2-16.2,8.8-26.5,5.2-9.3-3.2-19.4-4.2-29-6.5-9-2.1-17.9-4.6-26.9-6.8-4.5-1.1-9-2.2-13.6-3-2.3-.4-4.8,0-7.3,1,23.4,8.6,46.7,17.3,70.8,26.1-1.1,1.6-1.6,3.2-2.6,3.7-12.4,6.7-24.8,13.2-37.3,19.7-1.4.7-3.1,1.4-4.7,1.4-12.1.1-24.3,0-36.9,0-2.3-3.7-4.7-7.4-6.9-11.2-10.4-18.5-20.9-37-31.2-55.6-6.7-12.1-13.2-24.4-19.8-36.6-1.7-3.2-3.6-6.2-5.3-9.3-4.4-7.9-4.4-8,2.3-15.3,3.8,5.4,7.6,10.6,11.2,15.9,4.5,6.6,9.1,13.2,13.2,20,2.3,3.8,5.3,4.9,9.5,4.8,29-.8,57.9-1.4,86.9-2,20.4-.4,40.9-.8,61.3-1.3,8.3-.2,13.3-7.7,10.4-15.6-.2-.5-.8-.9-1.6-1.7-1.5.9-3,1.9-4.4,2.8-.5-.2-1.1-.4-1.2-.6-1.1-3-2.7-5.3-5.7-7.1-2.8-1.7-5-4.4-7.5-6.7.5-1.8,1.3-3.5,1.2-5.2-.1-1.4-1.3-2.8-2.4-5,4.6.3,5.4,3.6,6.6,6.2,1.5-1.5,2.7-2.8,3.9-4,.5,1.1,1,2.1,1.8,4,1.3-3.5-.5-3.6-2-3.9ZM1250.6,223.7c-.6,0-1.1,0-1.7,0,0,1.3.2,2.5.2,3.8.4,0,.8,0,1.2,0,0-1.3.1-2.5.2-3.8ZM1310.4,232.3c.3,0,.6,0,.8,0v-2.9c-.2,0-.5,0-.8,0v2.9ZM1301.2,233.3c-.5,0-.9,0-1.4,0,.1.9.2,1.7.3,2.6.3,0,.6,0,1,0,0-.8,0-1.7.1-2.5ZM1276.7,240.7c-.7,1.1-1.1,1.5-1.1,1.6.3.5.8.9,1.2,1.4,0-.8,0-1.5-.2-3Z"/>
  <path class="cls-1" d="M510.5,139.9c-8.5.2-16.5,3.5-24.7,5.1-4.2.8-8.3,1.8-12.4,2.6-10.1,2.2-20.3,4.2-30.4,6.5-4.9,1.1-9.8,2.6-14.7,3.7-1.5.4-3.6.9-4.7.2-10.5-6.5-22.3-10-33.5-14.9-2.7-1.2-5.3-2.6-8.2-4,.6-3.4.9-6.5,1.7-9.5.6-2.5,3.3-3.7,6.3-2.7,11.4,3.7,22.7,7.6,34.1,11.5.3,0,.4.7,1,1.8-7.2.4-14,.8-20.8,1.1,0,.3-.2.6-.2.9.8.5,1.6,1.2,2.4,1.4,2.5.4,4.8-.5,7.7,1.4,2,1.4,6.4-.3,9.6-1.1,4.5-1.2,8.8-2.1,12.3,2.1.3.3.9.7,1.1.6,3.9-2.6,6.8,1.6,10.2,1.4,2.1-.1,4.2-1.9,6.9-3.2,3.3,4.1,8.5-3,12.9.7,3.9-3.2,9.3-1.1,14.5-3.8-1.9-.9-2.8-1.7-3.8-1.7-3.8,0-7.6,0-11.5.1-4.2,0-8.3,0-12.4-1.6-4.2-1.7-9-2.1-13.6-3-9.7-2-19.5-3.9-29.2-6-7.5-1.6-14.9-3.5-22.4-6,3.1-2.8,6.6-1.8,9.9-1.3,10,1.6,20,3.6,30,5.2,11.7,1.9,23.5,3.4,35.2,5.3,7.9,1.3,15.8,3.1,23.7,4.4,5.2.8,10.5,1.4,15.6-1.3,1.6-.8,3.8-.5,5.6-1.1.9-.3,1.4-1.6,2.1-2.5,6.1,1.3,11.1-2.6,16.7-3.8-.7-.6-1.5-1-2.1-.9-4.5,1-9,2.1-13.4,3.3-.4.1-.7,1-1,1.5-3.9.4-7.9.8-11.3,1.1-6.5-1.2-12.6-2.5-18.9-3.3-10.1-1.3-20.3-2-30.4-3.3-9.4-1.2-18.8-3-28.1-4.4-2.3-.3-4.7-.2-7-.4-7.1-.8-14.2-1.8-21.4-2.7-.3,0-.5-.6-1-1.2,1.6-2.6,4.6-2.5,7-3.3,3.4-1.2,6.9-2.3,10.4-3,3.4-.7,4.6-2.5,4.5-5.8-.1-5.7,0-11.5,0-17.6,5.6-.9,5.9-4.7,5.8-9.3-.2-13.6-.1-27.3-.1-40.9,0-1.3.5-3-.1-3.8-4.4-5-1-9.6.6-14.7,3.9-.4,5.7-2.6,6.2-7,.5-5.3,2.6-10.4,8.7-12.8,7.4,3.2,9.5,9.6,8.9,17.6,2.3.8,4.5,1.6,6.2,2.2,1.3,2.6,2.6,4.9,3.4,7.4.4,1-.1,2.4-.5,3.6-.6,1.9-1.9,3.8-1.9,5.7-.2,15.1-.1,30.2,0,45.4,0,1.5.4,2.9.7,4.6,2.3.6,4.5,1.2,7.4,2v22.9c9.3,1,17.9,2.2,26.5,2.7,5.3.3,8.7,2.4,10.8,7.7-6.1,1.4-11.9.6-17.7.3-5.9-.3-11.7.6-17.7-1-5.5-1.4-11.6-.9-17.4-.7,20.5,4.8,41.8,3.3,62.6,8.7,3.3-1.6,7.1-3.3,10.8-5.4,5.1-2.9,10.3-1.4,15.5-.6.8.1,1.5,1.4,2.2,2.2-1.6-.2-3.3-.9-3.9,1.9,1.3-.7,2.5-1.3,3.8-2,5.7,0,11.4-.3,17.1.2,5.7.5,10.9,2.6,14.7,7.3-1.8.4-3.7.7-5.5,1.1,2.2.9,4.7,2.4,5.4-1.2,2.8.7,5.7,1.2,7.9,4.8-4.5,1.1-8.7,2-12.8,3.1-5.1,1.3-10.2,2.7-15.3,4-10.5,2.6-21,5-31.4,7.6-8.4,2.1-16.7,4.5-25,6.7-4.1,1.1-8.2,1.9-12.4,2.9-8.8,2-17.7,3.8-26.5,5.9-15.8,3.8-31.6,7.7-47.3,11.6-5.1,1.3-10.1,2.9-15.3,4.1-2,.4-4.3.3-6.2-.2-13.1-3.6-26.1-7.4-39.5-11.2-.7-3.5.6-6.4,3.8-8.7,11.3,3.2,22.9,6.5,34.4,9.8,1.2.3,2.3,1,3.5,1.6,8.4,4,16.8,2.8,25.3,0,5.4-1.7,10.9-3.1,16.4-4.6,6.3-1.7,12.5-3.2,18.8-4.8,3.9-1,7.7-1.9,11.6-2.9,9.6-2.5,19.1-5,28.7-7.5,12.3-3.1,24.6-6.1,36.9-9.2.3,0,.6-.5,1.4-1.3-2.1-.1-3.7-.5-5.1-.2-5,1-9.9,2.2-14.8,3.3-6.3,1.5-12.6,3-18.9,4.6-5.3,1.3-10.5,2.9-15.7,4.2-5.1,1.3-10.3,2.2-15.4,3.4-5.3,1.3-10.6,2.7-15.9,4-1.4.4-2.9.6-4.3.9-2.4.6-4.8,1.5-7.2,1.9-3.3.5-6.7.6-10.1.9,0,0,.2.2.2.2-2.6-1.7-5.1-3.9-7.9-4.9-10.7-3.9-21.6-7.3-32.3-11-1.9-.7-3.5-2-5.8-3.4,3.6-3.1,6.7-3.4,10.4-2,12.7,4.7,25.4,9.2,38.4,14-.6,1.5-1,2.7-1.6,4.4,2.6,0,4.8.4,6.7,0,8.3-2.2,16.5-4.9,24.8-7,8.6-2.2,17.3-3.9,25.9-5.9,3.5-.8,6.8-2.1,10.2-3,7.2-1.8,14.4-3.4,21.5-5.4,1.3-.4,2.3-2,3.5-3.1q6.2.5,9.3-1.5c-3.5-.7-6.5-.6-9.2,1.6ZM440.7,39.5c-.3,0-.6,0-1,0-.7,12.9-1.4,25.8-2.2,38.7-.5,9.1.9,10.4,10.1,9.1.6,0,1.1-.6,1.6-1,1.8-12.3-1.2-24.1-4.1-36-.6,10.6-1.3,21.2-1.9,31.9-.3,0-.6,0-.9,0-.6-14.2-1.1-28.3-1.7-42.5ZM451.8,92c-.5,0-.9-.1-1.4-.2-1.2,5.9-2.6,11.8-3.5,17.7-.5,3.5.4,4,4.9,3.3v-20.8ZM442.2,113.8c4.7-2.5,2.4-6.5,2.4-9.9,0-3.8-.7-7.6-1-11.4-2.1,7.1-2.5,14.1-1.4,21.3ZM526.5,141.6l.2,1.8c2.8-.3,5.6-.6,8.3-.9v-1.4c-3-1.1-5.8-.9-8.5.5ZM441.2,10.7c-2.8-.4-3.7,1.2-3.8,3.2,0,2.1.9,3.6,3.8,3.2v-6.4ZM432.9,11.1c-.5,0-1,0-1.4,0v6.4c.5,0,1,0,1.4,0v-6.4ZM545.7,139.7c0-.6,0-1.1-.1-1.7l-6.1.5c0,.4,0,.8,0,1.3h6.2ZM550.9,136c0,.5.1,1,.2,1.4,1.7-.1,3.5-.3,5.2-.4,0-.3,0-.7,0-1h-5.3ZM525.2,135.9c2,1.5,3.9,1.9,5.5-.4-1.8.1-3.6.3-5.5.4ZM536.7,133.3c0,.5,0,1,0,1.5,1.6,0,3.2-.2,4.8-.3,0-.4,0-.8,0-1.2h-4.7Z"/>
  <path class="cls-1" d="M1842.8,356.2c-2.7-.8-3.2,1.4-4.2,3-2.1,3.5-5,4.5-9.1,4.5-15.3-.2-30.6,0-46-.2-2.6,0-5.3-1.1-7.8-2-.9-.3-1.6-1.8-1.7-2.8,0-.6,1.2-1.7,2-2,7.6-2,15.2-3.6,22.8-5.7,7.1-1.9,14.1-4.2,21-7.3-2.7.1-5.3,0-8,.4-3.1.4-6.2,1-9.4,1.5-10,1.6-20.1,3.1-30.1,4.8-7.8,1.3-15.2,1.7-21-6.4,21.3-2.6,42.3-5.2,63.3-7.8,0-.6,0-1.1,0-1.7-1.4-.2-2.9-.6-4.3-.5-21.5.9-43,1.5-64.4,2.9-8.1.5-13.6-2.9-19.1-8.9,1.6-.3,2.5-.6,3.5-.6,25.5.5,51.1,1,76.6,1.4,2.5,0,5.5,1.2,8-2.6-2-.6-3.4-1.3-4.9-1.3-4.5-.3-8.9-.3-13.4-.5-15.7-1-31.3-2-47-3.1-10.2-.7-20.3-1.8-30.5-2.2-5.2-.2-10-1.3-14.4-4.2-2.3-1.5-4.9-2.3-7.2-3.8-1.2-.8-1.9-2.3-2.9-3.5.2-.4.5-.7.7-1.1,10.1,1.4,20.1,2.8,30.2,4.2.6,0,1.3.2,1.9.3,11.8,1,23.7,2,35.5,3,10.4.9,20.8,1.4,31,3,15.7,2.5,31.5,4.3,47.4,5.3,9.7.7,19.3,2.8,29,3.9,11.2,1.3,22.4,2.3,33.6,3.5,5,.6,10.1,1.4,15.8,2.2.9,10.6.9,20.8-.3,31.3h-14.4c-.2-4.2,4.3-5.4,5.2-8.8-4-3.6-4.9-3.6-7.9.1-.9,1.1-1.7,2.5-2.6,3.6-4.3,5.6-4.7,5.7-12.6,4.9-1.7-4.9,5.7-5.9,4.6-10.5-3.7-1.1-5.5,2-6.4,3.9-3.3,7.4-8.8,8.1-16.5,6.4,2.5-3.7,4.8-7.1,7.1-10.4-.2-.3-.4-.7-.6-1-1.2.4-2.6.5-3.5,1.3-1.3,1.1-2.5,2.5-3.2,3.9-3.1,6.5-8.3,7.9-15.6,6.2,2.5-3.7,4.8-7.2,7.2-10.7-.3-.3-.5-.6-.8-.9-1.2.5-2.7.7-3.5,1.6-1.3,1.3-2.4,2.9-3.2,4.6-2.5,5.7-6.8,7.1-12.9,5.5.8-2.4,1.6-4.6,2.4-6.9,3.2,0,2.5-2.2,3.1-4.7-3.2,1-3.9,2.5-3,4.9Z"/>
  <path class="cls-1" d="M459.8,282.1c4.8,2.4,9.5,5,14.5,7.2,11.6,5,23.3,9.7,34.9,14.6,16.1,6.8,32.3,13.4,48.4,20.3,14,6,27.8,12.4,41.8,18.3,13.6,5.7,27.3,11,40.9,16.6,1.7.7,3.1,2,4.4,3.7-9.8,0-19.5,2.4-29-2.3-12.4-6.2-25.2-11.7-37.7-17.6-14.1-6.6-28.2-13.4-42.3-20.1-8.6-4-17.3-7.7-25.9-11.8-12.6-5.9-25.2-12-37.8-18-6.1-2.9-12.2-5.7-18.3-8.5-.8-.4-2,.1-3.6.3,2.7,4.2,5,7.9,7.5,11.5,4,5.9,8.4,11.6,12.2,17.7,3.5,5.7,8.4,9.9,13.4,14,9.4,7.8,18.6,15.9,27.9,23.8,2.7,2.3,5.5,4.6,8.1,7,1,.9,1.7,2.2,3,4-7.4,1.4-12.9.8-17.4-5.2-4-5.3-8.8-9.9-13.6-14.5,1.5,7.5,8.6,12,10.2,19.5-9.1,1.7-9.9,1.1-14.5-5.9-9.7-14.8-19.6-29.4-29.3-44.2-8-12.1-15.9-24.3-23.9-36.5-6.3-9.7-6.4-9.6-16.8-13-14.6-4.8-29.2-9.8-43.8-14.8-9.4-3.2-18.9-6.3-28.4-9.5-11.8-4-23.5-8.2-35.2-12.3-2.1-.7-4.4-1.3-7.6-2.3,5.5-3.1,10.2-1.9,14.6-.5,9.8,3,19.6,6.4,29.4,9.6,12.7,4.2,25.3,8.5,38,12.6,6.4,2.1,12.9,3.9,19.4,6,9.9,3.3,19.9,6.7,29.7,10.2,12.4,4.4,24.7,8.9,37,13.5,20.7,7.7,41.4,15.5,62.1,23.1,16.1,5.9,32.2,11.6,48.3,17.6,17.2,6.4,34.3,13.1,51.4,19.5,11.5,4.3,23,8.3,34.5,12.5,9.9,3.6,19.8,7.2,29.6,11,1.7.6,3.2,1.9,4.6,3.4-7.9,0-15.6,1.7-23.5-1.4-17.1-6.6-34.4-12.5-51.5-18.9-10.1-3.8-20.1-8-30.2-11.8-11-4.2-22.2-8-33.2-12.1-15.8-6-31.5-12.3-47.3-18.2-10.4-3.9-21-7.4-31.5-11.2-5.5-2-10.9-4.3-16.5-6.1-2.3-.8-4.9-.7-7.3-1q-2-2.5-4.9-1.5c1.9.5,3.5.9,5.1,1.3Z"/>
  <path class="cls-1" d="M1387.5,225.5c4.2,2.7,4.4,5.2.6,8-2.8,2.1-5.7,4.2-8.6,6.3l.7,1.3c2.8-1.3,5.6-2.7,8.6-4.1,1,2.3,0,3.6-2,4.5-7.7,3.5-15.3,7.2-23.1,10.3-4,1.6-6.4,3.5-6.9,8-.4,3.4-1.4,6.6-2.1,10-.9,4.5-3.6,7.5-7.7,9.5-14.4,7-28.7,14-43,21.2-18.1,9.1-36,18.6-54,27.7-18.8,9.5-37.7,18.9-56.6,28.3-1.3.7-2.4,1.7-3.7,2.3-6.9,3.7-14,5.6-22,4.9-5-.5-10.1,0-15.7-1.3,1.6-1.1,3-2.6,4.7-3.4,14.2-6.9,28.4-13.7,42.6-20.4,13.5-6.5,27.1-12.8,40.6-19.3,21.6-10.4,43.2-20.9,64.8-31.4,8.1-3.9,16.3-7.9,24.6-11.5,3-1.3,6.4-2.1,9.7-2.4,4-.3,6.5-1.7,8.2-5.6,2.2-5.1,4.7-10,2-16-5.2.6-9.4-1.1-12.8-5.2-1.6-1.9-3-3.6-2.5-6.1l-.2.2c2.9-2.2,2.6-4.9,1.4-7.9-.7-1.8-1.1-3.8-1.6-5.7.4-.2.8-.4,1.1-.5,3.1,4.3,6.2,8.6,9.3,12.8.4,1.1.9,2.2,1.3,3.3,1.3-2.2.9-3.5-1.5-3.1.6-5.8-3.3-10-5.8-14.4-2.2-3.9-2.5-6.8-.3-10.5.8-1.4,1.3-3,2.1-5,3.7,3.2,3.6,7.5,4.5,11.4,1,4,2.5,7.8,4.6,11.7.2-1.3.7-2.6.6-3.9-.6-6.6-1.4-13.1-2-19.6-.1-1.5,0-3.7.8-4.6,1.9-1.7,3.3.4,4.9,1.4,2.8,1.9,2.5,4.7,2.3,7.5-.6,7.4.5,14.4,5.6,20.5,4.7-2.3,4.5-7.5,6.7-11.1,1.6-2.6,2.2-5.9,3.4-8.7,1.3-3.1,3.6-3.4,8.9-1.3-2.4,5.8-7,10.5-9.3,16.4l1.2.8c4.2-5.2,8.4-10.4,12.4-15.5,6.9,3.6,7,3.7,3,10.7-1,.4-2,.9-3,1.3,2.1,1.2,2.8.3,2.8-1.4Z"/>
  <path class="cls-1" d="M1445.3,319.1c3.9.3,7.4-.3,11-2.1,3.5-1.7,7.7-2.2,11.6-3,4.9-1.1,9.9-1.9,14.9-3,1.4-.3,2.6-1.5,4-1.6,1.2-.1,2.4.6,3.6,1-.8,1-1.4,2.5-2.5,3-2.1.9-4.5,1.1-6.8,1.7-8.8,2.2-17.5,4.4-26.2,6.7-4.3,1.1-8.6,2.1-12.7,3.6-4.8,1.7-9.4,3.3-14.6,1.4-1.6-.6-3.8.1-5.5.7-11.8,4.2-23.5,8.5-35.2,12.9-13.2,4.9-26.4,9.9-39.5,14.8-7.3,2.7-14.7,5.3-22,8-.8.3-1.7.4-2.5.4-15.5,0-31,0-47.4,0,1.9-2.6,4-3.5,6-4.1,13.2-4.4,26.3-8.8,39.5-13.1,12.1-3.9,24.3-7.6,36.3-11.6,11.8-3.9,23.6-8.2,35.4-12.2,3.8-1.3,7.7-2,11.5-3.4,2.3-.9,5-2.1,6.1-3.9,1.4-2.5,4.4-5.1,2-9.1-6.1.8-9.8-2.8-12.1-8.3v.2c1.3-.9,2.7-1.8,3.7-2.5-.3-3.6-.6-6.6-.9-10.3,2.1.6,3.3,1,4.5,1.4.5-2.5,1-4.6,1.6-7.1,4.4,2.3,4.2,6.1,4.6,9.5q.5,4.6,4.2,7.2c3.2-5.8.2-13.4,5.4-19.9.9,2.9,1.4,4.7,2.4,8,.7-3.6,1.1-5.7,1.5-7.9,5.5,2.2,8.5,10.4,5.8,15,.8.6,1.6,1.2,2.3,1.8-.4.8-.4,1.3-.7,1.5-4.6,3-9.3,5.9-13.9,8.8-3.4,2.1-5.4,4.8-3.8,9.5,1,.1,2.3.7,3.3.4,13.2-4,26.2-8.3,39.4-12.3,8.9-2.7,17.9-4.9,26.9-7.3,1.5,2,1.4,3.1-1,3.9-11.6,3.4-23.2,7-34.7,10.5-8,2.5-16,5.1-24,7.6-2.1.6-4.2,1-7.7,1.8,3.8,2.4,6.6,1.7,9,1,4.6-1.3,9.1-3.2,13.7-4.4,4.9-1.3,10-1.9,14.9-3.1,4.5-1.1,8.8-2.9,13.3-4.1,4.9-1.4,9.8-2.6,14.8-3.8,1-.2,2.2.2,3.4,1.4-.8.4-1.7,1-2.5,1.2-9.6,3-19.2,6.5-29.1,8.4-3.3.6-6.5,1.6-9.7,2.7-.6.2-.9,1.6-1.3,2.4-3.5.5-7.6-1.6-10.3,2.4-2.3.3-4.7.5-7,.8,2.8,1.8,5.2,1.9,6.9-.9,3.5-.3,7.6,1.4,10.3-2.4ZM1410.1,291c-.5,0-1,0-1.4.1.2,1.2.3,2.4.5,3.6h1v-3.7Z"/>
  <path class="cls-1" d="M479.3,225.4c-2.6,1.4-3.7-1.2-4.6-2.3-8.5-10.1-16.7-20.4-25.5-31.1,5.1-.9,6,3.2,8.3,5.1,2.5,2.1,4.7,4.5,7.9,7.7-.5-4.5-3-6.3-4.3-8.7-1.1-2-5.4-2.9-2.2-7.2,3.7,4.1,7.2,8,11.2,12.4.6-2.1,1.1-3.6,1.5-5.2l-.2.2c2.1,2.4,4.2,4.8,7.3,8.4-.7-7.6-5.8-11.8-7.3-17.6,4.4,0,4.9,4.1,6.9,6.3,1,1.1.9,3.5,3.4,2.9-.5,1.9-.6,3.7,1.7,4.8q.4-3.3-1.8-4.7c-.7-3.5-1.5-7-2.2-10.5.4-.2.7-.4,1.1-.5,1.8,2.6,3.6,5.2,5.6,8.2,1.5-3.2,2.9-6.3,4.7-10,2,3.5,3.7,6.7,5.5,9.8.3,0,.6-.2.9-.2-.6-3.9-1.3-7.9-1.9-11.8.4-.2.8-.4,1.2-.5,1.8,2.8,3.5,5.6,5.1,8.1q1.2-2.8-.9-7.9c1.3.1,2.5.6,3.3.3,1.1-.4,2-1.4,3.6-2.6.3,1.9.6,3.4.8,4.9-1,1.1-3.3,1.7-.8,4.3.3-1.8.5-3.2.7-4.5,1.3-1.8,2.6-3.6,3.9-5.4,2.8-.3,5.7-.7,9-1.1.1.2.7.8,1.4,1.7,1-1.1,1.9-2.2,2.9-3.4,1,1.2,1.7,2.2,2.5,3.2.4,0,1-.1,1-.3.6-3.8,7.5-2,6.3-7.6-1.1-.1-2.5-.7-3.5-.3-6,2.4-12.9,1.4-18.6,4.9-.5.3-1.1.6-1.8.7-9.5,1.8-19.1,3.3-28.6,5.3-9.1,1.9-18.1,4.2-27.1,6.3-10.1,2.3-20.2,4.5-30.3,6.9-5.5,1.3-10.9,3.1-16.4,4.3-6.3,1.4-12.6,2.3-18.9,3.4-.1-.5-.2-1.1-.4-1.6,64.8-17.4,129.5-34.8,193.8-52.1.9.5,1.3.7,1.6,1,4.9,5.4,4.2,6-1.4,9.4-28.8,17.9-57.7,35.5-86.6,53.3-4.7,2.9-9.3,5.8-14,8.7-1.9,1.2-4.1,2.3-4,5.1,0,0,.2-.2.2-.2ZM541,176.6c1.2-2.8,1.9-4.3,2.6-6,1.3,1.1,2.4,1.9,4,3.2.2-2.7.4-4.4.7-7-3,.5-5.3.9-8.1,1.4.3,2.7.5,4.7.8,8.4ZM555.8,165.9q-4.8-1.1-3.7,3.4c1.3-1.2,2.3-2.1,3.7-3.4Z"/>
  <path class="cls-1" d="M270.6,224.7c8.5-3.1,14.9,0,21.3,1.8,9.7,2.8,19.1,6.4,28.7,9.7,9.8,3.4,19.6,7,29.4,10.3,6.2,2.1,12.5,3.8,18.8,5.9,9.5,3.2,19,6.5,28.6,9.7,6.2,2.1,12.4,4.3,18.8,5.9,4.2,1.1,7.1,3.2,9.3,6.9,10.4,17.6,21,35,31.5,52.6,6.3,10.5,12.6,21,18.8,31.6.6,1,.5,2.4.9,4.4-4.6,0-8.9.6-12.9-.2-2.2-.5-4.5-3.1-5.8-5.3-9.4-16.7-18.5-33.6-27.7-50.4-4.3-7.9-8.7-15.9-13.2-23.7-2.4-4.1-5.5-7.1-10.4-8.6-12.3-3.9-24.4-8.3-36.6-12.6-14.7-5.2-29.4-10.3-44-15.7-11.3-4.1-22.5-8.6-33.9-12.8-6.1-2.2-12.4-4-18.5-6.2-1-.4-1.7-1.7-3.2-3.2Z"/>
  <path class="cls-1" d="M923.6,353.4c1.6-2.6,3.6-5.1,4.8-7.8,7.2-16.8,14.4-33.7,21.4-50.7,6.4-15.3,12.6-30.7,18.8-46.1,2.2-5.5,6.3-7.5,13-7.7-17.8,41.2-35.6,81.5-53.7,122.2-3.9-.2-7.8-.5-12.5-.7-1.6-3.6.4-7.9,1.1-12,1.2-6.6,3-13.2,4.5-19.8,1-4.5,2-9,3.1-13.5,3.1-12.5,6.4-24.9,9.5-37.4,2.7-10.9,5.1-21.9,8-32.7,1.7-6.4,10.2-9.3,15.8-5.8,3.4,2.1,4.2,4.4,2.8,8.1-7,19-14,38-21,57.1-4.9,13.4-10,26.8-14.8,40.2-.8,2.1-.5,4.6-.7,6.9-3.3.5-2.8,2.4-.9,4.7.2-1.6.5-3.3.7-4.9Z"/>
  <path class="cls-1" d="M1373.5,291.4c-11.7,5.6-23.2,11.1-34.8,16.6-23.9,11.4-47.8,22.9-71.8,34.2-14.4,6.8-29,13.4-43.5,20.1-1.1.5-2.4,1.1-3.6,1.1-9.5,0-19.1,0-29.4,0,3.1-4.7,8-5.4,11.9-7.2,17-8,34.1-15.6,51.1-23.3,10.2-4.6,20.4-9.1,30.6-13.6,13.5-6,26.9-12.2,40.3-18.2,10.4-4.7,20.8-9.2,31.2-13.8.6-.3,1.3-.3,1.8-.6,8-3.6,9.8-3.2,16.1,4.7Z"/>
  <path class="cls-1" d="M230,262.2c4.3-7.4,5.3-7.6,12.3-5.2,11.2,3.8,22.4,7.3,33.6,11.2,12,4.1,23.9,8.6,35.9,12.7,9.1,3.1,18.3,5.9,27.5,9,8.8,2.9,17.5,6,26.3,9,.8.3,1.6.8,2.4.9,7.5.7,9.6,5.5,10.2,12.2.5,5.4,2.1,10.8,3.3,16.1,1.4,6.6,2.8,13.3,4.3,19.9.3,1.4.5,2.9,1.1,4.3,1.8,4.8,1.9,4.8,1,10.9h-9.8c-1.6-6.5-3.3-13.1-4.8-19.6-2.2-9.5-4.2-19-6.3-28.5-.8-3.6-3.3-5.7-6.8-6.9-12.4-4.3-24.8-8.6-37.2-13-11.5-4-22.9-8.2-34.4-12.2-10.8-3.8-21.6-7.6-32.4-11.4-8.6-3-17.1-6.1-26.1-9.3Z"/>
  <path class="cls-1" d="M1722.3,362.9c-7.6,1.8-13.1-.1-18.5-2.8-16.6-8.3-33.1-16.5-49.7-24.9-6.6-3.3-13.1-6.7-19.7-10-1.3-.6-2.7-.9-4.1-1.3-.9,5.3.8,9.2,4.9,11,16.7,7.1,33.3,14.2,50,21.4,4.1,1.8,8.1,3.9,11.9,6.4-12.3,1.3-24.3,1.7-35.5-4.9-7.6-4.4-15.8-7.8-23.7-11.5-.7-.3-1.6,0-2.6,0-.4,4.1,2.4,5.7,4.9,6.9,4.7,2.2,9.8,3.8,14.6,5.8,2.2.9,4.3,2.1,6.2,3.8-5.8.6-11.3,1.9-16.9-.4-1.5-.6-3.6,0-5.4.2-1.8.3-3.6.9-5.5,1.3-4.6-5.4-4.5-12.1-6.4-18-3.6-11.4-6.9-23-10-34.6-2.1-7.7-3.9-15.6-5.8-23.4,5.6-.5,9.4,2,10.5,6.6,1.9,7.6,3.7,15.2,5.8,22.8.4,1.6,1.5,3,2.1,4.2.9.1,1.4.4,1.7.2,5-4.1,9.7-2.2,14.7.4,23.7,12.4,47.5,24.6,71.3,36.9,1.6.8,3,2.1,5.4,3.9Z"/>
  <path class="cls-1" d="M258.6,235.4c4.4-4.9,8.7-2.2,12.4-1,15.5,5,30.9,10.5,46.3,15.8,25.4,8.7,50.7,17.4,76.1,26.2,3.2,1.1,6.3,2.3,9.5,3.4,3,1,5.1,2.9,6.4,5.8,5.5,13,10.8,26,16.4,38.9,4.8,11.3,9.9,22.4,14.8,33.7.6,1.4.9,2.9,1.3,4.5-9.5,1.8-10,1.4-13.5-6.8-8.8-21.1-17.8-42.2-26.5-63.4-1.6-3.8-4.1-6.4-7.8-7.7-12.6-4.5-25.2-8.8-37.7-13.4-12.1-4.3-24.1-8.9-36.2-13.2-11-3.9-22-7.4-33-11.2-7.8-2.7-15.6-5.5-23.3-8.5-1.7-.7-3.2-2-5.1-3.1Z"/>
  <path class="cls-1" d="M414.7,363.6c-3.1,0-5.4,0-7.7,0-5.5,0-6.2-.8-7.6-6.4-2.4-9.2-5-18.3-7.4-27.5-1.3-4.9-2.3-9.8-3.6-14.7-1.1-4.3-2.2-8.5-3.6-12.7-.9-2.6-2.3-4.5-5.4-5.5-14.4-4.8-28.6-10.1-42.8-15.3-11.1-4.1-22.2-8.4-33.3-12.5-5.3-2-10.7-3.8-16.1-5.7-11.5-4.1-23-8.1-34.5-12.2-2.2-.8-4.4-1.5-7-2.4.8-1.5,1.3-3.3,2.3-3.7,1.4-.6,3.4-.4,4.8,0,11.4,3.8,22.6,7.9,34,11.8,11.6,3.9,23.2,7.5,34.8,11.5,11.8,4,23.5,8.4,35.3,12.4,6.7,2.3,13.6,4.4,20.4,6.6,3.4,1.1,6.9,1.9,10.2,3.3,3,1.2,4.8,3.6,5.8,7,3,9.9,6.4,19.7,9.9,29.5,3.7,10.5,7.7,21,11.5,31.5.5,1.3,0,2.9,0,5.1Z"/>
  <path class="cls-1" d="M1235.7,362.6c2.5-4.2,7.4-4.4,11.2-6,14.1-6.1,28.5-11.5,42.8-17.3,16-6.5,31.9-13.2,47.9-19.8,15.2-6.3,30.4-12.5,45.6-18.7,2.7-1.1,5.3-1.4,7.8.5,2.3,1.8,4.7,3.4,7.9,5.8-3.3,1.6-5.7,3-8.2,3.9-10,3.8-20.2,7.3-30.1,11.2-11.4,4.4-22.6,9.3-34,13.7-17.4,6.9-34.9,13.6-52.4,20.4-2.7,1.1-5.6,2-8.1,3.4-9.5,5.2-19.7,3.8-29.9,3.6-.1,0-.2-.3-.5-.7Z"/>
  <path class="cls-1" d="M368.7,195.1c-9.5-6.5-21.2-7.4-31.2-12.2.4-5.6.9-6.3,5.3-5.1,7.8,2.1,15.5,4.6,23.1,6.9,3.8,1.2,7.7,2.4,11.4,3.8,4.3,1.5,8.5.4,12.6-.5,10.9-2.5,21.7-5.6,32.5-8.4,12.1-3.2,24.2-6.5,36.3-9.5,12.3-3,24.6-5.7,36.9-8.7,8.2-2,16.3-4.5,24.4-6.6,3.9-1,7.8-1.8,11.8-2.7,12.2-2.9,24.3-5.9,36.5-8.9,2.6-.7,5.1-2.1,7.7-2.7,1.4-.4,3.1.1,5.2.3-1.3,3.8-4.1,4-6.3,4.6-14.9,3.9-29.9,7.6-44.8,11.6-11.6,3.1-23.1,6.6-34.7,9.7-18.6,4.9-37.3,9.5-56,14.3-13.3,3.5-26.6,7.1-39.9,10.6-10,2.6-20,5.2-29.9,7.8-3,.8-6.1,2.3-9.1,2.1-3.7-.3-7.3-1.9-10.8-3.1-4.6-1.5-9.1-3.3-13.7-4.5-2.2-.6-3.7-1.4-3.3-3.7.4-2.6,2.5-2.6,4.4-2.1,5.2,1.5,10.4,3.4,15.7,4.6,5.2,1.2,10,4.8,16.1,2.5Z"/>
  <path class="cls-1" d="M928.7,246.7c0,2.8.2,4.3,0,5.7-1.3,7.5-2.7,14.9-4.1,22.4-.2.8-.5,1.6-.6,2.5-2.9,19.7-5.6,39.5-8.6,59.2-1,6.9-2.3,13.8-3.7,20.7-.4,2-1.2,4-1.8,5.8-7,.7-8.2-.5-7.6-6.6,1-9.7,1.6-19.5,2.6-29.2.7-7.8,1.8-15.6,2.4-23.5,1.1-14.6,2-29.3,2.9-43.9.5-8,.6-8.1,8.5-10.2,3-.8,6-1.8,9.9-2.9Z"/>
  <path class="cls-1" d="M1492.9,321.1c-16.2,3.9-32.4,7.8-49.8,12.1,3.3,2.1,5.7,1.4,7.7,1,5.6-1.2,11-2.9,16.6-4,7.3-1.4,14.6-2.5,21.9-3.6,1.2-.2,2.6.3,3.9.5,0,.5.1,1,.2,1.5-4.3,1.1-8.6,2.3-12.9,3.3-9.5,2.1-19.1,4.1-28.6,6.2-1.2.3-2.5.8-3.5,1.4-7.5,4.7-16.3,5.7-24.3,8.7-9.8,3.6-19.8,7-29.8,10-9,2.7-17.8,6.5-27.8,5.6-7.1-.6-14.4-.1-22-1.1,1.7-1,3.2-2.3,5-2.9,6.8-2.1,13.7-4,20.6-6,6.6-2,13.3-4,19.9-6.1,3.8-1.2,7.5-2.7,11.4-3.9,9.7-3,19.4-5.9,29.2-8.8,1-.3,2.4-.3,3-1,4.7-6.1,11.8-5.5,18.2-7.1,5.3-1.3,10.6-2.9,15.9-4.1,7.4-1.6,14.9-2.9,22.5-4.2.9-.2,2,.8,3,1.2,0,.5,0,.9,0,1.4Z"/>
  <path class="cls-1" d="M1096.7,363c-9.8,2.2-14.7-1-19.1-9.1-13.2-24.3-27.6-47.9-41.5-71.7-3.4-5.8-6.9-11.6-10.3-17.4-1.5-2.6.1-8.1,3-9.1.9-.3,2.8.7,3.5,1.6,3.8,5.6,7.5,11.2,11.1,17,11.8,19.2,23.6,38.4,35.4,57.5,5.4,8.8,10.9,17.5,16.2,26.4.8,1.3,1.1,2.9,1.7,4.8Z"/>
  <path class="cls-1" d="M1077.7,363.5c-5.6,0-10,.7-13.9-.2-2.4-.6-5-3.1-6.4-5.5-10.3-16.9-20.3-34-30.5-50.9-4.1-6.8-8.3-13.7-12.8-20.2-2.4-3.5-2.8-6.4.1-9.6,1.2-1.4,2.2-2.9,3.9-5.1,10.4,15.6,20.6,30.4,30.3,45.6,9.5,15,20.2,29.2,29.3,45.9Z"/>
  <path class="cls-1" d="M941,363.2h-8.4c-.3-4.9,2.7-8.2,4.5-11.8,7.7-15.5,15.8-30.8,23.7-46.2,10.5-20.6,21.2-41.1,31.3-61.8,1.9-3.9,4.8-5.1,8.2-6.1,1-.3,2.8,0,3.4.8.6.7.5,2.5,0,3.4-2.8,5.9-5.7,11.7-8.7,17.5-4.1,7.8-8.3,15.5-12.3,23.3-7.7,15-15.4,30-23.1,45-5.1,9.9-10.1,19.9-15.2,29.8-1.1,2.1-2.3,4-3.5,6.1Z"/>
  <path class="cls-1" d="M878.9,363.3c-.9-5.7-1.9-11.3-2.6-16.9-1.9-16-3.7-32-5.5-48-1-9.3-1.8-18.6-2.9-27.9-.9-7.3.9-10.9,11.9-10.2.2,1.9.5,4,.6,6,1.8,20.5,3.6,41,5.3,61.5.9,10.2,1.8,20.3,2.6,30.5.3,4.1-.5,5-4.4,5.2-1.5,0-2.9-.1-5.1-.3Z"/>
  <path class="cls-1" d="M947.3,363c-.4-5.9,3.7-9.8,6.1-14.2,6.9-12.7,14.6-25.1,21.9-37.6,12.4-21.3,24.8-42.5,37.2-63.8,1.7-2.9,3.2-5.9,4.9-8.8,2.5-4,6-5.7,11.2-4.1-1.4,6-5.3,10.5-8.1,15.5-13.5,23.3-27.2,46.4-40.9,69.6-7.9,13.4-16,26.7-23.9,40.1-2,3.3-4.4,5-8.4,3.5Z"/>
  <path class="cls-1" d="M1607.6,363.2h-10c-1.6-3.8-3.7-8.1-5.3-12.6-5.4-15.3-10.8-30.6-16-45.9-2-6-3.8-12-5.8-18-.7-2.2-1.8-4.3-2.5-6.4-1.1-3.4-.4-4.7,2.9-5.7,1.2-.4,2.5-.5,3.7-.7,4.5-.8,4.9-.4,6.2,3.9,4.3,13.7,8.9,27.3,13.1,41,3.9,12.5,7.5,25.1,11.2,37.6.6,2.1,1.4,4.2,2.3,6.9Z"/>
  <path class="cls-1" d="M1005.2,291.4c2.5,3.1,4.7,5.5,6.6,8.2,10.6,15.1,21.2,30.3,31.7,45.5,3.1,4.5,6.2,9,9.2,13.5.8,1.2,1,2.9,1.7,5-5.2,0-9.4,0-13.6,0-2.8,0-4.1-1.8-5.4-3.8-4.4-7.1-8.8-14.3-13.2-21.5-6.9-11.3-13.7-22.6-20.7-33.8-1.9-3.1-2-5.9.1-8.8.9-1.2,1.8-2.3,3.5-4.3Z"/>
  <path class="cls-1" d="M1493.4,336.3c-11.2,3.8-23,4.8-34.2,8.3,12.1,3.6,24-3.6,36.9-.9-2.3,3.1-4.9,3.6-7.6,4-7.9,1.1-15.9,1.8-23.7,3.5-5.9,1.3-11.6,3.7-17.3,5.9-9.3,3.6-18.3,7.5-28.7,6.5-6.5-.6-13.2,0-19.8,0-2,0-4-.2-6.3-1.4,2.4-1.1,4.7-2.4,7.2-3.2,8-2.5,16.1-4.9,24.1-7.2,7.3-2.1,14.5-4.1,21.8-6.2,1.4-.4,3.2-.8,3.9-1.8,2.7-3.4,6.4-3.5,10.2-4,6.9-.9,13.7-2.6,20.6-3.7,4.2-.7,8.4-2.6,12.7.2Z"/>
  <path class="cls-1" d="M980.3,329.3c8.8,11.7,16.7,22.2,25.6,33.9-16.7.6-31.8.2-48.3.3,7.6-12.3,14.6-23.3,22.7-34.3Z"/>
  <path class="cls-1" d="M1747.7,363.1c-10.3,1.7-18-.7-25.7-5.8-10.8-7.3-22.5-13.1-33.8-19.7-12.5-7.3-24.9-14.7-37.5-22,4.4-5,5-5.2,10.1-2.3,20.2,11.2,40.4,22.5,60.6,33.7,7.3,4.1,14.7,8.1,21.9,12.3,1.4.8,2.4,2.1,4.3,3.9Z"/>
  <path class="cls-1" d="M1770.5,362.7c-9.5,2.4-16.3-.3-22.9-4.5-11.5-7.3-23.1-14.6-34.7-21.8-13.7-8.5-27.6-16.9-41.3-25.5-1.5-.9-2.5-2.5-3.9-4,4.2-3.2,7.4-1.9,10.6,0,9.4,5.6,18.7,11.2,28.1,16.8,13.6,8.1,27.2,16.1,40.8,24.2,5.8,3.4,11.5,6.8,17.3,10.3,1.8,1.1,3.3,2.4,6,4.4Z"/>
  <path class="cls-1" d="M1550.9,279.8c3.1-.9,5.1-1.5,7.7-2.3,1.3,2.5,2.9,4.8,3.7,7.3,4.6,15.3,9,30.7,13.5,46,2.9,9.7,6.1,19.4,9.1,29,.2.8.2,1.6.4,3.4-2.9.1-5.5.3-8.9.5-8.4-27.8-16.8-55.5-25.5-83.8Z"/>
  <path class="cls-1" d="M1589.7,274.7c9.1,1.9,13,7.3,15.2,15,4.1,13.7,8.8,27.3,13.2,40.9,2.1,6.4,3.8,13,5.8,19.4.5,1.8,1.5,3.5,1.9,5.3.6,2.4.8,4.8,1.2,7.2-5,.8-6.7.2-7.7-2.8-2.9-8.4-5.7-16.8-8.6-25.2-3.3-9.3-6.7-18.6-10-27.9-3.6-10.3-7.1-20.7-11-31.9Z"/>
  <path class="cls-1" d="M987.5,317.8c1.1-1.8,1.9-3.3,2.9-4.6,1-1.4,2.1-2.6,3.8-4.7,4.3,6.3,8.4,12.3,12.6,18.2,4.1,5.9,8.8,11.4,12.3,17.6,3.5,6.2,9.7,11,10.9,18.5-.9.4-1.2.7-1.6.8-8.2,1.2-13.9-.8-18.3-9.3-6.5-12.7-15-24.4-22.7-36.5Z"/>
  <path class="cls-1" d="M899.8,362.5c-4,1.8-5.8.9-6.2-2.5-.1-.8-.1-1.7-.1-2.5.1-33.6.3-67.2.4-100.8,0-1.2.2-2.5.3-4h7.3c.8,37-2.1,73.6-1.7,109.8Z"/>
  <path class="cls-1" d="M1538.6,281.9c2.8-.1,4.8-.3,7.3-.4,8.4,27.1,16.7,53.9,24.9,80.7-7.6,2.3-9.1,1.5-10.9-4.8-4.5-15.8-9-31.6-13.6-47.4-2.2-7.7-4.8-15.2-7.1-22.9-.4-1.4-.4-2.9-.7-5.2Z"/>
  <path class="cls-1" d="M1494.1,292.6h6.6c3.6,6.1,12,63.9,10.2,70.3-8.1,1.1-8.4.6-9.4-7.4-1.3-10.3-3.3-20.4-4.7-30.7-1.3-9.7-2.2-19.4-3.2-29.1,0-.8.2-1.6.5-3.2Z"/>
  <path class="cls-1" d="M489.2,311.3c5.5-.5,9.4,3.3,13.9,5.4,9.7,4.5,19,9.7,28.5,14.6,18.4,9.3,36.8,18.6,55.2,28,1.4.7,2.5,2,4.9,4-9.1.3-16.5,1.3-23.8-3.2-22.4-13.8-45-27.2-67.6-40.7-3.4-2-6.9-4-10.2-6.1-.5-.3-.5-1.4-.8-2.1l-.2.2Z"/>
  <path class="cls-1" d="M1517.7,287.3c3-.2,5-.4,7.2-.6,1.2,6.8,2.1,13,3.4,19.2,2.2,10.3,4.6,20.6,6.8,30.9,1.5,7.2,2.8,14.5,4.1,21.8.2,1.4-.2,2.8-.3,4.1-6.5,1-7,.5-8.1-5-1.4-7.2-3.3-14.4-4.6-21.6-1.3-7.1-2-14.2-3.2-21.3-1.2-7.1-2.8-14.1-4.2-21.1-.4-1.8-.7-3.7-1.2-6.5Z"/>
  <path class="cls-1" d="M1528,285.1c5.4-1.2,6-1,7.2,3,2,6.7,3.8,13.4,5.6,20.1,2.3,8.6,4.6,17.2,7,25.7,2.2,7.7,4.6,15.4,6.8,23.1.5,1.7.3,3.7.4,6.1-2.5.2-4.6.3-7.3.5-7.7-25.9-12.3-52.2-19.7-78.5Z"/>
  <path class="cls-1" d="M1514.1,289.9c.9,3.6,1.9,6.9,2.3,10.2,1.2,8.4,2,16.8,3.3,25.2,1.5,9.2,3.4,18.2,5,27.4.5,2.7.6,5.5.5,8.2,0,.9-1.4,2.3-2.2,2.4-.9,0-2.5-.9-2.8-1.8-1-3.2-1.8-6.5-2.4-9.9-2.3-12.5-4.4-25-6.6-37.5-1.1-5.8-2.2-11.6-3.6-17.3-1.2-5-.2-6.3,6.3-6.8Z"/>
  <path class="cls-1" d="M763.9,272.6c19.7-2.1,39.1-3.1,57.6,8.4-2.1.3-3.5.7-4.9.6-14.5,0-29,0-43.4-.2-5.3,0-7.7-2.2-9.3-8.9Z"/>
  <path class="cls-1" d="M480.9,317.2c1.5-.5,2-.9,2.3-.7,23.3,14.5,46.7,29,69.9,43.6.8.5,1.3,1.5,2.4,3-7,.6-12.6,1.1-18.3-3.3-17.8-13.8-36-27.1-54.1-40.7-.6-.4-1.1-1-2.2-1.9Z"/>
  <path class="cls-1" d="M1495.8,351.6v11.5h-43.8l-.4-.7c6.9-3,13.6-6.7,20.8-8.8,7.2-2.2,14.9-3.3,23.4-1.9Z"/>
  <path class="cls-1" d="M416.4,167c-1.6.9-3.1,2.2-4.7,2.5-5.7.9-11.2.2-16.9-1.5-11.5-3.4-23.2-5.9-34.9-8.9-2.1-.5-4.1-1.7-7.5-3,5.4-2.5,8.5-4.8,13.9-2.8,10,3.7,20.6,5.9,30.9,8.9,4.4,1.3,8.7,3.1,13.1,4.4,2,.6,4.2.5,6.3.7,0,0-.2-.2-.2-.2Z"/>
  <path class="cls-1" d="M378.1,232.6c-1.5.5-2,.8-2.6.8-1,0-2.1-.1-3.1-.5-17.5-5.8-34.9-11.7-53.1-17.8,1.4-2.4,2.3-3.9,3.4-5.8,4.7,2.3,8.9,4.6,13.3,6.6,1.8.8,4.1,2,5.9,1.6,5.6-1.1,10.4.8,15.1,3.4,6.7,3.7,13.4,7.4,21.1,11.7Z"/>
  <path class="cls-1" d="M748.8,256.1c4.3-.3,18.7,4.3,27.9,8.9-2,.4-3.3.9-4.6,1-2.7,0-5.5-.4-8.2,0-7.9,1.1-11.9-3.4-15-9.8Z"/>
  <path class="cls-1" d="M327.3,197c3.1-.3,4.7-1.1,5.7-.6,7,3.5,15.4,3.7,22.2,8.9-2.9,3.8-6,2.2-8.8,1.3-4.8-1.6-9.4-3.4-14-5.4-1.5-.6-2.6-2.2-5-4.3Z"/>
  <path class="cls-1" d="M323.8,206.7c1.6-3.4,2.7-4.8,5.4-3.5,5.5,2.5,11.1,4.9,17,7.6-1.5,1.7-2.6,2.9-3.9,4.4-6.1-2.8-12.1-5.5-18.5-8.5Z"/>
  <path class="cls-1" d="M1334,241c-2.9.4-2.5-2.3-3.5-3.7-1.3-1.9-2.9-3.7-3.9-5.7-.7-1.4-.6-3.3-.1-5.2,5.1,3.7,7.3,8.7,7.4,14.7,0,0,.2-.2.2-.2Z"/>
  <path class="cls-1" d="M1360.6,213.9c-.5,3.3-1,6.6-1.5,9.9-2-3.7-2.2-7.2.1-10.4.4.1.9.3,1.3.4Z"/>
  <path class="cls-1" d="M489.4,311.2c-4,.9-6-2.5-8.6-4.4,3.3.6,6.8.8,8.4,4.6,0,0,.2-.2.2-.2Z"/>
  <path class="cls-1" d="M471.6,196c-4.1-1.3-4.9-2.3-4.3-7.1,1.4,2.4,2.8,4.8,4.2,7.2,0,0,.2-.2.2-.2Z"/>
  <path class="cls-1" d="M380.5,202.5h5.2c0,.3,0,.6,0,.9-1.8.1-3.7.3-5.5.4,0-.4.1-.9.2-1.3Z"/>
  <path class="cls-1" d="M1364.8,218.2v3.5c-.3,0-.7,0-1,0-.2-1.2-.3-2.3-.5-3.5l1.5-.2Z"/>
</svg>