<?xml version="1.0" encoding="UTF-8"?>
<svg id="_레이어_1" data-name="레이어 1" xmlns="http://www.w3.org/2000/svg" viewBox="0 0 515.08 59.88">
  <defs>
    <style>
      .cls-1 {
        fill: #000;
        stroke-width: 0px;
      }
    </style>
  </defs>
  <path class="cls-1" d="M28.92,23.17h18.32V1.3h-3.21v7.86H10.66V1.3h-3.28v21.88h18.32v8.54H0v2.87h54.48v-2.87h-25.57v-8.54ZM10.66,20.44v-8.54h33.36v8.54H10.66Z"/>
  <polygon class="cls-1" points="6.08 44.43 44.37 44.43 44.37 59.88 47.65 59.88 47.65 41.63 6.08 41.63 6.08 44.43"/>
  <polygon class="cls-1" points="60.43 33.97 86.34 33.97 86.34 47.51 89.55 47.51 89.55 33.97 115.19 33.97 115.19 31.17 60.43 31.17 60.43 33.97"/>
  <polygon class="cls-1" points="71.09 41.22 67.81 41.22 67.81 58.31 109.1 58.31 109.1 55.51 71.09 55.51 71.09 41.22"/>
  <path class="cls-1" d="M87.84,10.46c3.49,7.59,14.08,12.85,22.22,14.36l1.37-2.6c-8.61-1.44-22.01-8.34-22.01-17.02V1.5h-3.28v3.69c-.07,8.89-13.33,15.59-22.01,17.02l1.37,2.67c8.2-1.57,18.87-6.67,22.35-14.42Z"/>
  <polygon class="cls-1" points="149.84 31.65 169.05 31.65 169.05 28.85 131.59 28.85 131.59 8.07 168.37 8.07 168.37 5.26 128.31 5.26 128.31 31.65 146.56 31.65 146.56 48.94 121 48.94 121 51.82 175.82 51.82 175.82 48.94 149.84 48.94 149.84 31.65"/>
  <path class="cls-1" d="M184.98,9.43h23.79c-.89,14.63-9.84,27.65-26.25,35.75l1.78,2.6c19.14-9.43,27.75-24.81,27.75-41.15h-27.07v2.8Z"/>
  <polygon class="cls-1" points="227.23 0 224.01 0 224.01 59.88 227.23 59.88 227.23 28.1 237.75 28.1 237.75 25.29 227.23 25.29 227.23 0"/>
  <path class="cls-1" d="M278.99,14.73c.3-.19.45-.41.45-.67,0-.23-.23-.59-.68-1.08-.52-.53-.91-.79-1.19-.79-.11,0-.26.04-.45.13-.26.15-.63.22-1.13.22h-5.67v-4.51c0-2.83.11-4.52.32-5.05.28-.61.42-1,.42-1.17,0-.23-.23-.39-.68-.48-1.07-.17-1.92-.27-2.55-.32.3,1.21.45,3.54.45,7.01v4.51h-2.38l-6.54-.13c-.26,0-.39.13-.39.38v1.36c0,.25.13.38.39.38l6.54-.13h10.54c-5.11,10.58-11.63,18.49-19.56,23.74.41.19.77.49,1.1.89.28.34.47.51.58.51.09,0,.29-.13.61-.38,3.16-2.41,6.22-5.25,9.18-8.51v20.03l-.13,8.44c0,.25.13.38.39.38h1.45c.26,0,.39-.13.39-.38l-.13-8.44v-21.77c1.61,2.43,3.9,4.77,6.86,7.01.28.21.47.32.58.32.08,0,.29-.15.61-.44.32-.34.65-.6,1-.79-3.14-2.07-5.94-4.58-8.41-7.52,2.75-3.64,5.07-7.42,6.96-11.33.34-.74.7-1.22,1.06-1.43Z"/>
  <path class="cls-1" d="M314.68,33.27c0-.25-.13-.38-.39-.38l-8.99.13h-15.11l-8.99-.13c-.26,0-.39.13-.39.38l.16,7.81v5.78l-.16,12c0,.27.14.41.42.41h1.39c.26,0,.39-.14.39-.41v-3.36h29.51v2.92c0,.25.13.38.39.38h1.39c.26,0,.39-.13.39-.38l-.13-11.81v-6.41l.13-6.92ZM296.35,53.67h-13.34v-8.76h13.34v8.76ZM296.35,43.1h-13.34v-8.22h13.34v8.22ZM312.53,53.67h-14.21v-8.76h14.21v8.76ZM312.53,43.1h-14.21v-8.22h14.21v8.22Z"/>
  <path class="cls-1" d="M315.81,5.4l-9.18.13h-17.62l-9.15-.13c-.28,0-.42.13-.42.38v1.43c0,.25.14.38.42.38l9.15-.13h17.62l9.18.13c.26,0,.39-.13.39-.38v-1.43c0-.25-.13-.38-.39-.38Z"/>
  <path class="cls-1" d="M284.85,26.57c0,.25.13.38.39.38l7.67-.13h9.31l7.67.13c.26,0,.39-.13.39-.38l-.16-4.48v-3.59l.16-4.48c0-.25-.13-.38-.39-.38l-7.67.13h-9.31l-7.67-.13c-.26,0-.39.13-.39.38l.13,4.48v3.59l-.13,4.48ZM287.04,15.59h21.04v9.43h-21.04v-9.43Z"/>
  <path class="cls-1" d="M372.55,48.53c-.11,0-.38.18-.81.54-.41.32-.61.52-.61.6,0,.06.05.14.16.22,3.63,3.68,7.39,6.55,11.28,8.6.32.17.53.25.61.25.13,0,.34-.19.64-.57.28-.42.62-.75,1.03-.98-4.08-1.57-8.1-4.4-12.05-8.51-.11-.11-.19-.16-.26-.16Z"/>
  <path class="cls-1" d="M378.73,46.72c.26,0,.39-.13.39-.38l-.13-7.81v-16.44l.13-7.81c0-.25-.13-.38-.39-.38l-7.51.13h-6.54c.88-2.05,1.83-4.57,2.83-7.55h7.12l8.76.13c.28,0,.42-.13.42-.38v-1.36c0-.25-.14-.38-.42-.38l-8.76.13h-14.5l-8.76-.13c-.28,0-.42.13-.42.38v1.36c0,.25.14.38.42.38l8.76-.13h5.12c-.67,2.33-1.61,4.85-2.83,7.55l-7.44-.13c-.26,0-.39.13-.39.38l.13,7.81v16.44l-.13,7.81c0,.25.13.38.39.38l7.51-.13h8.73l7.51.13ZM356.76,15.84h20.2v8.25h-20.2v-8.25ZM356.76,25.9h20.2v8.35h-20.2v-8.35ZM356.76,44.79v-8.73h20.2v8.73h-20.2Z"/>
  <path class="cls-1" d="M360.85,49.71c-.67-.44-1.24-.79-1.71-1.05-.45.97-.96,1.74-1.51,2.29-2.81,2.71-6.21,5.05-10.18,7.01.41.17.76.43,1.06.79.28.34.48.51.61.51.09,0,.3-.08.64-.25,3.97-2.24,7.23-4.6,9.76-7.08.56-.57,1-.92,1.32-1.05.34-.15.52-.3.52-.45,0-.21-.17-.45-.52-.73Z"/>
  <path class="cls-1" d="M338.65,5.91c-.77-.17-1.54-.27-2.29-.32.26,1.25.39,3.57.39,6.95v25.23l-.13,9.55c0,.25.13.38.39.38h1.38c.26,0,.39-.13.39-.38l-.13-9.55V12.54c0-2.69.11-4.42.32-5.21.17-.68.26-1.03.26-1.05,0-.17-.19-.3-.58-.38Z"/>
  <path class="cls-1" d="M347.19,12.06c0-4.1.11-6.55.32-7.33.17-.68.26-1.03.26-1.05,0-.21-.19-.36-.58-.44-.73-.17-1.54-.27-2.42-.32.3,1.61.45,4.51.45,8.7v30.63l-.13,12.09c0,.25.13.38.39.38h1.45c.26,0,.39-.13.39-.38l-.13-12.09V12.06Z"/>
  <path class="cls-1" d="M330.15,3.68c-.73-.15-1.51-.25-2.35-.32.3,1.21.45,4.02.45,8.44v10.41c0,7.81-.27,13.68-.81,17.62-.86,6.35-2.52,11.52-4.99,15.52.43.15.8.35,1.13.6.3.25.49.38.58.38s.21-.17.39-.51c2.49-4.63,4.1-9.84,4.83-15.62.56-4.36.84-10.58.84-18.66v-9.68c0-3.47.11-5.68.32-6.63.04-.15.1-.36.16-.63.06-.21.1-.36.1-.44,0-.23-.21-.39-.64-.48Z"/>
  <path class="cls-1" d="M435.82,25.84c3.44-4.76,6.77-10.33,9.99-16.69.54-1.08,1-1.71,1.39-1.9.26-.15.39-.36.39-.63,0-.21-.29-.59-.87-1.14-.49-.44-.87-.67-1.13-.67-.13,0-.32.04-.58.13-.26.08-.82.13-1.67.13h-10.28l-5.86-.13c-.26,0-.39.13-.39.38l.13,12.92v28.02l-.13,12.79c0,.27.13.41.39.41h1.51c.26,0,.39-.14.39-.41l-.13-12.85V6.92h15.37c-3.14,7.07-6.81,13.44-11.02,19.11,4.7,3.77,7.92,6.68,9.67,8.73,1.74,2.09,2.61,4.23,2.61,6.41,0,4.82-3.89,7.24-11.66,7.24h-1c.34.34.6.74.77,1.21.17.4.3.65.39.73.09.08.33.13.74.13,3.97-.13,7.07-.89,9.28-2.29,2.49-1.57,3.74-3.84,3.74-6.82,0-2.14-.72-4.25-2.16-6.35-1.8-2.58-5.09-5.64-9.86-9.17Z"/>
  <path class="cls-1" d="M423.23,6.03c.34-.27.52-.52.52-.73s-.19-.44-.58-.7c-.56-.38-1.31-.75-2.25-1.11-.41,1.69-1,3.27-1.77,4.73-2.94,5.44-6.09,10.12-9.44,14.06h-2.96v-9.74h1.64l6.93.13c.26,0,.39-.14.39-.41v-1.21c0-.27-.13-.41-.39-.41l-6.93.13h-1.64v-2.98c0-2.83.11-4.53.32-5.08.28-.59.42-.97.42-1.14,0-.23-.23-.39-.68-.48-.69-.15-1.54-.25-2.55-.32.3,1.21.45,3.54.45,7.01v2.98h-4.06l-6.89-.13c-.28,0-.42.14-.42.41v1.21c0,.28.14.41.42.41l6.89-.13h4.06v9.74h-5.09l-8.86-.13c-.26,0-.39.13-.39.38v1.24c0,.25.13.38.39.38l8.86-.13h8.57c-5.26,5.76-11.75,10.82-19.46,15.2.45.17.83.39,1.13.67.3.32.52.48.64.48.11,0,.31-.1.61-.29,2.88-1.8,5.34-3.46,7.38-4.98v11.74l-.13,12.03c0,.25.13.38.39.38h1.32c.26,0,.39-.13.39-.38v-3.78h16.17v3.11c0,.27.13.41.39.41h1.32c.28,0,.42-.14.42-.41l-.16-11.74v-5.87l.16-7.78c0-.25-.13-.38-.39-.38l-6.41.13h-10.25c3.2-2.56,6.17-5.41,8.92-8.54h3.87l8.86.13c.26,0,.39-.13.39-.38v-1.24c0-.25-.13-.38-.39-.38l-8.86.13h-2.42c2.79-3.41,5.65-7.66,8.57-12.76,1.05-1.8,1.91-2.96,2.58-3.49ZM416.62,53.35h-16.17v-8.98h16.17v8.98ZM416.62,34.31v8.38h-16.17v-8.38h16.17Z"/>
  <path class="cls-1" d="M459.05,19.74c0,.25.14.38.42.38h1.45c.26,0,.39-.13.39-.38v-10.22h48.36v10.22c0,.25.13.38.39.38h1.45c.28,0,.42-.13.42-.38l-.13-6.63v-2.35l.13-2.79c0-.25-.13-.38-.39-.38l-9.44.13h-16.11v-1.36c0-1.97.11-3.23.32-3.78.26-.59.39-.98.39-1.17,0-.23-.21-.38-.64-.44-.75-.15-1.61-.25-2.58-.32.3,1.21.45,3.11.45,5.71v1.36h-15.01l-9.47-.13c-.26,0-.39.13-.39.38l.13,3.17v1.97l-.13,6.63Z"/>
  <path class="cls-1" d="M496.39,35.65c3.67-2.83,6.55-5.28,8.63-7.33,1.44-1.42,2.48-2.31,3.12-2.67.47-.3.71-.54.71-.73,0-.21-.11-.4-.32-.57-.56-.49-1.28-.96-2.16-1.43-.32.74-.82,1.49-1.48,2.25-2.28,2.79-5.39,5.77-9.34,8.92-2.19-4.17-3.89-9.09-5.09-14.76h4.9l9.34.13c.28,0,.42-.13.42-.38v-1.36c0-.25-.14-.38-.42-.38l-9.34.13h-19.56l-9.38-.13c-.26,0-.39.13-.39.38v1.36c0,.25.13.38.39.38l9.38-.13h7.28c-2.92,2.35-5.85,4.25-8.8,5.71-3.57,1.78-8.14,3.41-13.72,4.89.6.38,1.04.73,1.32,1.05.3.4.54.6.71.6.09,0,.29-.05.61-.16,6.16-1.9,11.09-3.99,14.79-6.25,1.83,1.57,3.43,3.4,4.8,5.49-3.37,2.41-6.71,4.41-10.02,6-3.72,1.78-8.38,3.48-13.98,5.11.52.25.93.6,1.26,1.05.28.42.5.63.68.63.08,0,.3-.06.64-.19,4.75-1.52,8.63-3.02,11.66-4.48,3.07-1.46,6.68-3.61,10.83-6.44,1.16,1.93,2.06,4.09,2.71,6.51-3.91,3.53-8.15,6.47-12.73,8.82-4.64,2.37-10.54,4.55-17.69,6.54.41.17.85.56,1.32,1.17.3.4.53.6.68.6.08,0,.28-.05.58-.16,6.06-1.97,11.13-3.96,15.21-5.97,4.92-2.43,9.33-5.34,13.24-8.73.39,2.07.58,4.11.58,6.09,0,3.66-.5,6.25-1.51,7.78-.79,1.19-2.03,1.78-3.71,1.78-2.11,0-4.41-.17-6.93-.51.45.51.74,1.03.87,1.56.08.4.16.65.23.73.08.08.34.15.77.19,1.25.13,2.61.19,4.09.19,3.03,0,5.14-.74,6.35-2.22,1.31-1.61,1.96-4.77,1.96-9.49,0-9.29-3.44-16.96-10.31-23.01,2.32-1.52,4.48-3.15,6.48-4.89h2.29c1.72,7.64,4.2,14.02,7.44,19.14,3.76,5.92,9.31,11.32,16.66,16.19.3.21.49.32.58.32.13,0,.33-.19.61-.57.43-.59.91-1.03,1.45-1.3-8.5-4.78-14.73-10.6-18.69-17.46Z"/>
</svg>